<svg width="48" height="48" viewBox="0 0 48 48" fill="none" xmlns="http://www.w3.org/2000/svg">
<path d="M23.9999 48.0003C19.253 48.0004 14.6127 46.593 10.6658 43.9558C6.71882 41.3187 3.64255 37.5703 1.82597 33.1848C0.00939918 28.7992 -0.465882 23.9735 0.460235 19.3179C1.38635 14.6622 3.67227 10.3857 7.02891 7.02926C11.5299 2.52841 17.6345 -9.38326e-05 23.9998 2.61165e-09C30.365 9.38379e-05 36.4696 2.52878 40.9704 7.02977C45.4713 11.5308 47.9998 17.6354 47.9997 24.0006C47.9996 30.3659 45.4709 36.4704 40.9699 40.9713C38.7465 43.2067 36.1018 44.979 33.1889 46.1855C30.276 47.392 27.1528 48.0089 23.9999 48.0003ZM25.0529 23.6663L23.1599 25.9433C22.9469 26.2333 22.6009 26.6973 22.3889 26.9783C22.1673 27.2566 21.9288 27.521 21.6749 27.7703C21.2199 28.2363 20.8269 28.6393 20.9479 28.8703C21.1309 29.2273 25.6039 36.7823 25.6869 36.8703C25.7605 36.9459 25.8485 37.0059 25.9457 37.047C26.0429 37.088 26.1474 37.1091 26.2529 37.1091C26.3584 37.1091 26.4629 37.088 26.5601 37.047C26.6573 37.0059 26.7453 36.9459 26.8189 36.8703C26.9189 36.7703 28.7759 31.1383 30.4619 25.9553C32.1479 20.7723 33.9619 15.1203 33.9469 14.9613C33.9139 14.4983 33.7469 14.3173 33.3469 14.3173C32.8289 14.3637 32.3204 14.4846 31.8369 14.6763C31.2479 14.8763 26.5369 16.4173 21.1049 18.1913C14.0939 20.4813 11.4569 21.3603 11.3779 21.4353C11.3025 21.5089 11.2425 21.5968 11.2016 21.6939C11.1606 21.791 11.1396 21.8954 11.1396 22.0008C11.1396 22.1062 11.1606 22.2105 11.2016 22.3076C11.2425 22.4047 11.3025 22.4927 11.3779 22.5663C11.4679 22.6503 18.7499 26.7533 19.1779 26.9793C19.2063 26.9927 19.2375 26.9992 19.2689 26.9983C20.0503 26.7029 20.7721 26.2693 21.3999 25.7183L21.4379 25.6893C21.6259 25.5463 22.1129 25.1843 22.4679 24.9203L25.0529 23.6663Z" fill="#95C12B"/>
</svg>
