<svg width="49" height="49" viewBox="0 0 49 49" fill="none" xmlns="http://www.w3.org/2000/svg">
<path d="M24.4998 49C19.6542 49 14.9174 47.5631 10.8884 44.871C6.85947 42.1789 3.71928 38.3525 1.86495 33.8758C0.0106215 29.399 -0.47456 24.4729 0.470759 19.7204C1.41608 14.9679 3.74944 10.6024 7.17578 7.17604C11.7762 2.6092 17.9989 0.0516497 24.4812 0.0635177C30.9635 0.0753856 37.1768 2.65571 41.7605 7.23936C46.3441 11.823 48.9244 18.0364 48.9363 24.5186C48.9482 31.0009 46.3906 37.2236 41.8238 41.824C39.5541 44.1062 36.8542 45.9155 33.8806 47.1473C30.9069 48.379 27.7184 49.0088 24.4998 49ZM18.2788 20.547C18.138 20.5473 18.0031 20.6033 17.9036 20.7029C17.8041 20.8024 17.748 20.9373 17.7478 21.078V25.4C17.748 25.5408 17.8041 25.6757 17.9036 25.7752C18.0031 25.8747 18.138 25.9308 18.2788 25.931H21.7058V36.831C21.706 36.9718 21.7621 37.1067 21.8616 37.2062C21.9611 37.3057 22.096 37.3618 22.2368 37.362H26.7128C26.8535 37.3618 26.9884 37.3057 27.088 37.2062C27.1875 37.1067 27.2435 36.9718 27.2438 36.831V25.941H31.2548C31.3955 25.9408 31.5304 25.8847 31.63 25.7852C31.7295 25.6857 31.7855 25.5508 31.7858 25.41V21.083C31.7858 20.9421 31.7299 20.807 31.6303 20.7072C31.5308 20.6075 31.3957 20.5513 31.2548 20.551H27.2478V18.028C27.2478 16.813 27.5378 16.197 29.1208 16.197H31.4208C31.5617 16.1968 31.6968 16.1406 31.7963 16.0409C31.8959 15.9411 31.9518 15.806 31.9518 15.665V11.639C31.9531 11.5684 31.9404 11.4983 31.9143 11.4326C31.8882 11.367 31.8493 11.3072 31.7999 11.2567C31.7505 11.2063 31.6915 11.1662 31.6264 11.1388C31.5613 11.1113 31.4914 11.0972 31.4208 11.097H28.0088C27.8958 11.091 27.7818 11.087 27.6698 11.087C26.8424 11.0871 26.0241 11.2588 25.2664 11.5911C24.5087 11.9235 23.8282 12.4093 23.2677 13.018C22.7073 13.6266 22.2791 14.3448 22.0103 15.1273C21.7415 15.9098 21.6378 16.7395 21.7058 17.564V20.547H18.2788Z" fill="#95C12B"/>
</svg>
