<svg width="49" height="49" viewBox="0 0 49 49" fill="none" xmlns="http://www.w3.org/2000/svg">
<path d="M24.4998 49C19.6542 49 14.9174 47.5631 10.8884 44.871C6.85947 42.1789 3.71928 38.3525 1.86495 33.8758C0.0106215 29.399 -0.47456 24.4729 0.470759 19.7204C1.41608 14.9679 3.74944 10.6024 7.17578 7.17604C11.7762 2.6092 17.9989 0.0516497 24.4812 0.0635177C30.9635 0.0753856 37.1768 2.65571 41.7605 7.23936C46.3441 11.823 48.9244 18.0364 48.9363 24.5186C48.9482 31.0009 46.3906 37.2236 41.8238 41.824C39.5541 44.1062 36.8542 45.9155 33.8806 47.1473C30.9069 48.379 27.7184 49.0088 24.4998 49ZM20.4938 34.749H20.5938C22.4599 34.7542 24.3084 34.3892 26.0325 33.6751C27.7565 32.9611 29.3218 31.9121 30.6378 30.589C31.9648 29.2556 33.0155 27.6733 33.7297 25.9329C34.4439 24.1925 34.8076 22.3283 34.7998 20.447C34.7998 20.247 34.7938 20.039 34.7818 19.797C35.7752 19.0882 36.6306 18.2037 37.3058 17.187C36.3822 17.5895 35.4055 17.8569 34.4058 17.981C35.4572 17.3554 36.2428 16.366 36.6138 15.2C35.628 15.7846 34.5494 16.1963 33.4248 16.417C32.7362 15.6787 31.8412 15.1648 30.8563 14.9425C29.8715 14.7201 28.8425 14.7996 27.9035 15.1706C26.9644 15.5416 26.159 16.1868 25.592 17.0222C25.025 17.8576 24.7228 18.8444 24.7248 19.854C24.7217 20.2393 24.7616 20.6237 24.8438 21C22.845 20.9004 20.8897 20.3808 19.1052 19.475C17.3207 18.5692 15.747 17.2976 14.4868 15.743C13.8406 16.8493 13.6409 18.1603 13.9284 19.4087C14.2159 20.6572 14.9689 21.7488 16.0338 22.461C15.2379 22.4388 14.4589 22.2265 13.7618 21.842V21.9C13.7669 23.0597 14.1695 24.1825 14.9023 25.0813C15.6351 25.9801 16.6539 26.6005 17.7888 26.839C17.3718 26.9474 16.9426 27.0015 16.5118 27H16.3998C16.1053 27.0001 15.8115 26.971 15.5228 26.913C15.8491 27.9102 16.476 28.782 17.3175 29.4087C18.159 30.0354 19.1739 30.3862 20.2228 30.413C18.4439 31.7993 16.254 32.5537 13.9988 32.557H13.9288C13.5484 32.5566 13.1684 32.5335 12.7908 32.488C15.0755 33.9617 17.737 34.7447 20.4558 34.743L20.4938 34.749Z" fill="#95C12B"/>
</svg>
