<svg width="49" height="49" viewBox="0 0 49 49" fill="none" xmlns="http://www.w3.org/2000/svg">
<path d="M24.4998 49C19.6542 49 14.9174 47.5631 10.8884 44.871C6.85947 42.1789 3.71928 38.3525 1.86495 33.8758C0.0106215 29.399 -0.47456 24.4729 0.470759 19.7204C1.41608 14.9679 3.74944 10.6024 7.17578 7.17604C11.7762 2.6092 17.9989 0.0516497 24.4812 0.0635177C30.9635 0.0753856 37.1768 2.65571 41.7605 7.23936C46.3441 11.823 48.9244 18.0364 48.9363 24.5186C48.9482 31.0009 46.3906 37.2236 41.8238 41.824C39.5541 44.1062 36.8542 45.9155 33.8806 47.1473C30.9069 48.379 27.7184 49.0088 24.4998 49ZM19.0298 11.172C17.114 11.1765 15.2779 11.9394 13.9231 13.2939C12.5682 14.6484 11.8048 16.4843 11.7998 18.4V30.135C11.8051 32.0501 12.5682 33.8853 13.9223 35.2395C15.2765 36.5937 17.1117 37.3568 19.0268 37.362H30.7658C32.6809 37.3568 34.516 36.5937 35.8702 35.2395C37.2244 33.8853 37.9875 32.0501 37.9928 30.135V18.4C37.9875 16.4849 37.2244 14.6498 35.8702 13.2956C34.516 11.9414 32.6809 11.1783 30.7658 11.173L19.0298 11.172ZM30.7668 35.038H19.0298C17.7316 35.0336 16.4879 34.5159 15.5699 33.5979C14.6519 32.68 14.1343 31.4362 14.1298 30.138V18.4C14.1345 17.1019 14.6523 15.8584 15.5702 14.9405C16.4881 14.0226 17.7317 13.5048 19.0298 13.5H30.7658C32.0647 13.5035 33.3096 14.0207 34.2286 14.9387C35.1476 15.8567 35.666 17.1011 35.6708 18.4V30.135C35.6671 31.4344 35.1492 32.6795 34.2303 33.5983C33.3114 34.517 32.0662 35.0346 30.7668 35.038ZM24.8998 17.518C23.1096 17.518 21.3927 18.2292 20.1268 19.4951C18.8609 20.7609 18.1498 22.4778 18.1498 24.268C18.1498 26.0583 18.8609 27.7751 20.1268 29.041C21.3927 30.3069 23.1096 31.018 24.8998 31.018C26.69 31.018 28.4069 30.3069 29.6727 29.041C30.9386 27.7751 31.6498 26.0583 31.6498 24.268C31.6498 22.4778 30.9386 20.7609 29.6727 19.4951C28.4069 18.2292 26.69 17.518 24.8998 17.518ZM31.9328 15.547C31.537 15.5442 31.1526 15.6796 30.8459 15.9298C30.5392 16.18 30.3294 16.5294 30.2527 16.9177C30.1761 17.306 30.2373 17.7089 30.4259 18.0569C30.6145 18.405 30.9186 18.6762 31.2858 18.824C31.6498 18.9747 32.0549 18.9942 32.4317 18.8793C32.8085 18.7644 33.1338 18.5222 33.3518 18.194C33.5236 17.9379 33.6225 17.6398 33.6379 17.3317C33.6532 17.0236 33.5845 16.7171 33.439 16.4452C33.2935 16.1732 33.0767 15.9459 32.8119 15.7877C32.5471 15.6295 32.2442 15.5463 31.9358 15.547H31.9328ZM24.8998 28.692C23.7262 28.692 22.6007 28.2258 21.7708 27.396C20.941 26.5661 20.4748 25.4406 20.4748 24.267C20.4748 23.0935 20.941 21.9679 21.7708 21.1381C22.6007 20.3082 23.7262 19.842 24.8998 19.842C26.0734 19.842 27.1989 20.3082 28.0287 21.1381C28.8586 21.9679 29.3248 23.0935 29.3248 24.267C29.3248 25.4406 28.8586 26.5661 28.0287 27.396C27.1989 28.2258 26.0734 28.692 24.8998 28.692Z" fill="#95C12B"/>
</svg>
