<svg width="43" height="38" viewBox="0 0 43 38" fill="none" xmlns="http://www.w3.org/2000/svg">
<path d="M21.7309 38C21.1329 38.0023 20.5547 37.7861 20.1049 37.392C18.4149 35.911 16.7829 34.52 15.3439 33.292C11.6242 30.3192 8.15028 27.0512 4.9559 23.52C2.37495 20.736 0.896767 17.107 0.797899 13.312C0.740349 10.0165 1.92645 6.82021 4.1199 4.36C5.18359 3.19982 6.47883 2.2757 7.92195 1.64733C9.36507 1.01896 10.924 0.700319 12.4979 0.711999C14.885 0.701946 17.2046 1.50383 19.0759 2.986C20.0909 3.78157 20.9864 4.71881 21.7349 5.769C22.4843 4.71973 23.3804 3.78351 24.3959 2.989C26.2638 1.50811 28.5792 0.705295 30.9629 0.711999C32.5375 0.699758 34.0972 1.01813 35.541 1.64651C36.9849 2.2749 38.2808 3.19932 39.3449 4.36C41.5369 6.81868 42.7229 10.0125 42.6669 13.306C42.571 17.1027 41.0941 20.7341 38.5129 23.52C35.316 27.0488 31.8397 30.314 28.1179 33.284C26.6729 34.514 25.0469 35.907 23.3479 37.392C22.8981 37.786 22.3199 38.0022 21.7219 38H21.7309Z" fill="black"/>
</svg>
