<svg width="1365" height="621" viewBox="0 0 1365 621" fill="none" xmlns="http://www.w3.org/2000/svg">
<path opacity="0.3" d="M1288.25 620.997C1289.16 619.219 1290.06 617.441 1290.96 615.662L1292.48 616.429C1291.72 617.955 1290.94 619.478 1290.16 620.997H1288.25ZM74.6484 620.997C74.3864 620.485 74.1252 619.972 73.8652 619.458L73.8555 619.441C73.7675 619.276 73.6854 619.118 73.6074 618.954V618.948C73.5844 618.899 73.5562 618.855 73.5352 618.806C73.5252 618.789 73.514 618.767 73.502 618.745C73.432 618.603 73.3591 618.466 73.2891 618.324C73.2771 618.302 73.2679 618.28 73.2559 618.258C73.2378 618.219 73.2179 618.18 73.1953 618.143C73.1853 618.121 73.1623 618.078 73.1523 618.056C73.1193 617.985 73.08 617.913 73.043 617.842C73.0367 617.82 73.0273 617.798 73.0156 617.777C72.9926 617.733 72.9702 617.694 72.9492 617.651C72.9282 617.608 72.935 617.624 72.918 617.585C72.901 617.546 72.8735 617.503 72.8555 617.459C72.8455 617.438 72.8284 617.404 72.8184 617.388C72.7794 617.317 72.7479 617.246 72.7109 617.175C72.6989 617.158 72.6839 617.12 72.6719 617.098C72.6509 617.059 72.6314 617.016 72.6094 616.978C72.5994 616.956 72.5823 616.922 72.5723 616.9L72.3574 616.479C72.3529 616.461 72.3473 616.444 72.3379 616.429C72.3109 616.38 72.2887 616.329 72.2617 616.281C71.6757 615.114 71.0937 613.942 70.5137 612.776L72.0391 612.014C73.5191 615.004 75.0394 618.014 76.5684 620.997H74.6484ZM1301.99 592.64C1303.63 589.04 1305.26 585.376 1306.84 581.75L1308.4 582.435C1307.64 584.193 1306.86 585.948 1306.09 587.699C1306.08 587.715 1306.07 587.732 1306.06 587.749C1306.05 587.787 1306.03 587.83 1306.01 587.869C1305.99 587.908 1305.97 587.951 1305.96 587.99C1305.94 588.029 1305.93 588.039 1305.92 588.067C1305.88 588.144 1305.86 588.198 1305.83 588.275C1305.82 588.286 1305.82 588.297 1305.81 588.308C1305.78 588.39 1305.75 588.445 1305.72 588.522V588.527C1305 590.143 1304.27 591.737 1303.54 593.347L1301.99 592.64ZM58.3086 586.751C58.3041 586.738 58.2991 586.726 58.293 586.713C58.272 586.664 58.2476 586.613 58.2266 586.565C58.221 586.549 58.2135 586.532 58.2051 586.516C58.1721 586.445 58.1443 586.373 58.1113 586.308C58.0953 586.264 58.0805 586.231 58.0625 586.193C58.0445 586.155 58.0355 586.133 58.0195 586.1C58.0035 586.067 57.9808 586.013 57.9648 585.974L57.9316 585.897C57.8986 585.815 57.8768 585.776 57.8438 585.697C57.8337 585.68 57.8243 585.661 57.8164 585.642C57.7945 585.584 57.769 585.527 57.7402 585.472L57.7227 585.423C57.6527 585.264 57.5965 585.133 57.5215 584.98C57.5199 584.972 57.5167 584.965 57.5117 584.958C57.4787 584.881 57.451 584.821 57.418 584.739C57.418 584.734 57.4121 584.734 57.4121 584.729C56.5251 582.713 55.6599 580.72 54.7949 578.687L56.3613 578.018C57.9163 581.65 59.5276 585.325 61.1426 588.93L59.5879 589.63L58.3086 586.751ZM1316.57 558.151C1318.01 554.47 1319.44 550.724 1320.81 547.015L1322.41 547.615C1322.21 548.135 1322.02 548.656 1321.82 549.176L1321.81 549.214C1321.76 549.357 1321.7 549.499 1321.65 549.641L1321.61 549.762C1321.59 549.795 1321.58 549.823 1321.57 549.85C1321.55 549.913 1321.53 549.975 1321.5 550.036C1321.5 550.041 1321.5 550.053 1321.5 550.058C1321.46 550.14 1321.44 550.206 1321.41 550.288C1321.41 550.298 1321.4 550.308 1321.4 550.315C1321.37 550.397 1321.35 550.459 1321.31 550.541V550.545C1320.28 553.29 1319.22 556.05 1318.16 558.778L1316.57 558.151ZM43.6836 551.036C43.6836 551.031 43.6777 551.031 43.6777 551.025C43.6187 550.86 43.5689 550.725 43.5039 550.565C43.4979 550.543 43.4904 550.527 43.4844 550.505L43.4219 550.346C43.4159 550.325 43.4034 550.297 43.3984 550.275C43.3674 550.192 43.3553 550.16 43.3223 550.075C43.3063 550.036 43.2953 549.993 43.2793 549.954C43.2678 549.931 43.2584 549.908 43.252 549.883C43.234 549.834 43.2133 549.783 43.1973 549.74C43.1941 549.729 43.1903 549.718 43.1855 549.708C42.4455 547.729 41.7161 545.758 40.9941 543.775L42.5996 543.189C43.9536 546.902 45.3556 550.66 46.7676 554.347L45.1738 554.96C44.6688 553.65 44.1796 552.358 43.6816 551.037L43.6836 551.036ZM1329.23 522.909C1330.46 519.157 1331.68 515.339 1332.84 511.559L1334.47 512.059C1334.05 513.412 1333.63 514.764 1333.2 516.112C1333.2 516.131 1333.19 516.15 1333.19 516.167L1333.15 516.276C1333.14 516.314 1333.13 516.358 1333.12 516.402C1333.1 516.431 1333.1 516.46 1333.09 516.489C1333.06 516.572 1333.05 516.622 1333.02 516.708V516.713C1332.99 516.796 1332.97 516.866 1332.94 516.949C1332.94 516.954 1332.94 516.96 1332.94 516.965C1332.25 519.129 1331.56 521.285 1330.85 523.434L1329.23 522.909ZM31.1289 514.594L31.1172 514.567C31.0722 514.419 31.0295 514.276 30.9805 514.129C30.9685 514.091 30.9574 514.052 30.9414 514.008C30.9342 513.979 30.9248 513.95 30.9141 513.921C30.9021 513.877 30.8754 513.79 30.8594 513.746C30.8575 513.731 30.8537 513.716 30.8477 513.702C30.8207 513.62 30.8043 513.56 30.7773 513.478C30.7713 513.467 30.7716 513.45 30.7656 513.439C30.2126 511.664 29.6815 509.933 29.1445 508.153L30.7773 507.66C31.9223 511.445 33.1152 515.274 34.3262 519.042L32.7051 519.563C32.1731 517.909 31.6476 516.252 31.127 514.594H31.1289ZM1339.91 487.031C1340.93 483.208 1341.94 479.324 1342.89 475.489L1344.54 475.9C1344.26 477.034 1343.98 478.151 1343.69 479.279C1343.69 479.285 1343.69 479.296 1343.69 479.301C1343.67 479.389 1343.65 479.454 1343.63 479.537C1343.62 479.559 1343.62 479.581 1343.61 479.603C1343.6 479.642 1343.58 479.702 1343.57 479.745C1343.56 479.784 1343.56 479.823 1343.54 479.86L1343.52 479.943C1343.5 480.043 1343.47 480.143 1343.45 480.243V480.254C1342.83 482.664 1342.2 485.07 1341.56 487.473L1339.91 487.031ZM22.1992 483.47C22.1602 483.328 22.1249 483.18 22.0859 483.032C22.0739 482.988 22.0735 482.988 22.0645 482.944C22.0555 482.9 22.0432 482.862 22.0312 482.818C22.0193 482.774 22.01 482.747 21.998 482.703C21.986 482.659 21.9711 482.593 21.9551 482.538C21.9391 482.483 21.9319 482.451 21.9219 482.407C21.9147 482.373 21.9054 482.34 21.8945 482.307C21.8825 482.263 21.8733 482.214 21.8613 482.17C21.8562 482.141 21.8507 482.111 21.8418 482.083C21.8238 482.017 21.8072 481.945 21.7852 481.882C21.7792 481.844 21.7687 481.811 21.7637 481.782C21.7587 481.753 21.7424 481.695 21.7324 481.656C21.7224 481.617 21.7141 481.59 21.7051 481.556C21.6871 481.496 21.6663 481.413 21.6543 481.356C21.6443 481.329 21.6378 481.301 21.6328 481.279C21.6228 481.235 21.6057 481.179 21.5957 481.136C21.5857 481.093 21.5773 481.071 21.5723 481.036C21.5673 481.001 21.5393 480.916 21.5293 480.872C21.5233 480.855 21.5177 480.833 21.5117 480.817C21.4907 480.729 21.481 480.68 21.457 480.598C21.457 480.576 21.4474 480.549 21.4414 480.527C21.4294 480.489 21.4084 480.401 21.3984 480.357C21.3924 480.335 21.3869 480.319 21.3809 480.297C21.3599 480.209 21.3462 480.166 21.3242 480.078C21.3182 480.056 21.3146 480.034 21.3086 480.018C21.2966 479.974 21.2757 479.881 21.2637 479.837C21.2577 479.82 21.254 479.798 21.248 479.776C21.203 479.606 21.176 479.486 21.127 479.316C21.1251 479.298 21.122 479.279 21.1172 479.261L21.0664 479.069C21.0603 479.054 21.0572 479.037 21.0566 479.021C21.0336 478.939 21.0161 478.877 20.9941 478.795C20.9881 478.779 20.9884 478.768 20.9824 478.751C20.9614 478.669 20.9556 478.636 20.9336 478.551C20.9303 478.536 20.9266 478.522 20.9219 478.507C20.8789 478.332 20.8457 478.207 20.8027 478.036C20.7967 478.019 20.797 477.998 20.791 477.981C20.748 477.811 20.7148 477.681 20.6758 477.515C20.6698 477.499 20.6662 477.482 20.6602 477.466C20.6482 477.423 20.6212 477.319 20.6152 477.275C20.6082 477.26 20.6032 477.243 20.5996 477.226C20.5786 477.138 20.5669 477.083 20.5449 476.996C20.5382 476.982 20.5325 476.967 20.5312 476.952C20.5212 476.913 20.4944 476.804 20.4824 476.765C20.4764 476.744 20.4708 476.722 20.4668 476.7C20.4438 476.618 20.434 476.579 20.416 476.492C20.416 476.486 20.4163 476.475 20.4062 476.47C20.3883 476.382 20.3736 476.322 20.3516 476.24C20.3453 476.222 20.3416 476.204 20.3398 476.185C20.3238 476.142 20.2991 476.044 20.2891 476C20.2831 475.983 20.2833 475.966 20.2773 475.944C20.2563 475.861 20.2407 475.807 20.2227 475.719C20.2156 475.703 20.2107 475.687 20.207 475.67C20.195 475.626 20.1741 475.527 20.1621 475.483C20.1583 475.463 20.1533 475.443 20.1465 475.423C20.1255 475.336 20.1138 475.28 20.0918 475.193C20.0871 475.187 20.0851 475.179 20.0859 475.171C20.0699 475.105 20.0512 475.034 20.0352 474.971C20.0252 474.946 20.0196 474.921 20.0156 474.895C20.0036 474.851 19.9827 474.757 19.9707 474.713C19.9664 474.697 19.9633 474.681 19.9609 474.664C19.9379 474.576 19.9263 474.533 19.9043 474.445C19.8994 474.419 19.8932 474.393 19.8828 474.368C19.8728 474.324 19.8557 474.253 19.8457 474.209C19.8397 474.187 19.8322 474.16 19.8262 474.138C19.8052 474.05 19.7993 474.017 19.7773 473.93C19.7713 473.903 19.7628 473.869 19.7578 473.837C19.7528 473.805 19.7307 473.744 19.7188 473.7C19.7068 473.656 19.7023 473.634 19.6973 473.6C19.6835 473.551 19.6723 473.502 19.6641 473.452C19.6541 473.425 19.6477 473.391 19.6367 473.364C19.6207 473.299 19.6098 473.238 19.5938 473.178C19.5866 473.141 19.5772 473.105 19.5664 473.068C19.5604 473.03 19.5481 472.997 19.5391 472.953C19.5301 472.909 19.5227 472.876 19.5137 472.838C19.4957 472.773 19.4807 472.712 19.4688 472.652C19.4587 472.613 19.4474 472.575 19.4414 472.543C19.4354 472.511 19.4251 472.477 19.4141 472.433C19.4031 472.389 19.3927 472.356 19.3867 472.318C19.3807 472.28 19.3655 472.235 19.3535 472.192C19.3415 472.149 19.3264 472.077 19.3164 472.017C19.3044 471.978 19.3041 471.973 19.2891 471.929L20.9473 471.524C21.8853 475.369 22.8593 479.259 23.8613 483.083L22.207 483.515C22.204 483.504 22.2042 483.492 22.1992 483.47ZM1348.59 450.604C1349.39 446.737 1350.18 442.804 1350.92 438.92L1352.6 439.243C1352.58 439.343 1352.56 439.452 1352.54 439.562C1352.53 439.593 1352.53 439.624 1352.52 439.654C1352.51 439.693 1352.51 439.732 1352.5 439.77C1352.49 439.836 1352.47 439.917 1352.46 439.982C1352.45 439.989 1352.45 439.997 1352.45 440.004C1352.44 440.092 1352.43 440.141 1352.41 440.229C1352.41 440.242 1352.4 440.255 1352.4 440.268C1352.05 442.098 1351.7 443.899 1351.33 445.724C1351.33 445.73 1351.33 445.736 1351.33 445.741C1351.31 445.828 1351.3 445.889 1351.29 445.976C1351.28 445.981 1351.28 445.988 1351.28 445.999C1351.26 446.086 1351.25 446.151 1351.23 446.239C1351.23 446.255 1351.22 446.271 1351.22 446.288C1351.21 446.326 1351.19 446.425 1351.18 446.463C1351.17 446.501 1351.18 446.513 1351.17 446.541C1351.15 446.628 1351.14 446.666 1351.13 446.753C1351.12 446.783 1351.11 446.812 1351.11 446.841C1351.1 446.884 1351.09 446.928 1351.08 446.972C1351.08 447.016 1351.07 447.054 1351.05 447.093C1351.05 447.127 1351.04 447.161 1351.03 447.193C1351.02 447.275 1351 447.357 1350.98 447.439C1350.98 447.458 1350.98 447.477 1350.97 447.494C1350.96 447.543 1350.96 447.594 1350.95 447.647C1350.94 447.663 1350.94 447.68 1350.94 447.696C1350.71 448.786 1350.49 449.872 1350.26 450.955L1348.59 450.604ZM13.123 443.911C13.123 443.906 13.1232 443.906 13.1172 443.9L13.0234 443.407C13.0179 443.393 13.0148 443.378 13.0137 443.363L12.9688 443.138C12.9688 443.127 12.9689 443.121 12.9629 443.116C12.9469 443.029 12.9359 442.979 12.9199 442.891C12.9139 442.864 12.9142 442.842 12.9082 442.82C12.8982 442.771 12.8811 442.69 12.8711 442.646C12.8704 442.625 12.8666 442.605 12.8594 442.585C12.8434 442.498 12.8324 442.448 12.8164 442.36C12.8104 442.338 12.8107 442.316 12.8047 442.295C12.7927 442.251 12.7775 442.169 12.7715 442.125C12.7655 442.098 12.7619 442.076 12.7559 442.048C12.7379 441.96 12.7289 441.916 12.7109 441.829C12.7104 441.812 12.7053 441.796 12.6992 441.78C12.6932 441.736 12.674 441.637 12.668 441.594C12.6616 441.571 12.6559 441.547 12.6543 441.523C12.6333 441.435 12.6273 441.392 12.6113 441.304C12.6053 441.299 12.6055 441.299 12.6055 441.293C12.5895 441.205 12.5786 441.134 12.5566 441.046C12.5575 441.035 12.5555 441.023 12.5508 441.013C12.5348 440.926 12.5238 440.871 12.5078 440.783V440.767C12.1508 438.915 11.8009 437.086 11.4609 435.229L13.1367 434.922C13.8557 438.806 14.6153 442.744 15.4043 446.611L13.7285 446.951C13.5265 445.932 13.324 444.93 13.123 443.911ZM1355.23 413.757C1355.83 409.852 1356.4 405.886 1356.92 401.964L1358.61 402.194C1358.36 404.078 1358.1 405.957 1357.83 407.841V407.853C1357.8 408.028 1357.78 408.176 1357.76 408.353C1357.76 408.375 1357.75 408.39 1357.75 408.412C1357.74 408.478 1357.73 408.533 1357.72 408.599C1357.72 408.619 1357.72 408.64 1357.71 408.659C1357.7 408.746 1357.69 408.79 1357.69 408.878C1357.68 408.911 1357.67 408.938 1357.67 408.971C1357.66 409.004 1357.66 409.054 1357.65 409.097L1357.63 409.212C1357.63 409.256 1357.62 409.338 1357.61 409.382C1357.61 409.426 1357.6 409.482 1357.59 409.53C1357.59 409.578 1357.58 409.585 1357.57 409.63C1357.57 409.676 1357.56 409.722 1357.55 409.767C1357.55 409.782 1357.55 409.797 1357.55 409.812C1357.53 409.921 1357.52 410.024 1357.51 410.128L1357.5 410.15C1357.5 410.205 1357.49 410.265 1357.48 410.32C1357.47 410.342 1357.48 410.325 1357.47 410.347C1357.45 410.528 1357.42 410.703 1357.4 410.878L1357.39 410.889C1357.37 411.07 1357.34 411.25 1357.32 411.431V411.442C1357.26 411.803 1357.21 412.165 1357.15 412.521L1357.15 412.548C1357.14 412.603 1357.13 412.657 1357.12 412.712C1357.12 412.725 1357.12 412.738 1357.12 412.751C1357.1 412.866 1357.09 412.976 1357.07 413.085L1357.06 413.096C1357.06 413.145 1357.05 413.196 1357.04 413.238C1357.03 413.28 1357.04 413.277 1357.03 413.321C1357.03 413.365 1357.01 413.414 1357.01 413.463C1357 413.529 1356.99 413.584 1356.98 413.65C1356.98 413.688 1356.97 413.721 1356.96 413.75C1356.96 413.797 1356.95 413.842 1356.94 413.887C1356.94 413.918 1356.94 413.95 1356.93 413.98L1356.93 414.013L1355.23 413.757ZM7.08008 408.557C7.08008 408.513 7.07045 408.486 7.06445 408.442C7.05845 408.398 7.05873 408.371 7.05273 408.342C7.04273 408.277 7.03153 408.195 7.01953 408.124C7.01761 408.109 7.01761 408.094 7.01953 408.079C7.00753 408.013 6.99633 407.942 6.98633 407.879C6.98723 407.863 6.98533 407.846 6.98047 407.83C6.75547 406.236 6.53736 404.664 6.31836 403.07V403.065C6.09336 401.422 5.88083 399.79 5.67383 398.146L7.36328 397.927C7.86328 401.849 8.41047 405.822 8.98047 409.728L7.29492 409.974C7.21792 409.501 7.15208 409.029 7.08008 408.557ZM1359.84 376.595C1360.23 372.662 1360.57 368.669 1360.88 364.725L1362.58 364.862C1362.27 368.828 1361.92 372.81 1361.54 376.762L1359.84 376.595ZM1.91797 360.787L3.61719 360.661C3.90819 364.61 4.22994 368.609 4.58594 372.542L2.88672 372.695C2.52872 368.737 2.20468 364.768 1.91602 360.789L1.91797 360.787ZM1362.41 339.244C1362.57 335.294 1362.71 331.285 1362.81 327.33L1364.51 327.369C1364.46 329.291 1364.41 331.182 1364.35 333.098V333.115C1364.34 333.202 1364.34 333.284 1364.34 333.378V333.4C1364.34 333.471 1364.33 333.548 1364.33 333.613C1364.33 333.641 1364.33 333.662 1364.33 333.684C1364.32 333.777 1364.32 333.821 1364.32 333.909C1364.32 333.942 1364.32 333.97 1364.32 334.002C1364.32 334.048 1364.32 334.094 1364.31 334.139V334.265C1364.31 334.287 1364.31 334.326 1364.31 334.348C1364.31 334.448 1364.31 334.548 1364.3 334.638V334.66C1364.3 334.721 1364.29 334.781 1364.29 334.841V334.853C1364.24 336.217 1364.19 337.58 1364.13 338.944V338.955C1364.13 339.055 1364.13 339.155 1364.12 339.255V339.321L1362.41 339.244ZM0.410156 331.329V331.318C0.410156 331.137 0.400531 330.962 0.394531 330.787V330.749C0.388531 330.58 0.382906 330.404 0.378906 330.229V330.189C0.373876 330.133 0.372014 330.076 0.373047 330.02V330.003C0.367047 329.893 0.367328 329.789 0.361328 329.68V329.631C0.362263 329.576 0.360401 329.521 0.355469 329.466V329.428C0.355469 329.328 0.355703 329.22 0.345703 329.11V329.077C0.346638 329.022 0.344776 328.967 0.339844 328.912V328.875C0.339844 328.76 0.332031 328.644 0.332031 328.529V328.524C0.326031 328.463 0.326172 328.409 0.326172 328.349V328.322C0.326172 328.147 0.316547 327.966 0.310547 327.792V327.764C0.304547 327.589 0.304828 327.409 0.298828 327.228V327.21C0.298828 327.029 0.289203 326.849 0.283203 326.668V326.651C0.277203 326.465 0.277484 326.284 0.271484 326.098C0.265484 325.912 0.261719 325.731 0.261719 325.55V325.534C0.255719 325.353 0.248047 325.172 0.248047 324.997V324.97C0.243137 324.914 0.241275 324.858 0.242188 324.801V324.762C0.236187 324.662 0.236422 324.562 0.232422 324.462V324.258C0.233501 324.227 0.231632 324.196 0.226562 324.166V323.965C0.226562 323.916 0.220703 323.878 0.220703 323.834V323.719C0.22175 323.668 0.219887 323.617 0.214844 323.565V323.292L1.91406 323.259C1.98606 327.219 2.09628 331.223 2.23828 335.173L0.529297 335.233C0.487964 333.937 0.448203 332.635 0.408203 331.33L0.410156 331.329ZM1362.7 289.875L1364.41 289.825C1364.52 293.703 1364.61 297.548 1364.65 301.443C1364.65 301.464 1364.65 301.484 1364.66 301.504V301.761L1362.96 301.783C1362.9 297.829 1362.82 293.825 1362.7 289.876L1362.7 289.875ZM0.21875 297.68C0.236083 296.88 0.252245 296.08 0.267578 295.28V295.231C0.267578 295.182 0.273438 295.138 0.273438 295.088C0.273438 295.017 0.273297 294.962 0.279297 294.897V294.858C0.279297 294.765 0.279156 294.71 0.285156 294.617V294.578C0.324156 292.842 0.368828 291.138 0.423828 289.402V289.363C0.429828 289.298 0.429688 289.226 0.429688 289.155C0.429688 289.138 0.435547 289.117 0.435547 289.095C0.435547 289.029 0.435547 288.952 0.435547 288.881C0.435547 288.843 0.441406 288.804 0.441406 288.766V288.667C0.474406 287.686 0.507016 286.71 0.541016 285.735L2.24023 285.795C2.10323 289.745 1.99583 293.754 1.92383 297.709L0.21875 297.68ZM1360.57 252.49L1362.27 252.342V252.354C1362.27 252.387 1362.27 252.424 1362.28 252.453C1362.29 252.502 1362.29 252.553 1362.29 252.595C1362.29 252.637 1362.29 252.656 1362.3 252.683C1362.31 252.776 1362.31 252.825 1362.32 252.918C1362.32 252.926 1362.32 252.934 1362.32 252.94C1362.33 253.027 1362.34 253.1 1362.34 253.188V253.198C1362.57 255.904 1362.78 258.598 1362.97 261.31V261.321C1362.98 261.414 1362.98 261.463 1362.99 261.556V261.6C1363 261.693 1363 261.748 1363.01 261.835C1363.01 261.861 1363.01 261.887 1363.02 261.912C1363.02 261.965 1363.02 262.018 1363.03 262.071C1363.03 262.104 1363.03 262.142 1363.03 262.171C1363.03 262.2 1363.04 262.264 1363.04 262.286C1363.04 262.363 1363.05 262.445 1363.06 262.522V262.587C1363.07 262.64 1363.07 262.693 1363.07 262.746C1363.07 262.768 1363.07 262.757 1363.08 262.779C1363.11 263.266 1363.14 263.759 1363.18 264.247L1361.48 264.362C1361.2 260.423 1360.9 256.429 1360.56 252.491L1360.57 252.49ZM1.93359 260.19C2.21859 256.213 2.54634 252.231 2.90234 248.276L4.60742 248.429C4.25042 252.367 3.92186 256.366 3.63086 260.31L1.93359 260.19ZM1356.39 215.279L1358.08 215.044C1358.63 218.983 1359.15 222.932 1359.64 226.892L1357.94 227.1C1357.46 223.175 1356.94 219.198 1356.39 215.281L1356.39 215.279ZM5.68555 222.833C5.70355 222.725 5.71847 222.609 5.73047 222.5C5.73246 222.474 5.73556 222.448 5.74023 222.422L5.75977 222.291C5.76977 222.226 5.77916 222.148 5.78516 222.077C5.78599 222.056 5.79107 222.036 5.79688 222.016C5.80288 221.951 5.81341 221.89 5.81641 221.825C5.82121 221.809 5.8231 221.793 5.82227 221.776C6.10727 219.576 6.4098 217.376 6.7168 215.176C6.7228 215.154 6.72252 215.132 6.72852 215.11C6.73452 215.067 6.74986 214.962 6.75586 214.91C6.75685 214.877 6.76059 214.843 6.76758 214.81C6.76758 214.766 6.78211 214.71 6.78711 214.662C6.79211 214.614 6.79869 214.574 6.80469 214.53C6.81069 214.509 6.81041 214.487 6.81641 214.465C6.98041 213.309 7.14707 212.155 7.31641 211.003L9.00391 211.25C8.43391 215.155 7.88681 219.126 7.38281 223.05L5.68555 222.833ZM1350.18 178.36L1351.85 178.031C1352.62 181.942 1353.35 185.832 1354.05 189.77L1352.38 190.069C1351.68 186.179 1350.94 182.24 1350.17 178.358L1350.18 178.36ZM11.4922 185.75C12.2149 181.828 12.973 177.918 13.7656 174.021L15.4355 174.361C14.6525 178.234 13.887 182.166 13.168 186.055L11.4922 185.75ZM1341.93 141.835L1343.59 141.414C1344.57 145.265 1345.52 149.132 1346.43 153.014L1344.77 153.409C1343.86 149.558 1342.9 145.667 1341.93 141.838L1341.93 141.835ZM19.3301 149.035C19.4451 148.564 19.5616 148.087 19.6836 147.611C19.6836 147.595 19.6934 147.573 19.6934 147.551C19.7054 147.507 19.7204 147.464 19.7324 147.414C19.74 147.368 19.7513 147.322 19.7656 147.277C19.7712 147.236 19.7806 147.196 19.793 147.156L19.8359 146.975C19.8419 146.959 19.8417 146.948 19.8477 146.931C20.6307 143.749 21.4241 140.621 22.2461 137.455L23.9004 137.882C22.9004 141.711 21.9183 145.594 20.9863 149.44L19.3301 149.035ZM1331.67 105.817L1333.31 105.308C1333.4 105.598 1333.48 105.861 1333.57 106.151C1333.57 106.157 1333.57 106.162 1333.57 106.168C1333.6 106.25 1333.62 106.311 1333.65 106.393C1333.65 106.417 1333.66 106.441 1333.67 106.464C1333.68 106.511 1333.69 106.556 1333.71 106.601C1333.72 106.64 1333.73 106.678 1333.74 106.716C1333.75 106.741 1333.76 106.764 1333.77 106.787C1334.52 109.202 1335.26 111.62 1335.99 114.039L1335.99 114.055C1336.04 114.208 1336.09 114.355 1336.13 114.504C1336.14 114.548 1336.16 114.604 1336.17 114.647C1336.18 114.67 1336.19 114.694 1336.19 114.718C1336.39 115.391 1336.59 116.06 1336.79 116.734L1335.15 117.216C1334.03 113.431 1332.86 109.596 1331.67 105.822L1331.67 105.817ZM29.1953 112.823C29.3043 112.445 29.4202 112.067 29.5352 111.689C29.5418 111.677 29.5476 111.664 29.5488 111.65C29.5698 111.585 29.5914 111.519 29.6094 111.45C29.6138 111.435 29.6187 111.421 29.625 111.406C29.646 111.324 29.6635 111.28 29.6855 111.198C29.6955 111.165 29.7068 111.132 29.7188 111.098C29.7307 111.064 29.74 111.027 29.75 110.983C29.76 110.939 29.7731 110.906 29.7891 110.862C29.7977 110.839 29.8053 110.816 29.8105 110.792C29.8375 110.705 29.8656 110.61 29.8926 110.523C29.8986 110.501 29.8983 110.506 29.9043 110.484C29.9203 110.435 29.9371 110.384 29.9531 110.325C29.9579 110.314 29.9616 110.304 29.9648 110.292C30.3962 108.874 30.8365 107.455 31.2852 106.036V106.031C31.3402 105.861 31.3942 105.686 31.4492 105.516C31.4505 105.509 31.4524 105.501 31.4551 105.494C31.4711 105.439 31.4879 105.385 31.5039 105.33C31.5075 105.318 31.5125 105.307 31.5195 105.297L31.6016 105.017C31.6109 104.998 31.6191 104.978 31.625 104.958C31.635 104.914 31.6521 104.87 31.6621 104.826C31.6745 104.8 31.6839 104.772 31.6895 104.744C31.7075 104.7 31.7165 104.656 31.7285 104.618C31.7495 104.552 31.7711 104.492 31.7891 104.431C31.7999 104.401 31.8093 104.37 31.8164 104.338C31.8334 104.296 31.8478 104.252 31.8594 104.208C31.8714 104.175 31.8806 104.142 31.8926 104.107C31.9046 104.072 31.9255 104.007 31.9355 103.965C31.9455 103.923 31.9587 103.894 31.9688 103.865C31.9788 103.836 32.0074 103.739 32.0234 103.696C32.0341 103.667 32.0434 103.638 32.0508 103.608C32.0628 103.564 32.0896 103.499 32.1016 103.455C32.105 103.432 32.1106 103.41 32.1211 103.389C32.1421 103.307 32.1645 103.258 32.1875 103.176C32.1911 103.161 32.1961 103.146 32.2031 103.132C32.2301 103.05 32.2376 103.017 32.2656 102.932C32.2716 102.921 32.2752 102.906 32.2812 102.895C32.3302 102.725 32.3757 102.594 32.4297 102.428C32.431 102.413 32.4348 102.399 32.4414 102.385C32.4684 102.302 32.4849 102.259 32.5059 102.177C32.5119 102.172 32.5116 102.161 32.5176 102.155C32.5386 102.073 32.5667 101.996 32.5938 101.914V101.903C32.6208 101.821 32.6351 101.772 32.6641 101.684C32.6685 101.671 32.6755 101.658 32.6816 101.646C32.7026 101.564 32.725 101.498 32.752 101.416L34.3789 101.937C33.1639 105.7 31.9771 109.528 30.8281 113.313L29.1953 112.823ZM1319.44 70.4375L1321.04 69.8374C1321.3 70.5374 1321.56 71.2293 1321.82 71.9243V71.9414C1321.88 72.0844 1321.93 72.2203 1321.98 72.3633C1322 72.4063 1322.02 72.4565 1322.03 72.5005C1322.04 72.5231 1322.05 72.5467 1322.06 72.5713C1322.09 72.6313 1322.11 72.7085 1322.13 72.7715C1322.13 72.7765 1322.14 72.7821 1322.14 72.7881C1322.17 72.8701 1322.2 72.9473 1322.23 73.0293C1323.22 75.7023 1324.2 78.3702 1325.15 81.0542L1323.54 81.6294C1322.22 77.9034 1320.83 74.1404 1319.44 70.4434L1319.44 70.4375ZM41.0488 77.2021C41.4488 76.1061 41.8506 75.0109 42.2539 73.9155C42.2719 73.8765 42.275 73.8604 42.293 73.8154C42.3022 73.7838 42.3134 73.7525 42.3262 73.7222C42.3472 73.6622 42.3813 73.5742 42.4023 73.5142C42.4023 73.5092 42.4082 73.5094 42.4082 73.5034C42.4352 73.4214 42.4632 73.3554 42.4902 73.2734C42.4926 73.2713 42.495 73.2686 42.4961 73.2656C42.4971 73.2627 42.4966 73.2595 42.4961 73.2563C43.3961 70.8354 44.3035 68.4251 45.2285 66.0151L46.8223 66.6294C45.4103 70.3154 44.0023 74.0731 42.6543 77.7871L41.0488 77.2021ZM1305.26 35.7803L1306.82 35.0903C1306.83 35.1128 1306.84 35.1345 1306.85 35.1553C1306.86 35.1823 1306.87 35.2104 1306.88 35.2324C1306.92 35.3144 1306.95 35.3633 1306.98 35.4463V35.4512C1307.02 35.5282 1307.04 35.5992 1307.08 35.6812C1307.08 35.6819 1307.08 35.6829 1307.08 35.6836C1307.08 35.6843 1307.08 35.6846 1307.08 35.6851C1307.08 35.6855 1307.08 35.6859 1307.08 35.686C1307.08 35.6862 1307.09 35.6867 1307.09 35.6865C1307.81 37.3465 1308.54 39.0096 1309.26 40.6763H1309.26C1309.33 40.8353 1309.38 40.9675 1309.45 41.1255C1309.46 41.1448 1309.47 41.1645 1309.47 41.1851C1309.49 41.2241 1309.53 41.3175 1309.55 41.3555C1309.55 41.3725 1309.56 41.3887 1309.57 41.4043C1309.6 41.4863 1309.62 41.5255 1309.66 41.6045C1309.67 41.6365 1309.68 41.6674 1309.7 41.6973C1309.71 41.7403 1309.72 41.7682 1309.74 41.8062C1309.76 41.8414 1309.77 41.8782 1309.79 41.9155C1309.8 41.9325 1309.82 41.9814 1309.83 42.0034C1309.86 42.0804 1309.89 42.1623 1309.93 42.2383C1309.94 42.2603 1309.94 42.2651 1309.95 42.2871C1309.97 42.3361 1309.99 42.3872 1310.01 42.4302C1310.01 42.4438 1310.02 42.4568 1310.03 42.4683C1310.54 43.6623 1311.05 44.8622 1311.55 46.0562L1309.98 46.7192C1308.44 43.0822 1306.85 39.4011 1305.26 35.7861L1305.26 35.7803ZM54.8574 42.2993C56.4261 38.64 58.0269 34.9937 59.6582 31.3604L61.2148 32.0601C59.5938 35.6691 57.9826 39.3405 56.4316 42.9775L54.8574 42.2993ZM1289.19 1.9624L1290.71 1.19043C1292.52 4.7351 1294.29 8.29744 1296.04 11.8774L1294.51 12.6274C1292.77 9.07744 1290.98 5.48929 1289.19 1.96729L1289.19 1.9624ZM70.5742 8.21729C70.6072 8.15728 70.637 8.09713 70.668 8.03613C70.68 8.01413 70.6892 7.98733 70.6992 7.96533C70.7172 7.92733 70.7545 7.86524 70.7715 7.82324L70.8027 7.75244C70.8747 7.61544 70.9457 7.47345 71.0117 7.33545C71.0172 7.32201 71.0248 7.30918 71.0332 7.29736C71.0722 7.22036 71.0938 7.16536 71.1328 7.08936C72.3161 4.71469 73.5102 2.35009 74.7148 -0.00390625H76.6328C75.1038 2.97309 73.5854 5.98512 72.1074 8.97412L70.5742 8.21729Z" fill="white"/>
</svg>
