<svg width="781" height="617" viewBox="0 0 781 617" fill="none" xmlns="http://www.w3.org/2000/svg">
<path opacity="0.3" d="M156.555 617L156.943 616.485C157.17 616.657 157.4 616.829 157.629 617H156.555ZM641.213 602.6C644.225 600.048 647.238 597.413 650.168 594.773L651.312 596.038C650.802 596.498 650.294 596.953 649.785 597.408L649.779 597.413C649.736 597.451 649.697 597.49 649.654 597.522L649.637 597.539C649.549 597.616 649.461 597.698 649.369 597.774C649.363 597.785 649.351 597.791 649.342 597.801C649.309 597.827 649.278 597.855 649.248 597.884C649.232 597.895 649.218 597.908 649.205 597.922C649.172 597.949 649.144 597.977 649.117 598.004C649.101 598.016 649.086 598.029 649.072 598.043C649.029 598.076 648.99 598.114 648.947 598.152L648.92 598.179C648.89 598.206 648.859 598.232 648.826 598.256L648.771 598.311C648.746 598.328 648.722 598.348 648.701 598.371C648.682 598.389 648.662 598.405 648.641 598.42C648.62 598.442 648.597 598.462 648.574 598.48C648.553 598.497 648.536 598.519 648.514 598.535C648.477 598.568 648.437 598.601 648.404 598.635C648.383 598.652 648.355 598.674 648.338 598.69C648.321 598.706 648.295 598.728 648.279 598.745C648.263 598.762 648.228 598.789 648.207 598.805C648.19 598.823 648.172 598.84 648.152 598.854C648.132 598.876 648.109 598.896 648.086 598.915C648.065 598.931 648.049 598.948 648.027 598.964C647.982 599.008 647.943 599.041 647.9 599.079C647.883 599.092 647.867 599.107 647.852 599.123L647.779 599.183C647.763 599.2 647.743 599.216 647.725 599.232C647.707 599.248 647.675 599.276 647.654 599.293C647.633 599.31 647.616 599.331 647.594 599.348C647.573 599.368 647.551 599.387 647.527 599.403C647.509 599.425 647.489 599.445 647.467 599.463C647.43 599.49 647.391 599.529 647.354 599.563C647.332 599.58 647.312 599.598 647.293 599.618C647.271 599.633 647.249 599.649 647.23 599.667C647.209 599.689 647.181 599.706 647.158 599.728C647.135 599.75 647.128 599.755 647.1 599.783C647.072 599.811 647.054 599.822 647.027 599.843C647 599.864 646.984 599.882 646.957 599.909L646.857 599.991C646.841 600.01 646.823 600.026 646.803 600.04C646.776 600.062 646.754 600.084 646.727 600.106C646.7 600.128 646.694 600.139 646.678 600.155C646.662 600.171 646.623 600.199 646.6 600.22C646.577 600.241 646.569 600.248 646.545 600.264C646.508 600.303 646.463 600.335 646.426 600.374C646.414 600.379 646.413 600.385 646.402 600.39C646.368 600.423 646.333 600.455 646.295 600.483L646.258 600.521C646.225 600.549 646.195 600.576 646.162 600.604C646.15 600.609 646.135 600.626 646.123 600.631C646.086 600.664 646.055 600.696 646.016 600.731C646.006 600.736 646.005 600.742 645.994 600.747L645.863 600.862L645.852 600.873C645.809 600.912 645.769 600.944 645.73 600.973C645.719 600.98 645.71 600.989 645.703 601L645.59 601.1C645.578 601.105 645.584 601.105 645.572 601.111C645.478 601.193 645.386 601.27 645.299 601.352L645.293 601.357C645.25 601.39 645.205 601.428 645.162 601.466L645.145 601.483C645.008 601.598 644.871 601.718 644.734 601.839H644.729V601.844C644.685 601.883 644.641 601.921 644.592 601.959V601.964C644.455 602.085 644.313 602.205 644.176 602.325L644.164 602.331C644.119 602.369 644.076 602.408 644.025 602.446C643.933 602.529 643.839 602.612 643.746 602.688V602.692L643.613 602.807C643.603 602.812 643.608 602.807 643.598 602.818C643.51 602.895 643.415 602.971 643.324 603.053L643.318 603.059C643.273 603.092 643.236 603.13 643.191 603.159C643.181 603.17 643.17 603.175 643.164 603.186C643.127 603.213 643.094 603.246 643.064 603.273C643.052 603.281 643.041 603.29 643.031 603.3C642.994 603.333 642.957 603.366 642.918 603.4C642.91 603.405 642.903 603.411 642.896 603.417C642.857 603.451 642.815 603.488 642.771 603.517C642.756 603.533 642.739 603.548 642.721 603.561C642.7 603.583 642.671 603.605 642.65 603.627C642.629 603.649 642.601 603.665 642.584 603.676C642.567 603.687 642.547 603.709 642.529 603.725C642.505 603.749 642.48 603.771 642.453 603.791L642.447 603.796L642.332 603.896L641.213 602.6ZM128.869 595.468V595.463C128.732 595.342 128.599 595.216 128.463 595.096C128.451 595.085 128.457 595.091 128.447 595.085C128.408 595.047 128.369 595.008 128.332 594.976C128.326 594.969 128.319 594.964 128.311 594.959C128.272 594.921 128.232 594.882 128.189 594.844L128.178 594.839C128.135 594.795 128.09 594.757 128.047 594.718C128.041 594.707 128.034 594.707 128.025 594.697C127.992 594.669 127.961 594.636 127.922 594.604L127.885 594.565C127.854 594.541 127.825 594.515 127.797 594.488C127.783 594.475 127.769 594.462 127.754 594.45C127.725 594.423 127.691 594.395 127.664 594.367C127.637 594.339 127.615 594.318 127.594 594.302C127.565 594.278 127.538 594.252 127.512 594.225C127.49 594.208 127.468 594.19 127.449 594.17C127.428 594.153 127.413 594.137 127.389 594.115C127.364 594.095 127.34 594.073 127.318 594.05C127.304 594.039 127.291 594.026 127.279 594.011C127.215 593.956 127.143 593.891 127.08 593.83L128.234 592.576C131.144 595.243 134.134 597.9 137.119 600.476L136.008 601.768C133.602 599.699 131.223 597.6 128.869 595.473V595.468ZM668.523 577.096C671.273 574.269 674.018 571.361 676.686 568.447L677.945 569.597C677.168 570.446 676.384 571.297 675.605 572.133C675.48 572.27 675.344 572.412 675.217 572.544C675.212 572.555 675.204 572.564 675.195 572.572C675.167 572.6 675.139 572.629 675.113 572.659L675.086 572.686C675.004 572.774 674.916 572.873 674.834 572.96L674.801 572.993C674.774 573.02 674.757 573.042 674.73 573.07C674.714 573.085 674.699 573.102 674.686 573.119L674.621 573.185C674.601 573.203 674.583 573.223 674.566 573.245L674.506 573.306C674.474 573.345 674.438 573.381 674.4 573.415C674.384 573.437 674.37 573.454 674.352 573.476C674.334 573.498 674.308 573.519 674.285 573.541C674.262 573.563 674.248 573.58 674.236 573.596C674.211 573.62 674.19 573.646 674.168 573.673C674.152 573.687 674.135 573.701 674.121 573.717C674.084 573.756 674.057 573.788 674.021 573.817C673.985 573.846 674 573.834 673.988 573.856C673.955 573.889 673.923 573.921 673.889 573.956C673.877 573.967 673.856 573.994 673.844 574.005C673.817 574.032 673.795 574.06 673.768 574.087C673.741 574.114 673.747 574.109 673.729 574.125C673.695 574.159 673.668 574.191 673.637 574.225L673.609 574.252C673.57 574.296 673.531 574.335 673.488 574.378L673.482 574.389C673.443 574.427 673.406 574.466 673.373 574.504C673.361 574.509 673.354 574.525 673.348 574.531C673.315 574.569 673.28 574.602 673.246 574.631C673.238 574.639 673.232 574.648 673.227 574.658C673.145 574.74 673.062 574.828 672.98 574.915L672.969 574.926C672.932 574.964 672.898 575.003 672.859 575.041L672.838 575.063C672.799 575.107 672.762 575.145 672.723 575.189H672.717C672.592 575.32 672.465 575.458 672.34 575.589C672.328 575.594 672.334 575.589 672.334 575.589C672.334 575.589 672.328 575.589 672.328 575.594C672.203 575.731 672.076 575.863 671.951 575.994L671.939 576.005C671.902 576.043 671.863 576.087 671.824 576.125L671.814 576.136C671.687 576.267 671.563 576.399 671.43 576.53V576.536C671.299 576.673 671.172 576.804 671.039 576.936V576.941L670.908 577.072C670.781 577.203 670.656 577.335 670.529 577.472L670.514 577.483C670.475 577.522 670.432 577.566 670.393 577.609C670.305 577.697 670.223 577.784 670.135 577.878L670.125 577.883C670.086 577.922 670.049 577.966 670.01 578.004C670.004 578.015 670.004 578.009 669.994 578.021C669.91 578.108 669.824 578.191 669.742 578.278L668.523 577.096ZM108.756 575.891L108.686 575.82C108.668 575.803 108.659 575.787 108.641 575.771C108.614 575.746 108.588 575.718 108.564 575.689C108.549 575.678 108.534 575.665 108.521 575.65C108.482 575.606 108.443 575.568 108.406 575.529C108.398 575.518 108.389 575.506 108.379 575.496L108.291 575.409C108.277 575.392 108.263 575.375 108.246 575.36L108.17 575.283C108.157 575.266 108.142 575.25 108.127 575.234L108.045 575.151C108.029 575.132 108.012 575.113 107.994 575.096C107.967 575.063 107.93 575.03 107.902 574.996C107.887 574.977 107.87 574.958 107.852 574.941L107.787 574.875C107.769 574.854 107.748 574.832 107.732 574.815C107.716 574.798 107.687 574.766 107.666 574.744C107.648 574.729 107.632 574.713 107.617 574.695C107.578 574.657 107.545 574.618 107.508 574.58C107.495 574.568 107.484 574.555 107.475 574.541L107.393 574.459C107.377 574.44 107.361 574.422 107.344 574.404C107.32 574.382 107.297 574.359 107.277 574.333L107.223 574.278C107.202 574.25 107.173 574.229 107.15 574.201C107.138 574.185 107.123 574.17 107.107 574.157C107.074 574.118 107.038 574.081 107.008 574.042C106.988 574.026 106.969 574.008 106.953 573.987C106.935 573.965 106.908 573.943 106.887 573.921C106.871 573.899 106.853 573.879 106.832 573.861C106.815 573.838 106.795 573.818 106.771 573.801C106.755 573.779 106.737 573.759 106.717 573.74C106.696 573.713 106.667 573.685 106.646 573.658L106.568 573.581C106.547 573.554 106.523 573.529 106.498 573.504C106.481 573.483 106.463 573.462 106.443 573.443L106.383 573.383C106.366 573.362 106.346 573.342 106.326 573.323C106.305 573.301 106.288 573.279 106.266 573.257C106.244 573.235 106.223 573.213 106.211 573.197L106.111 573.097C106.093 573.076 106.067 573.048 106.051 573.026L105.994 572.971C105.972 572.951 105.952 572.929 105.934 572.906C105.917 572.886 105.899 572.868 105.879 572.851C105.86 572.828 105.84 572.806 105.818 572.785C105.802 572.768 105.791 572.752 105.775 572.736C105.724 572.687 105.688 572.643 105.639 572.593C105.628 572.58 105.617 572.567 105.605 572.555C105.584 572.533 105.566 572.511 105.539 572.484C105.523 572.47 105.509 572.453 105.496 572.435L105.424 572.364C105.414 572.348 105.397 572.337 105.387 572.32C105.361 572.296 105.337 572.27 105.314 572.243L105.295 572.222C105.246 572.173 105.195 572.112 105.141 572.057C105.13 572.043 105.117 572.03 105.104 572.018C105.081 571.991 105.057 571.966 105.031 571.941C105.022 571.927 105.011 571.914 104.998 571.903C104.971 571.876 104.945 571.846 104.922 571.815C104.913 571.811 104.905 571.803 104.9 571.794C104.806 571.694 104.716 571.602 104.629 571.503L104.609 571.486C104.584 571.454 104.557 571.422 104.527 571.393C104.519 571.387 104.514 571.379 104.508 571.371L104.131 570.96C104.128 570.96 104.123 570.959 104.121 570.957C104.119 570.955 104.117 570.952 104.117 570.949C104.084 570.91 104.056 570.883 104.023 570.849L104.018 570.844C102.891 569.622 101.778 568.401 100.672 567.168L101.938 566.029C104.578 568.96 107.298 571.896 110.027 574.744L108.797 575.927C108.782 575.919 108.768 575.909 108.756 575.896V575.891ZM693.266 549.1C695.737 546.021 698.188 542.861 700.564 539.711L701.928 540.735C699.535 543.917 697.094 547.059 694.605 550.162L694.6 550.167L693.266 549.1ZM82.8027 545.851C82.7927 545.84 82.7862 545.83 82.7812 545.824C82.7483 545.786 82.7204 545.747 82.6934 545.709C82.6834 545.704 82.677 545.687 82.666 545.676C82.633 545.633 82.6024 545.589 82.5664 545.545H82.5605C82.5275 545.501 82.4949 545.458 82.4609 545.414C82.4511 545.395 82.4378 545.379 82.4219 545.365C82.4009 545.338 82.3814 545.305 82.3594 545.278C82.3374 545.251 82.3265 545.239 82.3105 545.223C82.2945 545.207 82.2719 545.174 82.2559 545.152C82.2399 545.13 82.223 545.103 82.207 545.086C82.1903 545.068 82.1753 545.048 82.1621 545.026C82.1251 544.977 82.0917 544.938 82.0527 544.889C82.0407 544.872 82.0257 544.856 82.0137 544.84C81.9927 544.807 81.9702 544.785 81.9492 544.758C81.9395 544.743 81.9302 544.728 81.918 544.714C81.897 544.687 81.8746 544.654 81.8516 544.621C81.8423 544.616 81.8344 544.609 81.8301 544.599C81.7481 544.499 81.666 544.386 81.584 544.276C81.578 544.276 81.5781 544.27 81.5781 544.265C81.5451 544.227 81.5232 544.2 81.4902 544.156L81.4844 544.151C79.945 542.151 78.4264 540.137 76.9277 538.109L78.2969 537.096C80.6429 540.267 83.0736 543.444 85.5176 546.545L84.1738 547.602C83.7138 547.024 83.2588 546.438 82.8008 545.857L82.8027 545.851ZM715.215 518.864C717.379 515.564 719.515 512.181 721.58 508.818L723.031 509.705C722.457 510.647 721.887 511.567 721.307 512.505C721.301 512.505 721.301 512.511 721.301 512.516C721.274 512.554 721.255 512.581 721.229 512.625C721.229 512.63 721.219 512.642 721.213 512.652C721.119 512.795 721.013 512.97 720.922 513.112C720.916 513.123 720.91 513.134 720.904 513.145C720.877 513.189 720.867 513.205 720.84 513.245L720.822 513.272C720.756 513.372 720.679 513.497 720.613 513.601C720.605 513.611 720.599 513.622 720.594 513.634C720.578 513.661 720.553 513.699 720.531 513.734C720.525 513.745 720.517 513.755 720.512 513.767C720.491 513.8 720.468 513.838 720.445 513.867C720.439 513.875 720.434 513.884 720.43 513.894C720.364 513.994 720.292 514.113 720.229 514.217C720.221 514.231 720.212 514.244 720.201 514.255C720.185 514.288 720.162 514.316 720.146 514.348C720.137 514.364 720.126 514.378 720.113 514.392C720.097 514.424 720.079 514.456 720.059 514.485C720.049 514.501 720.042 514.512 720.037 514.523C719.998 514.584 719.949 514.654 719.91 514.715C719.905 514.725 719.9 514.734 719.895 514.742C719.874 514.772 719.856 514.803 719.84 514.835C719.828 514.851 719.819 514.868 719.807 514.884C719.787 514.912 719.769 514.941 719.752 514.971C719.742 514.988 719.731 515.004 719.719 515.02C719.698 515.047 719.68 515.077 719.664 515.107C719.654 515.118 719.648 515.129 719.643 515.135C719.604 515.2 719.566 515.255 719.527 515.316C719.521 515.332 719.506 515.349 719.494 515.371C719.482 515.393 719.461 515.42 719.445 515.453C719.431 515.471 719.418 515.489 719.406 515.508C719.396 515.53 719.369 515.569 719.357 515.591C719.345 515.613 719.33 515.634 719.314 515.656C719.287 515.695 719.249 515.756 719.221 515.799C719.209 515.816 719.2 515.839 719.188 515.854C719.169 515.88 719.153 515.907 719.139 515.936C719.123 515.955 719.11 515.975 719.1 515.997C719.081 516.021 719.064 516.047 719.051 516.074C719.035 516.095 719.02 516.116 719.008 516.139C718.992 516.164 718.975 516.188 718.957 516.21C718.943 516.241 718.927 516.27 718.908 516.298C718.89 516.323 718.874 516.349 718.859 516.375C718.832 516.414 718.81 516.446 718.783 516.484C718.775 516.504 718.764 516.522 718.75 516.539C718.73 516.569 718.712 516.6 718.695 516.632C718.68 516.649 718.667 516.668 718.656 516.688L718.596 516.78C718.58 516.802 718.579 516.807 718.564 516.829C718.537 516.873 718.504 516.922 718.477 516.966C718.471 516.979 718.463 516.989 718.453 516.999C718.432 517.037 718.404 517.076 718.383 517.114C718.377 517.125 718.361 517.147 718.355 517.158C718.33 517.189 718.308 517.223 718.289 517.258C718.279 517.273 718.27 517.288 718.258 517.302C718.231 517.346 718.203 517.389 718.176 517.428C718.176 517.439 718.176 517.433 718.176 517.445C718.143 517.494 718.108 517.545 718.074 517.598C718.04 517.651 718.009 517.698 717.975 517.746L717.963 517.768C717.93 517.811 717.902 517.855 717.869 517.905V517.916C717.463 518.541 717.058 519.165 716.652 519.79L715.215 518.864ZM59.8848 513.113V513.107C59.8518 513.058 59.8239 513.014 59.7969 512.965C59.7869 512.96 59.7804 512.943 59.7754 512.932C59.7484 512.894 59.7262 512.855 59.6992 512.817C59.6945 512.806 59.6889 512.794 59.6816 512.784C59.6506 512.735 59.6228 512.691 59.5898 512.641L59.5781 512.624C59.5562 512.58 59.5306 512.538 59.502 512.498C59.481 512.465 59.4809 512.46 59.4629 512.433C59.4449 512.406 59.4301 512.384 59.4141 512.356C59.3991 512.33 59.3829 512.304 59.3652 512.279C59.3532 512.263 59.342 512.241 59.332 512.224L59.123 511.89V511.885C59.096 511.846 59.0739 511.808 59.0469 511.764L59.041 511.759C58.041 510.143 57.0535 508.524 56.0781 506.9L57.541 506.024C59.572 509.404 61.6824 512.805 63.8184 516.124L62.3828 517.044C61.5458 515.746 60.7128 514.432 59.8848 513.117V513.113ZM734.156 486.656C735.992 483.161 737.8 479.595 739.52 476.046L741.059 476.791C739.969 479.031 738.859 481.259 737.729 483.474L737.723 483.48C737.702 483.529 737.673 483.58 737.646 483.633L737.635 483.655C737.614 483.704 737.586 483.748 737.562 483.797L737.553 483.814C737.498 483.914 737.453 484.022 737.395 484.126C737.389 484.137 737.376 484.165 737.371 484.175C737.35 484.208 737.334 484.241 737.316 484.275C737.298 484.309 737.295 484.314 737.283 484.336C737.272 484.367 737.258 484.396 737.24 484.423C737.228 484.445 737.219 484.472 737.207 484.489C737.191 484.522 737.18 484.549 737.164 484.576L737.092 484.719C737.08 484.736 737.071 484.755 737.064 484.774C737.048 484.807 737.032 484.834 737.016 484.867C737.004 484.883 736.999 484.9 736.988 484.916C736.972 484.949 736.955 484.981 736.939 485.016L736.922 485.049C736.858 485.17 736.79 485.296 736.73 485.416C736.709 485.459 736.689 485.498 736.668 485.542C736.667 485.547 736.663 485.55 736.66 485.553C736.33 486.188 736.004 486.824 735.67 487.453L734.156 486.656ZM40.8613 479.056L40.8496 479.034L40.7852 478.903L40.7676 478.87C40.7466 478.821 40.7243 478.77 40.6973 478.722L40.6914 478.711C40.6704 478.662 40.6422 478.611 40.6152 478.557C40.6073 478.541 40.5998 478.525 40.5938 478.508C40.5757 478.475 40.561 478.443 40.543 478.408C40.525 478.373 40.5218 478.359 40.5098 478.337C40.4951 478.313 40.4826 478.287 40.4727 478.26C40.4547 478.227 40.4516 478.216 40.4336 478.183C40.4156 478.15 40.4124 478.139 40.4004 478.117C40.3514 478.017 40.2912 477.892 40.2422 477.794C40.2351 477.783 40.2301 477.77 40.2266 477.756C40.2036 477.712 40.1939 477.695 40.1719 477.656L40.1543 477.623C39.5473 476.374 38.9271 475.098 38.3301 473.844L39.875 473.11C41.568 476.671 43.3424 480.258 45.1504 483.77L43.6328 484.548C42.6921 482.728 41.768 480.897 40.8613 479.056ZM749.904 452.78C751.394 449.126 752.846 445.396 754.221 441.699L755.82 442.299C755.809 442.32 755.799 442.342 755.793 442.365C755.787 442.37 755.787 442.382 755.781 442.387C755.717 442.573 755.649 442.743 755.58 442.929V442.935C755.562 442.978 755.547 443.022 755.529 443.066C755.529 443.071 755.529 443.077 755.529 443.077C754.937 444.66 754.341 446.227 753.73 447.799H753.725C753.653 447.986 753.588 448.161 753.516 448.347C753.512 448.35 753.51 448.354 753.51 448.358C753.494 448.401 753.479 448.435 753.461 448.478C753.461 448.489 753.453 448.495 753.449 448.506C753.431 448.549 753.422 448.583 753.404 448.626C753.402 448.629 753.401 448.631 753.4 448.634C753.399 448.637 753.398 448.64 753.398 448.643C753.349 448.769 753.3 448.884 753.254 449.01L753.234 449.059C753.218 449.092 753.207 449.124 753.191 449.159C753.185 449.176 753.18 449.198 753.174 449.214C753.158 449.246 753.145 449.28 753.137 449.314C753.125 449.335 753.118 449.352 753.109 449.374C753.091 449.418 753.082 449.44 753.064 449.489C753.046 449.538 753.037 449.566 753.021 449.604C753.008 449.629 752.997 449.654 752.988 449.681C752.976 449.708 752.967 449.736 752.955 449.763C752.944 449.788 752.937 449.814 752.93 449.84C752.92 449.867 752.909 449.895 752.896 449.922C752.886 449.945 752.876 449.969 752.869 449.993C752.853 450.031 752.838 450.07 752.826 450.102C752.82 450.113 752.808 450.141 752.805 450.151C752.787 450.2 752.766 450.251 752.744 450.304C752.735 450.32 752.728 450.336 752.723 450.353C752.71 450.392 752.695 450.431 752.678 450.468C752.672 450.484 752.667 450.5 752.662 450.517C752.644 450.555 752.629 450.594 752.613 450.632C752.607 450.643 752.602 450.665 752.596 450.676C752.553 450.785 752.508 450.895 752.465 451.005L752.457 451.016C752.436 451.071 752.418 451.116 752.396 451.175L752.391 451.191C752.091 451.936 751.79 452.681 751.482 453.426L749.904 452.78ZM23.8652 439.212L25.4648 438.631C26.8068 442.345 28.2266 446.086 29.6836 449.751L28.0996 450.381C26.6329 446.69 25.2219 442.968 23.8652 439.214V439.212ZM762.301 417.537C763.424 413.752 764.508 409.901 765.516 406.089L767.164 406.527C767.109 406.727 767.055 406.938 767 407.146C766.998 407.156 766.997 407.164 766.994 407.173C766.978 407.222 766.973 407.25 766.961 407.299C766.958 407.311 766.955 407.321 766.951 407.332C766.943 407.373 766.932 407.414 766.918 407.453C766.902 407.524 766.879 407.612 766.857 407.683C766.851 407.705 766.841 407.732 766.836 407.76C766.831 407.788 766.823 407.815 766.814 407.842C766.809 407.871 766.803 407.898 766.793 407.925C766.789 407.951 766.782 407.977 766.775 408.002C766.763 408.04 766.754 408.073 766.742 408.102C766.739 408.122 766.734 408.143 766.727 408.162C766.715 408.217 766.7 408.272 766.688 408.327C766.682 408.338 766.682 408.332 766.682 408.343C766.666 408.392 766.655 408.443 766.639 408.496C766.637 408.51 766.634 408.523 766.627 408.535C766.617 408.58 766.605 408.623 766.59 408.666C766.59 408.683 766.584 408.693 766.584 408.705C766.566 408.754 766.557 408.805 766.539 408.858V408.875C766.506 408.99 766.478 409.11 766.445 409.225L766.439 409.242C766.423 409.291 766.412 409.342 766.396 409.395L766.391 409.428C766.379 409.477 766.364 409.528 766.346 409.581V409.597C766.319 409.712 766.285 409.827 766.252 409.948L766.244 409.959C766.233 410.013 766.218 410.066 766.201 410.118L766.195 410.145C766.183 410.194 766.168 410.245 766.152 410.298L766.146 410.315C766.113 410.43 766.086 410.55 766.053 410.666L766.047 410.683C766.031 410.732 766.02 410.783 766.004 410.836C766.004 410.847 765.998 410.857 765.998 410.869C765.982 410.918 765.971 410.962 765.955 411.012C765.95 411.022 765.948 411.034 765.949 411.045C765.916 411.154 765.884 411.27 765.85 411.384C765.851 411.394 765.849 411.404 765.844 411.412C765.834 411.461 765.817 411.505 765.807 411.549C765.801 411.565 765.797 411.581 765.795 411.598C765.779 411.642 765.768 411.68 765.758 411.719C765.758 411.735 765.744 411.757 765.744 411.768C765.732 411.811 765.717 411.861 765.705 411.905C765.703 411.917 765.7 411.928 765.695 411.938C765.677 411.993 765.668 412.048 765.65 412.103C765.643 412.119 765.638 412.135 765.635 412.152C765.623 412.188 765.614 412.224 765.607 412.261C765.596 412.286 765.591 412.312 765.588 412.338C765.577 412.367 765.568 412.396 765.561 412.426C765.556 412.453 765.547 412.479 765.537 412.503C765.537 412.53 765.521 412.563 765.516 412.59C765.511 412.617 765.499 412.639 765.494 412.667C765.478 412.716 765.467 412.767 765.451 412.815L765.43 412.903C765.421 412.926 765.413 412.95 765.408 412.974C765.401 413.006 765.391 413.037 765.381 413.067C765.375 413.089 765.369 413.111 765.365 413.133C765.353 413.166 765.343 413.199 765.338 413.233C765.332 413.25 765.326 413.271 765.32 413.293C765.283 413.425 765.244 413.545 765.205 413.682C765.195 413.727 765.183 413.771 765.168 413.813C765.165 413.822 765.164 413.831 765.162 413.84C765.152 413.883 765.139 413.925 765.123 413.966V413.977C764.734 415.335 764.346 416.666 763.939 418.019L762.301 417.537ZM15.8184 414.415V414.398C15.8004 414.349 15.7913 414.311 15.7793 414.267C15.7793 414.262 15.7734 414.256 15.7734 414.251C14.7384 410.63 13.7524 407.015 12.8164 403.351L14.4707 402.93C15.4507 406.753 16.5018 410.615 17.5918 414.406L15.9551 414.877C15.9101 414.723 15.8674 414.569 15.8184 414.415ZM771.219 381.253C771.975 377.38 772.68 373.442 773.311 369.547L774.998 369.826C774.975 369.947 774.959 370.067 774.938 370.188V370.199C774.925 370.254 774.919 370.309 774.91 370.364C774.904 370.38 774.904 370.375 774.904 370.386C774.898 370.441 774.89 370.495 774.879 370.555V370.566C774.858 370.681 774.838 370.801 774.816 370.917C774.816 370.933 774.811 370.95 774.811 370.961C774.801 371.004 774.794 371.043 774.789 371.087C774.783 371.114 774.783 371.12 774.777 371.147C774.771 371.174 774.768 371.218 774.762 371.256C774.755 371.276 774.752 371.297 774.75 371.317C774.74 371.361 774.734 371.404 774.729 371.448C774.726 371.463 774.723 371.478 774.719 371.492C774.713 371.541 774.7 371.592 774.695 371.651C774.691 371.675 774.687 371.699 774.68 371.722C774.679 371.756 774.675 371.789 774.668 371.822C774.668 371.844 774.658 371.877 774.652 371.899C774.645 371.93 774.642 371.961 774.641 371.992C774.633 372.019 774.626 372.046 774.623 372.074C774.617 372.101 774.611 372.129 774.607 372.156C774.601 372.183 774.597 372.211 774.596 372.238C774.59 372.271 774.584 372.299 774.58 372.326C774.568 372.375 774.562 372.435 774.551 372.485C774.546 372.511 774.542 372.537 774.541 372.562C774.535 372.602 774.529 372.617 774.523 372.655C774.523 372.677 774.514 372.699 774.508 372.726C774.504 372.757 774.497 372.789 774.49 372.819C774.489 372.845 774.485 372.871 774.479 372.896C774.473 372.929 774.473 372.951 774.463 372.989C774.457 373.011 774.457 373.038 774.451 373.066C774.439 373.117 774.43 373.168 774.424 373.219C774.417 373.248 774.413 373.277 774.412 373.307C774.404 373.336 774.399 373.365 774.396 373.394C774.391 373.422 774.385 373.443 774.381 373.471C774.377 373.499 774.367 373.537 774.361 373.564C774.355 373.591 774.356 373.613 774.352 373.641C774.348 373.669 774.34 373.702 774.334 373.729C774.328 373.757 774.324 373.784 774.318 373.811C774.311 373.84 774.308 373.87 774.307 373.899C774.294 373.95 774.285 374.001 774.279 374.052C774.272 374.078 774.267 374.103 774.264 374.129C774.258 374.156 774.25 374.189 774.244 374.216C774.238 374.243 774.234 374.277 774.234 374.298C774.234 374.319 774.223 374.359 774.217 374.391C774.211 374.423 774.207 374.44 774.201 374.468C774.195 374.496 774.19 374.529 774.184 374.561C774.183 374.587 774.18 374.613 774.174 374.638C774.168 374.682 774.155 374.725 774.152 374.769C774.146 374.791 774.141 374.813 774.135 374.84C774.13 374.883 774.123 374.925 774.113 374.966C774.112 374.989 774.108 375.011 774.102 375.032C774.102 375.065 774.092 375.097 774.086 375.132C774.08 375.154 774.078 375.176 774.072 375.197C774.063 375.234 774.058 375.27 774.053 375.307C774.052 375.328 774.046 375.348 774.039 375.367C774.039 375.416 774.025 375.46 774.02 375.504C774.014 375.514 774.012 375.526 774.014 375.537C774.004 375.592 773.992 375.646 773.982 375.707C773.977 375.721 773.975 375.736 773.977 375.75C773.965 375.789 773.958 375.833 773.949 375.876C773.949 375.887 773.943 375.92 773.943 375.931C773.937 375.969 773.927 376.008 773.922 376.051C773.915 376.067 773.911 376.083 773.91 376.1C773.904 376.149 773.894 376.193 773.889 376.237L773.883 376.27C773.862 376.391 773.839 376.506 773.816 376.621C773.814 376.632 773.814 376.643 773.816 376.654C773.804 376.698 773.798 376.747 773.789 376.797C773.783 376.824 773.789 376.814 773.783 376.836C773.771 376.885 773.767 376.936 773.758 376.978C773.758 376.989 773.756 377.001 773.752 377.011C773.731 377.126 773.709 377.246 773.686 377.367C773.676 377.427 773.664 377.482 773.658 377.537C773.656 377.547 773.653 377.556 773.648 377.564C773.642 377.619 773.63 377.664 773.621 377.723C773.621 377.734 773.621 377.728 773.615 377.74C773.588 377.921 773.555 378.101 773.521 378.277C773.516 378.288 773.516 378.282 773.516 378.294C773.506 378.349 773.494 378.403 773.484 378.453L773.479 378.48C773.473 378.529 773.46 378.58 773.451 378.639L773.445 378.656C773.424 378.777 773.406 378.897 773.379 379.017V379.023C773.369 379.078 773.358 379.133 773.346 379.188C773.348 379.198 773.348 379.209 773.346 379.22C773.34 379.263 773.327 379.313 773.318 379.362C773.32 379.374 773.318 379.385 773.312 379.395C773.3 379.45 773.291 379.504 773.279 379.559V379.57C773.267 379.631 773.258 379.691 773.246 379.751C773.234 379.811 773.227 379.86 773.215 379.92C773.215 379.931 773.215 379.948 773.215 379.959C773.203 380.003 773.196 380.046 773.188 380.09C773.182 380.112 773.182 380.112 773.176 380.139C773.17 380.183 773.159 380.227 773.154 380.27C773.148 380.281 773.149 380.298 773.143 380.309C773.137 380.364 773.121 380.424 773.115 380.479H773.109C773.099 380.539 773.088 380.594 773.082 380.648C773.075 380.668 773.07 380.689 773.066 380.709C773.06 380.742 773.055 380.774 773.049 380.809C773.049 380.831 773.037 380.858 773.031 380.886C773.025 380.914 773.02 380.946 773.016 380.974C773.012 381.002 773.004 381.023 772.998 381.056C772.992 381.089 772.988 381.105 772.982 381.127C772.961 381.253 772.937 381.373 772.916 381.494C772.912 381.505 772.909 381.516 772.906 381.527C772.906 381.543 772.9 381.56 772.9 381.576L771.219 381.253ZM6.52734 374.045C6.09534 371.569 5.68378 369.077 5.30078 366.585L6.98242 366.322C7.58942 370.227 8.25742 374.171 8.98242 378.05L7.30469 378.362C7.03469 376.928 6.77601 375.488 6.52734 374.045ZM776.592 344.28C776.969 340.353 777.292 336.37 777.551 332.426L779.252 332.541C779.119 334.529 778.972 336.516 778.812 338.5V338.505C778.797 338.686 778.786 338.867 778.77 339.047C778.77 339.062 778.768 339.077 778.764 339.09C778.764 339.134 778.758 339.173 778.758 339.216C778.758 339.238 778.756 339.255 778.746 339.282C778.736 339.309 778.74 339.348 778.74 339.382C778.735 339.409 778.733 339.437 778.734 339.464C778.729 339.492 778.728 339.52 778.729 339.547C778.719 339.662 778.707 339.804 778.697 339.919C778.693 339.928 778.691 339.938 778.691 339.947C778.685 340.002 778.686 340.029 778.68 340.078V340.111C778.674 340.16 778.674 340.193 778.664 340.242V340.264C778.543 341.664 778.422 343.047 778.285 344.444L776.592 344.28ZM1.95898 338.025C1.72432 335.117 1.52471 332.197 1.35938 329.266L3.05859 329.166C3.28359 333.11 3.57497 337.103 3.91797 341.031L2.21875 341.179C2.12975 340.129 2.04098 339.082 1.95898 338.025ZM778.398 306.956V306.561C778.398 302.743 778.343 298.871 778.234 295.061L779.934 295.012C779.946 295.373 779.957 295.729 779.967 296.091V296.291C779.972 296.336 779.974 296.382 779.973 296.428V296.472C779.973 296.516 779.979 296.554 779.979 296.593V296.757C779.984 296.878 779.988 296.993 779.988 297.113V297.141C779.993 297.187 779.995 297.233 779.994 297.278V297.3C779.993 297.348 779.997 297.396 780.002 297.443V297.612C780.045 299.546 780.078 301.463 780.09 303.412V303.571C780.092 303.581 780.094 303.59 780.096 303.599V304.486C780.096 304.508 780.096 304.524 780.096 304.546V305.477C780.096 305.504 780.102 305.521 780.102 305.548V306.967L778.398 306.956ZM0.716797 303.669C0.720797 302.669 0.729427 301.672 0.746094 300.678V300.672C0.746094 300.617 0.747906 300.557 0.753906 300.497V300.486C0.753906 300.3 0.759766 300.119 0.759766 299.933V299.906C0.75882 299.859 0.760683 299.811 0.765625 299.763V299.528C0.76456 299.492 0.766427 299.456 0.771484 299.419V299.172C0.771484 299.117 0.771484 299.062 0.771484 299.013C0.770792 298.98 0.772658 298.946 0.777344 298.913V298.683C0.777344 298.656 0.783203 298.596 0.783203 298.568V298.368C0.789203 298.177 0.794828 297.968 0.798828 297.768V297.762C0.79782 297.711 0.799683 297.66 0.804688 297.609V297.604C0.843688 295.671 0.904609 293.759 0.974609 291.831V291.804C0.973714 291.78 0.975588 291.757 0.980469 291.733L2.68164 291.799C2.53364 295.737 2.44611 299.736 2.41211 303.691L0.716797 303.669ZM775.363 257.805L777.055 257.592C777.237 259.044 777.41 260.492 777.58 261.941V261.98C777.586 262.018 777.592 262.062 777.598 262.1C777.597 262.117 777.599 262.134 777.604 262.149C777.604 262.186 777.607 262.223 777.613 262.259C777.613 262.281 777.619 262.297 777.619 262.319C777.625 262.358 777.627 262.385 777.633 262.419C777.635 262.438 777.638 262.456 777.643 262.474C777.649 262.535 777.654 262.6 777.66 262.666C777.665 262.691 777.669 262.717 777.67 262.743C777.676 262.782 777.676 262.792 777.682 262.831C777.688 262.87 777.688 262.891 777.688 262.918C777.692 262.944 777.696 262.969 777.697 262.995C777.703 263.028 777.705 263.061 777.711 263.095C777.711 263.112 777.717 263.155 777.717 263.166C777.723 263.21 777.726 263.248 777.732 263.287C777.732 263.303 777.738 263.325 777.738 263.336C777.744 263.396 777.75 263.451 777.754 263.505C777.758 263.52 777.76 263.534 777.76 263.549L777.777 263.68C777.777 263.697 777.777 263.719 777.777 263.729C777.784 263.773 777.788 263.817 777.789 263.861C777.794 263.877 777.798 263.894 777.797 263.91C777.803 263.953 777.807 263.997 777.812 264.047C777.812 264.058 777.818 264.069 777.818 264.08C777.83 264.201 777.845 264.321 777.857 264.436V264.453C777.857 264.508 777.867 264.563 777.873 264.618C777.878 264.626 777.88 264.636 777.879 264.645C777.885 264.694 777.889 264.745 777.895 264.798V264.825L777.912 264.99V265.001C777.924 265.127 777.935 265.248 777.951 265.368V265.373C777.957 265.433 777.965 265.488 777.971 265.548V265.57C777.977 265.619 777.982 265.671 777.988 265.729V265.751C778.009 265.932 778.025 266.112 778.043 266.293L778.049 266.31C778.049 266.365 778.058 266.419 778.064 266.475V266.502C778.07 266.551 778.076 266.611 778.08 266.661L778.088 266.678C778.1 266.799 778.107 266.925 778.119 267.045V267.051C778.125 267.106 778.132 267.16 778.141 267.215V267.259L778.158 267.39V267.439C778.158 267.483 778.17 267.527 778.176 267.57C778.176 267.581 778.182 267.603 778.182 267.614C778.188 267.669 778.193 267.714 778.197 267.773V267.79C778.203 267.85 778.209 267.905 778.215 267.96C778.215 267.987 778.221 268.004 778.221 268.031C778.221 268.058 778.22 268.096 778.23 268.131C778.24 268.166 778.236 268.186 778.236 268.213C778.236 268.24 778.242 268.268 778.248 268.295C778.254 268.322 778.25 268.361 778.26 268.388C778.259 268.412 778.261 268.436 778.266 268.459C778.267 268.493 778.27 268.526 778.277 268.559V268.586C778.293 268.728 778.304 268.871 778.32 269.013V269.029C778.326 269.078 778.326 269.122 778.332 269.172V269.183C778.342 269.283 778.353 269.364 778.359 269.468L776.658 269.627C776.294 265.699 775.857 261.722 775.365 257.806L775.363 257.805ZM2.76367 266.205C2.85167 265.361 2.9392 264.529 3.0332 263.685V263.642C3.04027 263.609 3.04719 263.576 3.05078 263.542C3.05078 263.52 3.05664 263.493 3.05664 263.471C3.05664 263.449 3.06236 263.405 3.06836 263.383C3.07436 263.361 3.06813 263.318 3.07812 263.29C3.08812 263.262 3.08398 263.241 3.08398 263.213C3.09998 263.098 3.11095 262.983 3.12695 262.868V262.846C3.13295 262.791 3.13853 262.737 3.14453 262.688V262.666C3.15453 262.605 3.16102 262.551 3.16602 262.491C3.47268 259.769 3.80602 257.053 4.16602 254.345L5.85938 254.57C5.33838 258.481 4.86698 262.458 4.45898 266.385L2.76367 266.205ZM768.928 221.005L770.594 220.632C770.725 221.207 770.855 221.793 770.982 222.374C770.984 222.383 770.986 222.393 770.988 222.401C770.998 222.44 771.005 222.478 771.01 222.516C771.017 222.534 771.022 222.552 771.025 222.571C771.031 222.598 771.044 222.642 771.047 222.671C771.05 222.7 771.058 222.726 771.064 222.748C771.07 222.77 771.074 222.808 771.08 222.836C771.092 222.885 771.107 222.936 771.119 222.989C771.118 223.002 771.122 223.015 771.127 223.027C771.138 223.073 771.146 223.118 771.152 223.164C771.157 223.178 771.161 223.192 771.162 223.207C771.174 223.251 771.185 223.295 771.195 223.344C771.195 223.355 771.201 223.366 771.201 223.377C771.213 223.426 771.222 223.477 771.234 223.525L771.24 223.547C771.277 223.728 771.317 223.908 771.354 224.089C771.945 226.823 772.506 229.567 773.035 232.322L771.359 232.645C770.62 228.769 769.8 224.853 768.934 221.002L768.928 221.005ZM8.40039 229.105C8.39897 229.094 8.40093 229.082 8.40625 229.072V229.05C8.42725 228.963 8.44689 228.875 8.46289 228.787C8.46289 228.781 8.46875 228.776 8.46875 228.77C8.47475 228.731 8.48328 228.688 8.48828 228.655C8.49428 228.639 8.49595 228.622 8.50195 228.606C8.50195 228.568 8.51648 228.529 8.52148 228.491C8.52632 228.477 8.52944 228.462 8.53125 228.447C8.53725 228.409 8.54969 228.365 8.55469 228.332C8.55469 228.321 8.55469 228.31 8.55469 228.299C8.58169 228.178 8.61567 228.025 8.63867 227.899C8.64053 227.891 8.64053 227.881 8.63867 227.872C8.65067 227.823 8.65702 227.795 8.66602 227.746C8.66602 227.735 8.67188 227.724 8.67188 227.713C8.68388 227.664 8.69022 227.636 8.69922 227.587C8.69882 227.584 8.69818 227.581 8.69922 227.578C8.70026 227.575 8.70282 227.572 8.70508 227.57C8.74408 227.37 8.78131 227.192 8.82031 226.989C8.8203 226.989 8.82 226.988 8.82031 226.987C8.82062 226.987 8.82169 226.986 8.82227 226.985C8.82284 226.985 8.82349 226.985 8.82422 226.984C8.82495 226.984 8.82544 226.984 8.82617 226.984C8.83617 226.935 8.84252 226.891 8.85352 226.841V226.836C9.50952 223.681 10.2017 220.553 10.9297 217.431L12.5938 217.82C11.6938 221.66 10.8415 225.571 10.0645 229.438L8.40039 229.105ZM758.969 184.994L760.586 184.462C760.744 184.934 760.899 185.405 761.051 185.876L761.057 185.887C761.073 185.942 761.089 185.987 761.105 186.046L761.111 186.062C761.127 186.117 761.146 186.172 761.168 186.227V186.238C761.207 186.348 761.242 186.457 761.275 186.572C761.281 186.583 761.289 186.611 761.295 186.621C761.305 186.66 761.315 186.699 761.33 186.736C761.336 186.758 761.344 186.769 761.35 186.791C761.359 186.829 761.372 186.866 761.387 186.901C761.389 186.921 761.395 186.939 761.404 186.956C761.42 187.011 761.435 187.065 761.453 187.115C761.459 187.126 761.463 187.148 761.469 187.159C761.481 187.197 761.49 187.236 761.502 187.274C761.514 187.299 761.523 187.325 761.529 187.351C761.536 187.379 761.546 187.407 761.557 187.434C761.563 187.461 761.573 187.489 761.576 187.516C761.579 187.543 761.595 187.571 761.604 187.598C761.614 187.625 761.624 187.653 761.631 187.681C761.641 187.71 761.651 187.739 761.658 187.768C761.676 187.813 761.691 187.859 761.703 187.905C761.713 187.933 761.719 187.954 761.73 187.982C761.741 188.01 761.747 188.037 761.758 188.069C761.769 188.101 761.772 188.118 761.777 188.14C761.782 188.162 761.799 188.205 761.805 188.233C761.815 188.254 761.823 188.276 761.826 188.298C761.835 188.33 761.847 188.361 761.859 188.391C761.865 188.413 761.871 188.429 761.877 188.451C761.898 188.512 761.92 188.583 761.936 188.643C761.942 188.66 761.947 188.671 761.953 188.688C761.963 188.725 761.974 188.752 761.986 188.787C761.986 188.803 761.998 188.825 762.004 188.842C762.011 188.877 762.021 188.91 762.035 188.942C762.041 188.964 762.049 188.98 762.053 189.002C762.065 189.041 762.076 189.068 762.086 189.102C762.093 189.118 762.096 189.134 762.098 189.151C762.125 189.222 762.139 189.282 762.16 189.351C762.165 189.366 762.173 189.381 762.18 189.395C762.19 189.434 762.201 189.461 762.213 189.495C762.213 189.512 762.223 189.534 762.229 189.556C762.238 189.59 762.249 189.624 762.262 189.656C762.269 189.674 762.274 189.693 762.277 189.711C762.29 189.744 762.301 189.777 762.311 189.811C762.318 189.825 762.322 189.84 762.322 189.855C762.343 189.926 762.366 189.992 762.393 190.063C762.394 190.079 762.398 190.094 762.404 190.107C762.415 190.14 762.425 190.173 762.432 190.207C762.44 190.226 762.446 190.247 762.451 190.267C762.457 190.289 762.473 190.338 762.479 190.36C762.49 190.383 762.497 190.406 762.5 190.431C762.509 190.461 762.52 190.49 762.533 190.519C762.538 190.545 762.546 190.571 762.555 190.596C762.567 190.64 762.588 190.705 762.6 190.755C762.608 190.777 762.614 190.799 762.619 190.821C762.631 190.859 762.64 190.881 762.652 190.921C762.658 190.943 762.669 190.965 762.674 190.987C762.679 191.009 762.695 191.052 762.701 191.08C762.706 191.103 762.714 191.125 762.723 191.146C762.733 191.177 762.741 191.208 762.748 191.239C762.753 191.262 762.761 191.283 762.771 191.304C762.787 191.365 762.808 191.435 762.83 191.496C762.831 191.51 762.836 191.523 762.844 191.534C762.855 191.567 762.863 191.6 762.869 191.634C762.88 191.653 762.887 191.674 762.891 191.695C762.897 191.717 762.912 191.76 762.918 191.788C762.924 191.816 762.936 191.831 762.939 191.853C762.951 191.892 762.958 191.914 762.969 191.946C762.971 191.968 762.977 191.988 762.988 192.006C763.009 192.077 763.032 192.154 763.053 192.225C763.053 192.23 763.059 192.236 763.059 192.247C763.068 192.281 763.079 192.314 763.092 192.347C763.098 192.369 763.103 192.391 763.107 192.407C763.111 192.423 763.131 192.484 763.135 192.507C763.145 192.527 763.153 192.547 763.158 192.568C763.168 192.601 763.175 192.633 763.186 192.668C763.19 192.685 763.195 192.701 763.201 192.717C763.228 192.805 763.25 192.876 763.277 192.958V192.969C763.289 193.002 763.301 193.04 763.311 193.069C763.317 193.085 763.321 193.101 763.322 193.118C763.335 193.154 763.346 193.19 763.355 193.227C763.36 193.244 763.365 193.26 763.371 193.276C763.383 193.309 763.392 193.347 763.404 193.385C763.41 193.396 763.414 193.412 763.42 193.424C763.453 193.545 763.492 193.676 763.529 193.797C763.535 193.808 763.535 193.819 763.541 193.83C763.553 193.868 763.562 193.912 763.574 193.945L763.59 193.988C763.599 194.027 763.61 194.065 763.623 194.103C763.623 194.108 763.629 194.12 763.629 194.125C763.672 194.256 763.711 194.41 763.754 194.541C763.766 194.585 763.781 194.629 763.793 194.673C763.793 194.678 763.799 194.684 763.799 194.689C763.914 195.072 764.029 195.467 764.143 195.85L762.506 196.332C761.4 192.557 760.207 188.739 758.975 184.992L758.969 184.994ZM17.5918 192.723C17.8651 191.825 18.1413 190.93 18.4199 190.039C18.4359 189.984 18.4566 189.924 18.4746 189.864L18.6387 189.338L18.6445 189.321C18.6605 189.266 18.6814 189.212 18.6934 189.162L18.6992 189.145C18.7362 189.03 18.7756 188.915 18.8086 188.794L18.8145 188.783C18.8305 188.728 18.8453 188.683 18.8633 188.629C18.8683 188.619 18.8715 188.608 18.873 188.596C18.8914 188.55 18.9083 188.502 18.9199 188.454C18.9241 188.445 18.9272 188.436 18.9297 188.426C18.9627 188.311 19.0002 188.201 19.0332 188.087L19.0449 188.065C19.0626 188.017 19.0775 187.968 19.0898 187.917C19.0959 187.907 19.0991 187.896 19.0996 187.884C19.1172 187.84 19.1322 187.794 19.1445 187.747C19.1505 187.731 19.1503 187.726 19.1543 187.714C19.1933 187.599 19.2266 187.484 19.2656 187.375V187.353C19.2836 187.304 19.2984 187.253 19.3164 187.205C19.3164 187.194 19.3162 187.188 19.3262 187.172C19.3442 187.129 19.3531 187.079 19.3711 187.035C19.3727 187.024 19.3758 187.013 19.3809 187.002C19.4199 186.887 19.4532 186.772 19.4902 186.657C19.5082 186.602 19.5289 186.548 19.5449 186.492C19.5509 186.476 19.5508 186.481 19.5508 186.471C19.5718 186.416 19.5895 186.372 19.6055 186.312C19.6055 186.301 19.6053 186.312 19.6113 186.296C19.6663 186.121 19.7202 185.951 19.7812 185.775V185.764C20.2639 184.291 20.7553 182.819 21.252 181.349L22.8652 181.896C21.5992 185.632 20.3737 189.439 19.2227 193.213L17.5918 192.723ZM745.561 150.123L747.121 149.433C747.297 149.827 747.474 150.227 747.646 150.627C747.698 150.736 747.746 150.846 747.789 150.956L747.812 151C747.829 151.036 747.844 151.072 747.855 151.109C747.867 151.129 747.876 151.149 747.883 151.17C747.895 151.197 747.91 151.23 747.922 151.257L747.953 151.328C747.966 151.351 747.977 151.375 747.986 151.399C748.009 151.454 748.032 151.508 748.059 151.563C748.065 151.58 748.073 151.602 748.078 151.618C748.094 151.651 748.105 151.683 748.121 151.718C748.127 151.735 748.135 151.746 748.141 151.762C748.157 151.795 748.173 151.839 748.189 151.877C748.195 151.882 748.195 151.882 748.195 151.888C748.748 153.159 749.285 154.419 749.822 155.695V155.7C749.843 155.744 749.855 155.788 749.877 155.831C749.877 155.837 749.883 155.837 749.883 155.842C749.938 155.979 749.983 156.094 750.047 156.231C750.046 156.235 750.048 156.237 750.049 156.24C750.05 156.243 750.05 156.246 750.053 156.248C750.069 156.281 750.084 156.325 750.096 156.357C750.102 156.373 750.109 156.387 750.117 156.401C750.129 156.434 750.144 156.467 750.156 156.501C750.168 156.522 750.177 156.544 750.184 156.567C750.2 156.6 750.205 156.622 750.223 156.654C750.24 156.703 750.259 156.751 750.281 156.797C750.293 156.819 750.294 156.824 750.305 156.846C750.316 156.884 750.33 156.92 750.348 156.955C750.354 156.966 750.362 156.999 750.367 157.01C750.385 157.049 750.402 157.087 750.42 157.125C750.424 157.14 750.429 157.155 750.436 157.169C750.457 157.218 750.478 157.269 750.496 157.316L750.502 157.322C750.928 158.357 751.356 159.398 751.777 160.433L750.195 161.074C748.721 157.418 747.16 153.732 745.566 150.122L745.561 150.123ZM30.2676 157.397C30.2776 157.375 30.2781 157.37 30.2891 157.342C30.2951 157.336 30.2948 157.331 30.3008 157.32C30.3438 157.21 30.3885 157.106 30.4375 156.991C30.4475 156.963 30.4587 156.936 30.4707 156.908C30.4815 156.885 30.4908 156.862 30.498 156.837C30.514 156.804 30.525 156.772 30.541 156.744C30.5454 156.723 30.5529 156.702 30.5625 156.683C30.5835 156.64 30.601 156.59 30.623 156.546C30.623 156.535 30.6229 156.541 30.6289 156.529C30.6719 156.42 30.7226 156.304 30.7656 156.195C30.7716 156.184 30.7715 156.19 30.7715 156.178C30.7985 156.123 30.8208 156.069 30.8418 156.019V156.014C31.9491 153.374 33.0829 150.75 34.2422 148.142C34.2482 148.131 34.248 148.137 34.248 148.126C34.275 148.077 34.2974 148.026 34.3184 147.972L34.3242 147.961C34.3512 147.906 34.3734 147.852 34.4004 147.797C34.4004 147.786 34.4061 147.78 34.4121 147.769C34.4281 147.731 34.4448 147.687 34.4668 147.643C34.4788 147.622 34.4831 147.605 34.4941 147.583C34.5051 147.561 34.5212 147.523 34.5332 147.496C34.5452 147.469 34.5545 147.441 34.5645 147.419C34.5745 147.397 34.5877 147.376 34.5977 147.354C34.7407 147.036 34.8677 146.746 35.0137 146.434L36.5645 147.134C34.9435 150.734 33.3558 154.403 31.8438 158.046L30.2676 157.397ZM728.848 116.704L730.332 115.871C731.807 118.489 733.258 121.141 734.67 123.797C734.736 123.923 734.808 124.049 734.869 124.18L734.877 124.185C734.893 124.218 734.916 124.262 734.932 124.294L734.951 124.333C734.974 124.372 734.98 124.388 735.008 124.433C735.014 124.45 735.024 124.466 735.029 124.482C735.045 124.515 735.06 124.542 735.078 124.575L735.096 124.602C735.123 124.657 735.161 124.728 735.189 124.783C735.205 124.805 735.218 124.829 735.229 124.854C735.239 124.876 735.256 124.903 735.266 124.925C735.276 124.947 735.293 124.98 735.311 125.007C735.321 125.03 735.333 125.052 735.348 125.072C735.36 125.105 735.381 125.138 735.393 125.172C735.406 125.187 735.417 125.203 735.426 125.221C735.447 125.27 735.475 125.321 735.502 125.369C735.508 125.383 735.514 125.396 735.521 125.408C735.539 125.448 735.559 125.486 735.582 125.523C735.588 125.534 735.599 125.556 735.604 125.567C735.625 125.606 735.642 125.644 735.664 125.682L735.686 125.72C735.741 125.83 735.795 125.934 735.85 126.038L735.855 126.049C735.882 126.098 735.905 126.149 735.932 126.192L735.943 126.219C735.97 126.268 735.993 126.312 736.02 126.362L736.025 126.373L734.514 127.162C732.693 123.664 730.786 120.143 728.854 116.703L728.848 116.704ZM46.3008 123.469C46.3168 123.447 46.322 123.436 46.334 123.42C46.3374 123.407 46.3424 123.393 46.3496 123.381C46.4046 123.281 46.4644 123.162 46.5254 123.052C46.5325 123.036 46.5419 123.022 46.5527 123.008L46.5957 122.921C46.6077 122.899 46.6169 122.877 46.6289 122.855C46.6455 122.829 46.6599 122.802 46.6719 122.773C46.6899 122.751 46.6988 122.724 46.7168 122.696C46.7348 122.668 46.738 122.652 46.75 122.63C46.777 122.586 46.7992 122.537 46.8262 122.493C46.8382 122.471 46.8425 122.46 46.8535 122.438C46.874 122.406 46.8921 122.373 46.9082 122.338L46.9414 122.277C46.9574 122.25 46.9742 122.217 46.9902 122.184C47 122.165 47.0113 122.147 47.0234 122.129C47.0403 122.088 47.0603 122.047 47.084 122.009L47.0996 121.981C47.1266 121.932 47.1546 121.881 47.1816 121.828L47.1992 121.795C47.2202 121.756 47.2427 121.713 47.2637 121.674C47.2697 121.663 47.2821 121.647 47.2871 121.636C47.3081 121.592 47.3306 121.553 47.3516 121.515C47.3576 121.504 47.3631 121.488 47.3691 121.476C47.4241 121.376 47.4781 121.276 47.5391 121.169C47.5391 121.158 47.5388 121.152 47.5488 121.147C47.5758 121.098 47.598 121.054 47.625 121.01L47.6367 120.983C47.6654 120.938 47.691 120.89 47.7129 120.84L47.7188 120.829C47.7798 120.729 47.8335 120.615 47.8945 120.511C47.9005 120.5 47.9003 120.506 47.9043 120.494C47.9273 120.445 47.9554 120.394 47.9824 120.346C47.9824 120.341 47.9822 120.346 47.9922 120.335C48.0802 120.17 48.164 120.012 48.252 119.853C48.258 119.842 48.2577 119.853 48.2637 119.842C48.2907 119.787 48.3187 119.742 48.3457 119.689V119.684C48.4377 119.519 48.5253 119.361 48.6133 119.197L48.6191 119.191C48.7341 118.972 48.8556 118.758 48.9746 118.545L48.9805 118.534C49.0685 118.375 49.1561 118.211 49.2441 118.052L49.25 118.047C49.277 117.998 49.309 117.947 49.332 117.894L49.3418 117.883C49.4298 117.724 49.5173 117.56 49.6113 117.401V117.396C50.428 115.93 51.2546 114.469 52.0879 113.014L53.5664 113.863C51.6034 117.286 49.6666 120.787 47.8086 124.271L46.3008 123.469ZM709 85.0532L710.4 84.0781C711.644 85.8635 712.873 87.6584 714.086 89.4624L714.092 89.4731C714.197 89.6261 714.291 89.7732 714.398 89.9282C714.404 89.9392 714.404 89.9333 714.41 89.9453C714.437 89.9883 714.465 90.0322 714.498 90.0762C714.504 90.0872 714.51 90.0871 714.516 90.0981C714.543 90.1411 714.577 90.1914 714.604 90.2354C714.609 90.2464 714.603 90.2351 714.615 90.2461C714.646 90.2951 714.679 90.3464 714.715 90.3994L714.721 90.4043C714.754 90.4483 714.781 90.497 714.814 90.541C714.818 90.5511 714.823 90.5606 714.83 90.5684C714.857 90.6124 714.885 90.6513 714.912 90.6943C714.918 90.7053 714.926 90.7112 714.932 90.7222C714.996 90.8152 715.062 90.9132 715.131 91.0122C715.137 91.0232 715.149 91.0344 715.154 91.0454C715.175 91.0844 715.204 91.1163 715.225 91.1553C715.236 91.1681 715.246 91.183 715.252 91.1992C715.279 91.2337 715.301 91.27 715.322 91.3081C715.332 91.3181 715.342 91.3294 715.35 91.3413C715.377 91.3903 715.41 91.4344 715.441 91.4844C715.447 91.4954 715.455 91.4953 715.461 91.5063C715.488 91.5493 715.516 91.5884 715.543 91.6274C715.549 91.6384 715.557 91.6604 715.562 91.6704C715.589 91.702 715.613 91.7351 715.635 91.77C715.643 91.7861 715.654 91.8013 715.666 91.8145C715.687 91.8528 715.712 91.8894 715.738 91.9243C715.744 91.9353 715.755 91.945 715.76 91.957C715.788 92.0068 715.819 92.0547 715.854 92.1001C715.858 92.1126 715.863 92.1242 715.873 92.1333C715.894 92.1713 715.922 92.21 715.943 92.248C715.956 92.258 715.966 92.2717 715.971 92.2871C715.994 92.3251 716.022 92.3585 716.043 92.3965C716.049 92.4075 716.064 92.4231 716.07 92.4351C716.131 92.5281 716.196 92.6261 716.262 92.7251C716.269 92.733 716.274 92.7425 716.277 92.7524C716.304 92.7914 716.332 92.835 716.355 92.873C716.364 92.8831 716.371 92.8944 716.377 92.9062C716.404 92.9443 716.43 92.9882 716.457 93.0322L716.475 93.0483C716.541 93.1483 716.607 93.2481 716.674 93.3481L716.686 93.3701C716.713 93.4141 716.746 93.4585 716.773 93.5015C716.779 93.5058 716.782 93.5114 716.783 93.5181C716.883 93.6711 716.984 93.8251 717.084 93.9731C717.096 93.9841 717.084 93.9734 717.09 93.9844L715.66 94.915C713.49 91.61 711.254 88.2962 709 85.0532ZM65.5449 91.2422C66.6076 89.6375 67.6853 88.0417 68.7773 86.4551C68.7833 86.4441 68.7771 86.4495 68.7891 86.4385C68.8161 86.3945 68.848 86.3501 68.875 86.3071C68.881 86.2961 68.8866 86.2962 68.8926 86.2852C68.9566 86.1852 69.0247 86.0935 69.0938 86.0005C69.1028 85.9829 69.1141 85.9661 69.127 85.9512C69.148 85.9182 69.1635 85.8903 69.1855 85.8633C69.2076 85.8363 69.2125 85.8194 69.2305 85.7974C69.2485 85.7754 69.2633 85.7481 69.2793 85.7261C69.2943 85.7015 69.3105 85.678 69.3281 85.6553C69.3401 85.6383 69.3513 85.6224 69.3613 85.6064C69.4063 85.5454 69.4376 85.496 69.4766 85.436C69.4886 85.425 69.4929 85.4143 69.5039 85.4033C69.5219 85.3763 69.5474 85.3372 69.5684 85.3032C69.5766 85.2953 69.5842 85.2863 69.5898 85.2764C69.6168 85.2324 69.6332 85.21 69.6602 85.166C70.5372 83.901 71.4146 82.6461 72.3066 81.3921L73.6973 82.3843C71.4143 85.5993 69.1518 88.9021 66.9668 92.1841L65.5449 91.2422ZM686.197 55.457L687.496 54.3511C687.633 54.5101 687.775 54.6804 687.912 54.8394C687.925 54.8522 687.936 54.8666 687.945 54.8823C687.963 54.8993 687.995 54.9371 688.012 54.9531C688.028 54.9765 688.046 54.9985 688.066 55.019C688.082 55.035 688.093 55.0572 688.109 55.0742C688.148 55.1182 688.182 55.1612 688.219 55.2002C688.223 55.2088 688.229 55.2163 688.236 55.2222C688.267 55.2629 688.302 55.3016 688.338 55.3374C688.347 55.3475 688.353 55.3583 688.359 55.3701C688.39 55.4013 688.419 55.4348 688.445 55.4702C688.456 55.4772 688.466 55.4862 688.473 55.4971C688.588 55.6401 688.708 55.7761 688.824 55.9131C690.588 58.0111 692.326 60.1241 694.039 62.2515L694.047 62.2563C694.162 62.3993 694.272 62.5411 694.391 62.6831C694.397 62.6881 694.396 62.6941 694.408 62.7051C694.435 62.7441 694.469 62.7823 694.5 62.8203C694.505 62.8284 694.51 62.8355 694.518 62.8413C694.555 62.8903 694.594 62.934 694.627 62.978V62.9834C694.666 63.0274 694.703 63.0713 694.736 63.1143C694.746 63.1286 694.757 63.1418 694.77 63.1533C694.793 63.1856 694.819 63.2164 694.846 63.2461C694.856 63.2647 694.869 63.2816 694.885 63.2954C694.906 63.3224 694.926 63.3503 694.947 63.3823C694.962 63.3971 694.975 63.4134 694.986 63.4312C695.019 63.4642 695.047 63.5023 695.074 63.5312C695.08 63.5412 695.087 63.5502 695.096 63.5581L693.76 64.6211C691.295 61.5541 688.745 58.4645 686.199 55.4585L686.197 55.457ZM87.7793 61.0171C87.8063 60.9891 87.8158 60.9733 87.8398 60.9463C87.8398 60.9413 87.8398 60.9411 87.8398 60.9351C89.3812 59.0457 90.9334 57.1728 92.4961 55.3154C92.4968 55.3156 92.4973 55.3156 92.498 55.3154C92.4988 55.3152 92.4994 55.3144 92.5 55.314C92.5006 55.3135 92.5016 55.3132 92.502 55.3125C92.5023 55.3118 92.502 55.3108 92.502 55.3101C92.535 55.2721 92.5568 55.2454 92.5898 55.2104C92.5947 55.2027 92.5996 55.1954 92.6055 55.1885C92.6385 55.1505 92.6565 55.1284 92.6875 55.0884C92.6947 55.0821 92.7003 55.0747 92.7051 55.0664C92.7541 55.0114 92.8201 54.934 92.8691 54.874C92.8751 54.869 92.8768 54.8634 92.8828 54.8574C92.9038 54.8304 92.9302 54.8024 92.9512 54.7754L92.9902 54.7373C93.0062 54.7153 93.0397 54.6763 93.0547 54.6543C93.0682 54.6366 93.0832 54.6204 93.0996 54.6055C93.1206 54.5785 93.1362 54.5563 93.1602 54.5283C93.1796 54.5076 93.1996 54.486 93.2168 54.4634C93.2491 54.4316 93.2796 54.3981 93.3086 54.3633C93.3266 54.3413 93.3471 54.3145 93.3691 54.2925C93.3842 54.2731 93.4004 54.2545 93.418 54.2373C93.436 54.2093 93.4565 54.1882 93.4785 54.1602C93.5005 54.1322 93.5113 54.1225 93.5293 54.1055C93.553 54.0751 93.5785 54.0456 93.6055 54.0181C93.6115 54.0071 93.6268 53.9915 93.6328 53.9795C93.6718 53.9365 93.7092 53.897 93.7422 53.853C93.7498 53.841 93.7592 53.8302 93.7695 53.8203L93.8574 53.7202C93.8676 53.7102 93.877 53.6994 93.8848 53.6875C93.9178 53.6545 93.9455 53.6161 93.9785 53.5781C93.9885 53.5731 93.987 53.5672 93.998 53.5562C94.074 53.4632 94.1564 53.3752 94.2324 53.2822L94.2383 53.2773C94.2736 53.2292 94.3122 53.1833 94.3535 53.1401V53.1343C94.7205 52.7133 95.0821 52.2913 95.4531 51.8633L96.7461 52.9805C94.1661 55.9655 91.5925 59.0332 89.1055 62.0952L87.7793 61.0171ZM660.666 28.1733L661.854 26.9512C662.654 27.7292 663.454 28.5126 664.254 29.3013C664.297 29.3443 664.34 29.3881 664.385 29.4321C664.473 29.5141 664.561 29.6021 664.643 29.6841L664.664 29.7061C664.697 29.7391 664.734 29.7712 664.764 29.8062C664.773 29.8165 664.785 29.826 664.797 29.8335C664.83 29.8665 664.858 29.8991 664.891 29.9331C664.901 29.9441 664.912 29.9504 664.918 29.9604C664.961 29.9984 665 30.0372 665.037 30.0752C665.049 30.0887 665.062 30.1015 665.076 30.1133L665.158 30.1953C665.176 30.2123 665.191 30.2281 665.207 30.2441C665.231 30.2661 665.253 30.2901 665.273 30.3154C665.293 30.3303 665.311 30.3465 665.328 30.3643L665.404 30.4414C665.427 30.4634 665.45 30.4902 665.477 30.5122L665.559 30.5942C665.58 30.6132 665.6 30.6336 665.619 30.6553L665.674 30.7104C665.696 30.7299 665.716 30.7517 665.734 30.7754C665.755 30.7924 665.771 30.8082 665.789 30.8242C665.811 30.8477 665.835 30.8697 665.859 30.8901C665.873 30.9079 665.888 30.9246 665.904 30.9395C665.947 30.9785 665.99 31.0273 666.035 31.0703C666.045 31.0813 666.062 31.0974 666.072 31.1094C666.101 31.1364 666.123 31.158 666.15 31.186L666.188 31.2241L666.266 31.3013L666.297 31.3345C666.385 31.4165 666.479 31.5152 666.561 31.5972L666.594 31.6304C666.62 31.6595 666.647 31.6872 666.676 31.7134C666.682 31.7244 666.692 31.7292 666.703 31.7402C666.73 31.7672 666.758 31.8003 666.785 31.8223C666.79 31.8317 666.797 31.8394 666.807 31.8442C666.862 31.9042 666.921 31.9654 666.982 32.0254C666.988 32.0304 666.994 32.0301 666.994 32.0361L667.082 32.123C667.092 32.128 667.098 32.1404 667.109 32.1504C667.14 32.1834 667.158 32.1994 667.191 32.2324C667.201 32.2434 667.213 32.2543 667.219 32.2603C667.307 32.3473 667.398 32.4413 667.48 32.5283C667.492 32.5393 667.508 32.55 667.52 32.561C667.541 32.5881 667.565 32.614 667.59 32.6382C667.606 32.6511 667.621 32.6655 667.635 32.6812C667.661 32.702 667.683 32.7261 667.703 32.7524L667.742 32.791C667.797 32.846 667.838 32.8845 667.887 32.9395C667.899 32.9495 667.91 32.9602 667.92 32.9722C667.942 32.9956 667.964 33.0175 667.988 33.0381C668.003 33.0575 668.02 33.076 668.037 33.0933C668.055 33.1093 668.089 33.1422 668.104 33.1582L668.158 33.2134C668.177 33.2347 668.199 33.2548 668.221 33.2734C668.248 33.2993 668.273 33.3267 668.297 33.3555C668.324 33.3798 668.347 33.4051 668.371 33.4321C668.394 33.4541 668.422 33.4813 668.449 33.5093L668.492 33.5532C668.516 33.5802 668.542 33.6061 668.568 33.6304L668.613 33.6743C668.64 33.7073 668.674 33.7391 668.701 33.7671C668.711 33.7781 668.722 33.7883 668.734 33.8003C668.771 33.8383 668.81 33.8824 668.854 33.9214L668.871 33.9434C668.907 33.9744 668.942 34.0079 668.973 34.0435C668.983 34.051 668.991 34.0599 668.998 34.0703C669.031 34.1083 669.07 34.1412 669.1 34.1792L669.117 34.1904C669.199 34.2774 669.287 34.3651 669.373 34.4531C669.418 34.4971 669.461 34.5415 669.5 34.5845L669.506 34.5903C669.764 34.8583 670.026 35.1271 670.283 35.3901L669.057 36.5791C666.323 33.7561 663.5 30.9243 660.664 28.1743L660.666 28.1733ZM112.812 33.0532C113.162 32.7022 113.512 32.3461 113.857 31.9961L113.863 31.9912C113.994 31.8592 114.127 31.7282 114.252 31.5962L114.264 31.5913C114.301 31.5523 114.34 31.5141 114.379 31.4761C114.379 31.4651 114.389 31.4651 114.4 31.4541C114.437 31.4161 114.477 31.3775 114.516 31.3335L114.521 31.3281C114.564 31.2851 114.607 31.2413 114.652 31.1973C114.695 31.1594 114.736 31.1189 114.773 31.0762C114.783 31.0712 114.79 31.0602 114.801 31.0542C114.832 31.0212 114.864 30.9831 114.9 30.9541C114.912 30.9482 114.922 30.9389 114.928 30.9272L115.174 30.6802C115.184 30.6752 115.192 30.6676 115.199 30.6582L115.301 30.5581C115.311 30.5481 115.318 30.5373 115.326 30.5254L115.428 30.4253C115.44 30.4203 115.444 30.4093 115.453 30.4033C115.535 30.3213 115.617 30.2392 115.705 30.1572C115.711 30.1468 115.719 30.1378 115.729 30.1304C115.76 30.0974 115.792 30.0643 115.828 30.0303L115.855 30.0024L115.971 29.8872C115.977 29.8822 115.97 29.8873 115.982 29.8823C116.025 29.8383 116.064 29.7945 116.107 29.7505H116.113C116.152 29.7075 116.195 29.668 116.234 29.624C116.242 29.62 116.25 29.6149 116.256 29.6084C116.293 29.5694 116.332 29.5312 116.371 29.4932L116.381 29.4824C116.469 29.3994 116.551 29.3121 116.639 29.2251H116.645L116.77 29.0991L116.775 29.0884C118.281 27.609 119.799 26.1373 121.328 24.6733L122.508 25.9111C119.654 28.6331 116.806 31.4434 114.031 34.2534L112.812 33.0532ZM632.643 3.45312L633.711 2.12207C634.728 2.93874 635.743 3.76074 636.756 4.5874H636.762C636.805 4.6254 636.853 4.66415 636.898 4.70215L636.904 4.70703L637.184 4.9375C637.194 4.9425 637.198 4.94212 637.203 4.95312C637.24 4.98612 637.279 5.01439 637.318 5.04639C637.328 5.05276 637.338 5.0601 637.346 5.06836C637.383 5.10136 637.422 5.12813 637.461 5.16113L637.482 5.18311C637.531 5.22211 637.576 5.25446 637.619 5.29346C637.631 5.29846 637.632 5.30408 637.641 5.30908L637.74 5.39746C637.759 5.41049 637.775 5.42517 637.791 5.44141L637.873 5.50635C637.892 5.52004 637.91 5.53467 637.928 5.55029C637.954 5.57083 637.98 5.59278 638.004 5.61621C638.025 5.62736 638.043 5.64186 638.059 5.65918C638.098 5.69218 638.141 5.72544 638.18 5.75244C638.219 5.77944 638.217 5.7855 638.244 5.8125C638.271 5.8395 638.283 5.84533 638.305 5.86133C638.33 5.88307 638.356 5.90347 638.383 5.92236C638.399 5.93336 638.41 5.94945 638.426 5.96045L638.508 6.02637C638.52 6.03737 638.529 6.04334 638.535 6.04834L638.734 6.2124L638.74 6.21826C638.779 6.25126 638.803 6.26729 638.842 6.30029C638.85 6.30425 638.857 6.30978 638.863 6.31641C638.9 6.34941 638.929 6.3713 638.965 6.4043L638.971 6.40918C640.295 7.50518 641.607 8.60981 642.912 9.72314L641.812 11.0234C638.808 8.47144 635.719 5.92447 632.641 3.45947L632.643 3.45312ZM140.402 7.61133C140.429 7.58933 140.468 7.5563 140.496 7.5293C140.524 7.5023 140.566 7.47441 140.596 7.44141C140.601 7.43575 140.609 7.43169 140.617 7.43018C140.65 7.39718 140.678 7.37529 140.717 7.34229C140.817 7.25529 140.936 7.15622 141.039 7.07422C141.051 7.06822 141.057 7.05725 141.066 7.05225C141.099 7.01925 141.121 7.0081 141.154 6.9751C141.166 6.96757 141.178 6.95864 141.188 6.94824C141.281 6.87124 141.387 6.77817 141.482 6.70117C141.493 6.696 141.503 6.6885 141.51 6.6792L141.592 6.61328C141.607 6.59892 141.624 6.5861 141.643 6.5752C141.667 6.55168 141.692 6.52973 141.719 6.50928C141.732 6.49501 141.746 6.48217 141.762 6.47119C141.823 6.42219 141.854 6.39421 141.908 6.34521L141.957 6.3125C141.978 6.29106 142 6.27096 142.023 6.25244C142.044 6.23544 142.068 6.21912 142.086 6.20312L142.154 6.14844C142.174 6.129 142.195 6.11046 142.217 6.09326C142.238 6.07541 142.258 6.0592 142.281 6.04443C142.309 6.01719 142.338 5.99134 142.369 5.96729C142.392 5.95051 142.414 5.93195 142.434 5.91211C142.466 5.88476 142.499 5.8594 142.533 5.83545C142.543 5.82445 142.576 5.79748 142.582 5.79248C142.609 5.77194 142.634 5.7495 142.658 5.72607C142.679 5.70907 142.699 5.69913 142.721 5.68213C142.743 5.66513 142.776 5.63333 142.803 5.61133C142.819 5.59964 142.833 5.58686 142.848 5.57324C142.891 5.54024 142.934 5.50214 142.979 5.47314C142.986 5.46429 142.996 5.45687 143.006 5.45117L143.105 5.36328C143.111 5.35828 143.139 5.34108 143.145 5.33008C143.178 5.30308 143.21 5.27505 143.244 5.24805C143.256 5.24305 143.271 5.22619 143.283 5.22119C143.371 5.14419 143.459 5.07344 143.551 5.00244L143.574 4.98047C143.613 4.95215 143.65 4.92081 143.684 4.88721C143.696 4.88292 143.708 4.87536 143.717 4.86523C143.754 4.83223 143.791 4.80046 143.828 4.77246L143.848 4.75537C143.948 4.67837 144.039 4.60239 144.133 4.52539C144.133 4.52039 144.133 4.52516 144.143 4.51416C144.188 4.48116 144.23 4.44306 144.275 4.41406L144.285 4.40332C144.428 4.28832 144.564 4.17311 144.707 4.05811L144.719 4.05322C144.762 4.01422 144.81 3.97648 144.855 3.93848C146.066 2.95781 147.278 1.98438 148.492 1.01904L148.498 1.01416C148.641 0.90516 148.791 0.789316 148.932 0.674316L148.943 0.663086L149.074 0.563477L149.092 0.546387C149.184 0.475387 149.278 0.398148 149.371 0.327148C149.38 0.322072 149.388 0.314438 149.393 0.305176L149.508 0.222168L149.539 0.189453C149.576 0.162453 149.611 0.134422 149.641 0.107422C149.653 0.102422 149.657 0.096332 149.668 0.090332L150.725 1.43213C147.62 3.87013 144.513 6.38929 141.49 8.92529L140.402 7.61133Z" fill="white"/>
</svg>
