<svg width="1051" height="621" viewBox="0 0 1051 621" fill="none" xmlns="http://www.w3.org/2000/svg">
<path opacity="0.3" d="M102.143 620.997C101.975 620.772 101.808 620.547 101.643 620.323C101.643 620.318 101.643 620.318 101.643 620.312C101.604 620.263 101.576 620.219 101.537 620.169C101.527 620.158 101.523 620.148 101.518 620.142L101.424 620.011C101.416 620.003 101.408 619.994 101.402 619.984C101.365 619.929 101.348 619.913 101.309 619.858C101.298 619.846 101.289 619.833 101.281 619.819C101.26 619.792 101.217 619.732 101.199 619.704C101.185 619.689 101.173 619.673 101.162 619.655C101.138 619.621 101.112 619.587 101.084 619.555C101.074 619.538 101.057 619.516 101.047 619.5C101.037 619.484 100.992 619.423 100.971 619.4C100.959 619.383 100.946 619.367 100.932 619.351C100.908 619.316 100.883 619.283 100.855 619.251C100.844 619.232 100.831 619.214 100.816 619.196C100.795 619.169 100.767 619.125 100.746 619.096C100.733 619.075 100.718 619.055 100.701 619.036C100.68 619.004 100.658 618.973 100.633 618.943C100.62 618.92 100.605 618.898 100.588 618.877C100.561 618.839 100.55 618.822 100.523 618.784C100.507 618.765 100.492 618.745 100.479 618.723C100.452 618.685 100.441 618.674 100.414 618.636C100.398 618.612 100.382 618.588 100.363 618.565L100.309 618.494C100.293 618.467 100.27 618.439 100.246 618.407C100.235 618.393 100.226 618.379 100.217 618.363C100.078 618.177 99.9465 617.99 99.8105 617.804L99.8047 617.798C99.7407 617.705 99.6665 617.612 99.6035 617.513L99.5879 617.491C99.5549 617.442 99.5223 617.398 99.4883 617.349L99.4824 617.343C99.4494 617.294 99.4168 617.243 99.3828 617.196L99.377 617.19C98.287 615.678 97.2042 614.159 96.1289 612.633L97.5273 611.653C99.7273 614.779 102 617.926 104.275 621.008L102.143 620.997ZM957.986 604.888C960.211 601.623 962.429 598.288 964.576 594.973L966.014 595.899C963.844 599.241 961.638 602.556 959.396 605.846L957.986 604.888ZM81.7402 591.134C81.7402 591.129 81.7344 591.123 81.7344 591.117C81.6954 591.062 81.6795 591.035 81.6465 590.98C81.6354 590.967 81.626 590.952 81.6191 590.936C81.5981 590.909 81.5717 590.859 81.5547 590.836C81.5396 590.812 81.5234 590.788 81.5059 590.765C81.4899 590.738 81.4711 590.71 81.4551 590.678C81.4391 590.646 81.4165 590.623 81.3945 590.595C81.3885 590.579 81.3673 590.546 81.3613 590.53C81.3346 590.496 81.3128 590.459 81.293 590.42C81.2839 590.41 81.2758 590.399 81.2695 590.387C81.2425 590.343 81.2106 590.3 81.1836 590.256V590.251C80.1586 588.624 79.135 586.986 78.127 585.343C78.0923 585.294 78.0592 585.243 78.0312 585.19L78.0195 585.179C77.9925 585.13 77.9645 585.086 77.9375 585.036C77.928 585.027 77.9222 585.016 77.918 585.003C77.891 584.964 77.8629 584.92 77.8359 584.877C77.8288 584.867 77.8218 584.856 77.8184 584.844L77.7402 584.718C77.7286 584.703 77.7199 584.687 77.7109 584.669C77.687 584.634 77.6645 584.598 77.6445 584.56C77.6282 584.54 77.6149 584.518 77.6055 584.494C77.5845 584.467 77.5689 584.434 77.5449 584.401C77.5209 584.368 77.5075 584.34 77.4805 584.301C77.4719 584.282 77.4606 584.263 77.4473 584.246C77.4143 584.191 77.3924 584.159 77.3594 584.104C77.3594 584.099 77.3537 584.093 77.3477 584.087C76.7617 583.129 76.1756 582.165 75.6016 581.2L77.0586 580.324C79.1016 583.704 81.2042 587.111 83.3242 590.447L81.8848 591.362C81.8378 591.282 81.7892 591.205 81.7402 591.134ZM977.941 573.234C979.923 569.821 981.903 566.334 983.809 562.876L985.303 563.703C984.58 565.003 983.856 566.31 983.121 567.608C983.115 567.614 983.115 567.614 983.121 567.614V567.619C983.088 567.668 983.06 567.719 983.033 567.772L983.023 567.783L982.941 567.931L982.93 567.948L982.848 568.096L982.842 568.112L982.76 568.26C982.748 568.271 982.754 568.266 982.744 568.282C982.717 568.326 982.689 568.375 982.662 568.425L982.656 568.442L982.574 568.589L982.562 568.606C982.289 569.088 982.015 569.57 981.74 570.046V570.052L981.658 570.2C981.648 570.211 981.659 570.211 981.643 570.221C981.616 570.27 981.588 570.321 981.561 570.364C981.555 570.381 981.561 570.369 981.555 570.381C981.528 570.43 981.5 570.481 981.473 570.523C981.467 570.532 981.46 570.542 981.455 570.551C981.432 570.594 981.406 570.644 981.379 570.688L981.361 570.715C981.334 570.759 981.312 570.803 981.285 570.852L981.268 570.879C981.241 570.928 981.213 570.972 981.186 571.016C981.18 571.033 981.186 571.021 981.18 571.038C981.148 571.084 981.12 571.132 981.094 571.181L981.082 571.197L981 571.345L980.994 571.356C980.967 571.405 980.933 571.456 980.906 571.509L980.9 571.514C980.693 571.881 980.478 572.248 980.271 572.614L980.25 572.647C980.227 572.686 980.211 572.718 980.189 572.747C980.178 572.77 980.165 572.792 980.15 572.813C980.134 572.846 980.112 572.878 980.096 572.913C980.09 572.924 980.063 572.968 980.053 572.984C980.043 573 980.02 573.044 980.002 573.071L979.957 573.148C979.941 573.181 979.924 573.209 979.908 573.236C979.892 573.263 979.87 573.296 979.854 573.323C979.842 573.346 979.829 573.368 979.814 573.389C979.798 573.416 979.772 573.471 979.754 573.498C979.736 573.525 979.733 573.537 979.721 573.553L979.65 573.674C979.645 573.688 979.639 573.701 979.631 573.713C979.606 573.761 979.579 573.806 979.549 573.85L979.529 573.883C979.492 573.954 979.453 574.02 979.41 574.091L977.941 573.234ZM59.2598 552.034V552.029C59.2328 551.98 59.2046 551.936 59.1836 551.886C59.1776 551.869 59.1701 551.869 59.1641 551.853C59.1431 551.814 59.1215 551.771 59.1035 551.732C59.0945 551.713 59.0839 551.695 59.0723 551.677C59.0543 551.638 59.0336 551.606 59.0156 551.577C58.9976 551.548 58.9945 551.529 58.9785 551.5C58.9658 551.472 58.9509 551.444 58.9336 551.417C58.9176 551.384 58.8968 551.346 58.8848 551.317C58.8758 551.296 58.8645 551.276 58.8516 551.257C58.8356 551.224 58.8021 551.164 58.7871 551.131C58.7817 551.117 58.7754 551.104 58.7656 551.092C58.7386 551.032 58.7223 551.005 58.6953 550.95C58.6893 550.939 58.6837 550.928 58.6797 550.922C58.2407 550.068 57.8179 549.241 57.3789 548.38L58.8965 547.608C60.6965 551.13 62.5488 554.674 64.4238 558.158L62.916 558.963C61.6847 556.665 60.4658 554.355 59.2598 552.034ZM995.578 540.252C997.314 536.702 999.034 533.082 1000.69 529.5L1002.24 530.212C1001.57 531.658 1000.91 533.077 1000.23 534.517C1000.23 534.522 1000.22 534.528 1000.22 534.534C1000.2 534.594 1000.17 534.634 1000.15 534.693C1000.15 534.699 1000.14 534.704 1000.13 534.715C1000.11 534.776 1000.1 534.803 1000.06 534.863L1000.05 534.896C1000.03 534.944 1000.01 534.99 999.986 535.033C999.978 535.049 999.97 535.065 999.965 535.082C999.944 535.119 999.926 535.158 999.91 535.197C999.898 535.218 999.886 535.24 999.877 535.263C999.856 535.307 999.844 535.334 999.822 535.378C999.812 535.394 999.806 535.416 999.795 535.433C999.774 535.482 999.762 535.504 999.74 535.548C999.73 535.57 999.72 535.592 999.713 535.614L999.658 535.723C999.646 535.745 999.637 535.767 999.625 535.789C999.613 535.811 999.604 535.833 999.592 535.866C999.549 535.948 999.51 536.031 999.473 536.118L999.467 536.129C999.446 536.178 999.421 536.222 999.4 536.266C999.393 536.278 999.388 536.292 999.385 536.305C999.364 536.348 999.339 536.392 999.318 536.442L999.303 536.475C999.282 536.519 999.257 536.568 999.23 536.618L999.221 536.64C999.198 536.689 999.175 536.733 999.154 536.782C999.148 536.793 999.143 536.804 999.139 536.815C999.115 536.858 999.095 536.901 999.078 536.946C999.068 536.959 999.06 536.974 999.057 536.99C999.034 537.034 999.011 537.077 998.99 537.121C998.988 537.133 998.983 537.145 998.975 537.154L998.908 537.292L998.896 537.324C998.87 537.373 998.847 537.417 998.826 537.467C998.82 537.483 998.82 537.478 998.814 537.494C998.793 537.543 998.765 537.587 998.744 537.637C998.738 537.653 998.738 537.648 998.732 537.664C998.711 537.713 998.683 537.764 998.662 537.811C998.656 537.822 998.662 537.811 998.65 537.828C998.629 537.877 998.601 537.928 998.58 537.981L998.574 537.986C998.42 538.309 998.267 538.632 998.107 538.95C998.104 538.966 998.098 538.981 998.088 538.994C998.072 539.032 998.053 539.065 998.037 539.094C998.021 539.123 998.018 539.138 998.006 539.165C997.989 539.195 997.975 539.226 997.963 539.258C997.951 539.275 997.93 539.329 997.918 539.341C997.908 539.368 997.891 539.401 997.881 539.428C997.863 539.456 997.849 539.486 997.836 539.516C997.821 539.541 997.809 539.567 997.799 539.593C997.781 539.626 997.758 539.67 997.746 539.693C997.737 539.714 997.728 539.734 997.715 539.753C997.705 539.786 997.67 539.846 997.658 539.874C997.646 539.902 997.644 539.907 997.633 539.929L997.568 540.06L997.551 540.093C997.524 540.153 997.507 540.186 997.48 540.241C997.474 540.252 997.475 540.257 997.469 540.268C997.354 540.503 997.228 540.755 997.113 540.997L995.578 540.252ZM43.7793 519.519L43.7637 519.481C43.7457 519.442 43.7308 519.404 43.7148 519.366C43.7026 519.346 43.6931 519.324 43.6875 519.3C43.6695 519.273 43.6606 519.24 43.6426 519.207C43.6246 519.174 43.6155 519.141 43.6055 519.114C43.5955 519.087 43.5823 519.07 43.5723 519.048C43.5543 518.999 43.5395 518.971 43.5215 518.922C43.5166 518.907 43.509 518.893 43.5 518.879C43.484 518.835 43.4575 518.779 43.4395 518.731C43.4335 518.726 43.4302 518.718 43.4297 518.709C42.8047 517.263 42.1795 515.795 41.5605 514.338L43.1328 513.675C44.6718 517.318 46.2677 520.988 47.8887 524.592L46.3301 525.292C45.4654 523.376 44.616 521.453 43.7793 519.521V519.519ZM1010.81 506.077C1012.29 502.412 1013.74 498.677 1015.13 494.985L1016.73 495.585C1016.56 496.045 1016.38 496.505 1016.21 496.965C1016.2 496.982 1016.2 496.976 1016.2 496.987C1016.18 497.036 1016.16 497.08 1016.15 497.124C1016.14 497.141 1016.13 497.163 1016.13 497.179C1016.11 497.217 1016.1 497.25 1016.09 497.279C1016.08 497.308 1016.07 497.339 1016.05 497.366C1016.04 497.393 1016.03 497.421 1016.02 497.448C1016.01 497.475 1015.99 497.536 1015.98 497.563C1015.97 497.583 1015.97 497.601 1015.96 497.618C1015.93 497.684 1015.92 497.701 1015.9 497.766C1015.9 497.777 1015.9 497.783 1015.89 497.793C1014.75 500.793 1013.59 503.742 1012.39 506.71L1010.81 506.077ZM31.4434 488.439C31.4408 488.43 31.4377 488.421 31.4336 488.412C31.4216 488.374 31.4065 488.33 31.3945 488.292C31.3839 488.271 31.3745 488.249 31.3672 488.226C31.3572 488.193 31.346 488.16 31.334 488.126C31.3212 488.098 31.3106 488.069 31.3027 488.039C31.2901 488.01 31.2789 487.981 31.2695 487.951C31.2575 487.924 31.2463 487.88 31.2363 487.851C31.2263 487.822 31.2199 487.807 31.2109 487.785C31.2019 487.763 31.1761 487.692 31.1641 487.659C31.1641 487.643 31.1544 487.626 31.1484 487.61C31.1364 487.577 31.1096 487.51 31.0996 487.473L31.082 487.424C31.066 487.38 31.0453 487.331 31.0273 487.281C31.0273 487.27 31.0176 487.254 31.0176 487.243C30.9906 487.177 30.9771 487.143 30.9551 487.084C30.9551 487.079 30.9492 487.069 30.9492 487.062C30.9282 487.003 30.9078 486.947 30.8848 486.881C30.7478 486.503 30.6164 486.125 30.4844 485.747V485.742C30.4634 485.681 30.445 485.621 30.418 485.555V485.55C30.397 485.485 30.3754 485.435 30.3574 485.375C30.3524 485.369 30.3492 485.361 30.3477 485.353L30.293 485.189C30.287 485.178 30.2793 485.172 30.2793 485.162C30.2583 485.096 30.2466 485.069 30.2246 485.009C30.2186 484.992 30.213 484.982 30.209 484.97C30.1946 484.918 30.1778 484.867 30.1582 484.817C30.1537 484.806 30.1487 484.795 30.1426 484.784C30.1306 484.735 30.1098 484.684 30.0938 484.636C30.0868 484.622 30.0793 484.607 30.0742 484.592L30.0254 484.455C30.0194 484.438 30.0138 484.422 30.0098 484.406L29.959 484.263L29.9434 484.219C29.9293 484.167 29.9112 484.116 29.8887 484.066C29.8887 484.055 29.8828 484.044 29.8828 484.033C29.8338 483.907 29.795 483.798 29.752 483.667C29.74 483.634 29.7307 483.601 29.7188 483.566C29.7081 483.543 29.6987 483.519 29.6914 483.495C29.6754 483.451 29.6586 483.408 29.6426 483.364C29.6383 483.347 29.6307 483.331 29.623 483.315C29.6114 483.271 29.597 483.227 29.5801 483.184L29.5625 483.135C29.5465 483.091 29.5317 483.042 29.5137 482.998C29.5094 482.986 29.5063 482.973 29.5039 482.96C29.4859 482.911 29.4712 482.867 29.4492 482.817C29.4478 482.804 29.444 482.791 29.4375 482.779C29.4215 482.73 29.4047 482.679 29.3887 482.631L29.377 482.609C29.3621 482.555 29.3421 482.502 29.3203 482.45V482.439C28.9533 481.382 28.5915 480.319 28.2305 479.262L29.8457 478.714C31.1167 482.455 32.4458 486.235 33.8008 489.943L32.1953 490.529C31.9463 489.826 31.7004 489.135 31.4434 488.439ZM1023.54 470.9C1024.75 467.142 1025.93 463.314 1027.05 459.523L1028.69 460.01L1028.67 460.071V460.087C1027.98 462.41 1027.28 464.71 1026.56 467.022C1026.56 467.028 1026.56 467.033 1026.56 467.038C1026.54 467.104 1026.52 467.148 1026.51 467.213C1026.5 467.216 1026.5 467.219 1026.5 467.223C1026.5 467.227 1026.49 467.231 1026.49 467.235C1026.48 467.295 1026.46 467.335 1026.44 467.4C1026.44 467.412 1026.44 467.422 1026.43 467.433C1026.41 467.499 1026.41 467.526 1026.38 467.592C1026.38 467.597 1026.38 467.609 1026.37 467.619C1026.35 467.685 1026.35 467.719 1026.32 467.778C1026.32 467.789 1026.32 467.799 1026.31 467.811C1026.3 467.871 1026.29 467.911 1026.26 467.975C1026.26 467.981 1026.26 467.989 1026.26 467.997C1026.24 468.063 1026.22 468.107 1026.2 468.167C1026.2 468.174 1026.19 468.182 1026.2 468.189C1025.86 469.263 1025.51 470.353 1025.17 471.421L1023.54 470.9ZM19.1094 449.45L19.1035 449.428C19.0915 449.379 19.0765 449.328 19.0645 449.28C19.0602 449.266 19.0571 449.251 19.0547 449.236C19.0383 449.192 19.0252 449.146 19.0156 449.099C19.0096 449.082 19.002 449.066 18.998 449.05C18.986 449.006 18.9769 448.957 18.9609 448.913L18.9531 448.875C18.9371 448.826 18.9262 448.775 18.9102 448.727C18.9053 448.717 18.9034 448.706 18.9043 448.694C18.8863 448.639 18.8714 448.594 18.8594 448.535V448.519C18.8414 448.464 18.8265 448.409 18.8145 448.354L18.8086 448.349C18.3553 446.668 17.9081 444.985 17.4668 443.299L19.1211 442.866C20.1131 446.689 21.1699 450.556 22.2539 454.352L20.6113 454.823C20.1007 453.033 19.6 451.241 19.1094 449.45ZM1033.7 434.897C1034.63 431.063 1035.54 427.157 1036.38 423.297L1038.05 423.664C1038.02 423.812 1037.98 423.976 1037.95 424.124V424.13C1037.93 424.195 1037.92 424.245 1037.9 424.311V424.333C1037.89 424.398 1037.88 424.442 1037.86 424.508C1037.86 424.519 1037.86 424.524 1037.86 424.529C1037.85 424.585 1037.84 424.64 1037.82 424.694C1037.82 424.707 1037.82 424.72 1037.82 424.733C1037.8 424.782 1037.79 424.831 1037.78 424.88C1037.78 424.897 1037.77 424.914 1037.77 424.929C1037.76 424.978 1037.75 425.029 1037.73 425.082C1037.72 425.135 1037.71 425.182 1037.7 425.236C1037.69 425.26 1037.69 425.283 1037.69 425.307C1037.67 425.351 1037.66 425.4 1037.65 425.45L1037.65 425.494C1037.63 425.543 1037.63 425.594 1037.61 425.642C1037.61 425.653 1037.61 425.665 1037.6 425.675C1037.59 425.73 1037.58 425.775 1037.57 425.828C1037.57 425.838 1037.56 425.85 1037.56 425.861C1037.55 425.914 1037.54 425.967 1037.53 426.021C1037.52 426.036 1037.53 426.025 1037.52 426.042C1037.51 426.097 1037.49 426.151 1037.48 426.206V426.223C1037.47 426.283 1037.46 426.338 1037.44 426.398V426.403C1036.77 429.377 1036.08 432.344 1035.35 435.303L1033.7 434.897ZM11.1562 416.153C11.1571 416.142 11.1552 416.13 11.1504 416.12C11.1404 416.071 11.1291 416.02 11.1191 415.967C11.1131 415.945 11.1134 415.918 11.1074 415.896C11.1012 415.86 11.0918 415.823 11.0801 415.787C11.0741 415.754 11.0685 415.721 11.0645 415.694C11.0605 415.667 11.0529 415.634 11.0469 415.601C11.0409 415.568 11.0304 415.53 11.0254 415.491C11.0194 415.475 11.0138 415.436 11.0098 415.42C10.9978 415.377 10.9914 415.338 10.9824 415.294C10.9824 415.278 10.9766 415.267 10.9766 415.251C10.3946 412.397 9.83921 409.534 9.31055 406.662L10.9863 406.355C11.7053 410.239 12.4871 414.167 13.2871 418.034L11.6172 418.384C11.4672 417.632 11.3142 416.903 11.1602 416.153H11.1562ZM1041.24 398.253C1041.9 394.358 1042.52 390.398 1043.1 386.487L1044.78 386.734C1044.48 388.81 1044.17 390.864 1043.85 392.934C1043.78 393.339 1043.71 393.745 1043.65 394.15V394.172C1043.64 394.243 1043.63 394.272 1043.62 394.336C1043.61 394.358 1043.61 394.38 1043.61 394.402C1043.6 394.435 1043.59 394.495 1043.59 394.528C1043.58 394.555 1043.58 394.583 1043.58 394.61C1043.57 394.647 1043.56 394.683 1043.55 394.719C1043.55 394.749 1043.55 394.778 1043.54 394.807C1043.54 394.84 1043.53 394.872 1043.53 394.907C1043.52 394.942 1043.52 394.978 1043.51 395.007C1043.51 395.035 1043.5 395.063 1043.49 395.089L1043.47 395.204C1043.47 395.224 1043.47 395.245 1043.46 395.264C1043.46 395.31 1043.45 395.356 1043.44 395.401L1043.44 395.428C1043.27 396.463 1043.1 397.498 1042.93 398.533L1041.24 398.253ZM4.81445 377.893L4.80859 377.871L4.79102 377.723C4.79053 377.704 4.7874 377.686 4.78125 377.668C4.78014 377.626 4.77641 377.584 4.76953 377.542C4.76353 377.509 4.76377 377.504 4.75977 377.471L4.74023 377.356C4.73883 377.325 4.73572 377.294 4.73047 377.263C4.72447 377.23 4.72475 377.203 4.71875 377.17C4.71275 377.137 4.70713 377.088 4.70312 377.055C4.69912 377.022 4.69727 377.006 4.69727 376.978C4.68633 376.926 4.67821 376.873 4.67383 376.819C4.67383 376.808 4.67383 376.798 4.67383 376.786C4.47383 375.214 4.28452 373.647 4.10352 372.07C4.10352 372.065 4.10366 372.059 4.09766 372.059C4.09166 371.988 4.08717 371.944 4.07617 371.873V371.84C4.06417 371.775 4.06564 371.747 4.05664 371.676C4.05722 371.661 4.05533 371.647 4.05078 371.632C4.04478 371.583 4.0372 371.533 4.0332 371.479C4.0332 371.462 4.02734 371.446 4.02734 371.43C4.02134 371.381 4.01577 371.342 4.00977 371.287C4.00977 371.265 4.00977 371.243 4.00977 371.227C4.00377 371.172 3.99819 371.144 3.99219 371.096C3.99219 371.074 3.98633 371.047 3.98633 371.025C3.98105 370.998 3.97794 370.97 3.97656 370.942C3.94956 370.723 3.92544 370.504 3.89844 370.285V370.269L3.81641 369.529L5.50977 369.343C5.95277 373.27 6.4418 377.243 6.9668 381.158L5.2793 381.388C5.11996 380.224 4.96636 379.061 4.81836 377.897L4.81445 377.893ZM1046.14 361.164C1046.52 357.231 1046.86 353.238 1047.15 349.294L1048.85 349.42C1048.8 350.132 1048.75 350.85 1048.69 351.562V351.573C1048.68 351.644 1048.68 351.682 1048.68 351.754C1048.68 351.768 1048.68 351.781 1048.67 351.793C1048.67 351.85 1048.67 351.907 1048.66 351.963C1048.66 351.974 1048.66 351.985 1048.66 351.996C1048.66 352.067 1048.65 352.096 1048.65 352.171V352.198C1048.63 352.335 1048.63 352.461 1048.61 352.598C1048.61 352.625 1048.61 352.647 1048.61 352.669C1048.61 352.724 1048.61 352.746 1048.6 352.795C1048.6 352.828 1048.59 352.855 1048.59 352.882C1048.59 352.909 1048.59 352.959 1048.58 352.992C1048.57 353.025 1048.58 353.052 1048.58 353.085C1048.58 353.118 1048.57 353.156 1048.57 353.185C1048.56 353.214 1048.56 353.251 1048.56 353.285C1048.56 353.318 1048.56 353.352 1048.56 353.385C1048.55 353.418 1048.55 353.452 1048.55 353.485C1048.54 353.516 1048.54 353.547 1048.54 353.578C1048.53 353.616 1048.53 353.649 1048.53 353.678C1048.53 353.712 1048.52 353.745 1048.52 353.778C1048.52 353.812 1048.52 353.845 1048.51 353.878C1048.51 353.927 1048.51 353.944 1048.5 353.993C1048.5 354.021 1048.5 354.048 1048.49 354.075C1048.49 354.14 1048.48 354.196 1048.48 354.266C1048.48 354.287 1048.48 354.307 1048.47 354.327C1048.47 354.382 1048.47 354.414 1048.46 354.469C1048.46 354.49 1048.46 354.51 1048.46 354.53C1048.45 354.576 1048.45 354.622 1048.44 354.667C1048.44 354.69 1048.44 354.712 1048.44 354.733C1048.44 354.788 1048.44 354.82 1048.43 354.87C1048.43 354.891 1048.43 354.911 1048.42 354.931C1048.42 354.979 1048.42 355.026 1048.41 355.073C1048.41 355.095 1048.41 355.112 1048.41 355.134C1048.4 355.185 1048.4 355.236 1048.4 355.287C1048.4 355.298 1048.39 355.314 1048.39 355.326C1048.39 355.397 1048.38 355.435 1048.38 355.507V355.529C1048.21 357.468 1048.04 359.39 1047.86 361.324L1046.14 361.164ZM0.96875 332.105L2.66992 332.034C2.82792 335.983 3.03525 339.988 3.28125 343.926L1.58203 344.035C1.34003 340.069 1.13066 336.103 0.972656 332.11L0.96875 332.105ZM1048.4 323.812C1048.5 319.868 1048.55 315.864 1048.56 311.912L1050.26 311.917V313.357C1050.26 313.396 1050.26 313.445 1050.26 313.478V314.272C1050.26 314.3 1050.26 314.327 1050.26 314.354V314.869C1050.25 314.896 1050.25 314.924 1050.25 314.952V315.478C1050.24 315.653 1050.24 315.823 1050.24 315.998V316.037C1050.24 316.085 1050.24 316.132 1050.24 316.179V316.623C1050.24 316.667 1050.23 316.716 1050.23 316.76V316.99C1050.23 317.16 1050.23 317.324 1050.22 317.49V317.846C1050.22 317.872 1050.22 317.898 1050.21 317.923V318.312C1050.21 318.354 1050.21 318.396 1050.21 318.438V318.679C1050.2 318.789 1050.2 318.893 1050.2 318.997V319.013C1050.2 319.057 1050.2 319.096 1050.2 319.139V319.325C1050.2 319.354 1050.2 319.383 1050.2 319.412V319.612C1050.2 319.651 1050.2 319.689 1050.19 319.727V320.006C1050.19 320.044 1050.18 320.083 1050.19 320.121V320.214C1050.19 320.351 1050.18 320.483 1050.18 320.619C1050.18 320.636 1050.17 320.685 1050.17 320.702V320.811C1050.17 320.833 1050.17 320.882 1050.17 320.899V321.099C1050.17 321.138 1050.17 321.176 1050.17 321.214V321.414C1050.17 321.43 1050.16 321.479 1050.16 321.496V321.696C1050.16 321.735 1050.15 321.773 1050.15 321.806V321.877C1050.15 321.965 1050.15 322.058 1050.15 322.146V322.19C1050.15 322.228 1050.15 322.272 1050.15 322.311V322.388C1050.15 322.427 1050.15 322.465 1050.14 322.503V322.703C1050.14 322.728 1050.14 322.754 1050.14 322.78V322.972C1050.13 323.014 1050.13 323.056 1050.13 323.098V323.158C1050.13 323.207 1050.12 323.251 1050.12 323.301V323.318C1050.12 323.493 1050.12 323.674 1050.12 323.855V323.86L1048.4 323.812ZM0.546875 306.497C0.552875 305.664 0.562219 304.831 0.574219 303.997V303.805C0.573012 303.785 0.574897 303.765 0.580078 303.745V303.328C0.584815 303.297 0.586683 303.266 0.585938 303.235C0.585938 303.082 0.585938 302.924 0.585938 302.771V302.753C0.585019 302.695 0.586881 302.636 0.591797 302.578V302.378C0.61313 300.834 0.644214 299.289 0.685547 297.744V297.569C0.691547 297.536 0.685406 297.536 0.691406 297.504V297.296C0.693103 297.263 0.693103 297.23 0.691406 297.196C0.691406 297.163 0.697266 297.119 0.697266 297.081V296.999C0.718266 296.172 0.742672 295.388 0.763672 294.562L2.47266 294.611C2.35166 298.555 2.27305 302.565 2.24805 306.511L0.546875 306.497ZM1047.34 274.508L1049.04 274.393C1049.31 278.358 1049.53 282.333 1049.71 286.317L1048.01 286.394C1047.84 282.449 1047.61 278.451 1047.34 274.512L1047.34 274.508ZM2.15234 268.998C2.26134 267.667 2.37133 266.309 2.48633 264.977C2.48633 264.906 2.49791 264.84 2.50391 264.769C2.53091 264.49 2.55122 264.227 2.57422 263.948C2.57611 263.932 2.57611 263.916 2.57422 263.899C2.58091 263.852 2.58658 263.804 2.58789 263.756C2.59389 263.729 2.59361 263.707 2.59961 263.679C2.60024 263.639 2.60335 263.598 2.60938 263.558C2.60938 263.531 2.61523 263.503 2.61523 263.471C2.61523 263.439 2.62095 263.4 2.62695 263.361C2.63295 263.322 2.62695 263.301 2.62695 263.274C2.62695 263.247 2.63267 263.203 2.63867 263.174C2.64467 263.145 2.64453 263.108 2.64453 263.081C2.65049 263.045 2.6536 263.009 2.6543 262.972C2.6603 262.944 2.66197 262.911 2.66797 262.884C2.67397 262.857 2.67383 262.813 2.67383 262.784C2.67383 262.755 2.67959 262.718 2.68359 262.684C2.68759 262.65 2.68931 262.618 2.69531 262.584C2.70131 262.518 2.70694 262.458 2.71094 262.398C2.71094 262.365 2.7168 262.337 2.7168 262.298C2.72398 262.262 2.72771 262.225 2.72852 262.188C2.72852 262.172 2.73438 262.123 2.73438 262.106C2.73438 262.068 2.74595 262.035 2.75195 261.997C2.75195 261.98 2.75781 261.926 2.75781 261.909C2.75864 261.873 2.76238 261.836 2.76953 261.8C2.77138 261.771 2.77138 261.742 2.76953 261.712C2.77553 261.679 2.77525 261.641 2.78125 261.612C2.786 261.582 2.78787 261.55 2.78711 261.519C2.79292 261.486 2.79603 261.453 2.79688 261.419C2.80288 261.386 2.80259 261.354 2.80859 261.319C2.81459 261.284 2.81445 261.254 2.81445 261.226C2.82022 261.193 2.82333 261.16 2.82422 261.126C2.83022 261.093 2.83189 261.06 2.83789 261.026C2.84389 260.977 2.84361 260.949 2.84961 260.9C2.85156 260.878 2.85156 260.856 2.84961 260.834C2.86161 260.768 2.86009 260.708 2.87109 260.634V260.618C2.87109 260.547 2.88267 260.503 2.88867 260.431C2.88867 260.42 2.89453 260.409 2.89453 260.398C2.90053 260.349 2.90416 260.283 2.91016 260.233V260.189C2.91616 260.134 2.92173 260.074 2.92773 260.025C2.92579 260.014 2.92579 260.003 2.92773 259.992C2.93373 259.921 2.93931 259.882 2.94531 259.811V259.795C3.03331 258.895 3.12284 258.009 3.21484 257.116L4.90625 257.286C4.51125 261.213 4.1517 265.207 3.8457 269.146L2.15234 268.998ZM1043.47 237.298L1045.16 237.063C1045.41 238.797 1045.64 240.535 1045.86 242.277V242.283C1045.88 242.354 1045.88 242.403 1045.89 242.474C1045.89 242.485 1045.89 242.496 1045.9 242.501C1045.9 242.572 1045.91 242.601 1045.92 242.671V242.71C1045.93 242.781 1045.93 242.803 1045.94 242.874C1045.94 242.886 1045.95 242.9 1045.95 242.913C1045.96 242.984 1045.96 243.013 1045.97 243.077C1045.97 243.088 1045.97 243.099 1045.97 243.11C1045.98 243.181 1045.98 243.219 1045.99 243.285C1045.99 243.295 1045.99 243.304 1046 243.312C1046.03 243.587 1046.07 243.849 1046.1 244.123C1046.1 244.128 1046.11 244.134 1046.11 244.14C1046.11 244.201 1046.12 244.262 1046.13 244.321V244.348C1046.14 244.419 1046.14 244.457 1046.15 244.529V244.551C1046.16 244.617 1046.17 244.666 1046.17 244.732C1046.17 244.737 1046.18 244.743 1046.18 244.749C1046.19 244.82 1046.2 244.875 1046.2 244.94V244.951C1046.37 246.271 1046.53 247.591 1046.68 248.911L1044.98 249.111C1044.53 245.185 1044.02 241.209 1043.48 237.297L1043.47 237.298ZM6.41797 231.716C6.80697 229.116 7.21839 226.516 7.65039 223.927C7.66239 223.856 7.66859 223.806 7.68359 223.74C7.68359 223.724 7.68945 223.707 7.68945 223.691C7.69545 223.658 7.70594 223.582 7.71094 223.549C7.71819 223.526 7.72194 223.502 7.72266 223.478C7.72866 223.445 7.73719 223.401 7.74219 223.368C7.74719 223.335 7.75577 223.303 7.75977 223.268C7.76377 223.233 7.77134 223.213 7.77734 223.181C7.78334 223.149 7.78697 223.11 7.79297 223.072C7.79897 223.055 7.79869 223.023 7.80469 223.006C7.81069 222.962 7.82117 222.919 7.82617 222.875L7.83203 222.836C7.99603 221.867 8.16003 220.897 8.33203 219.927L10.0137 220.218C9.33367 224.107 8.69342 228.062 8.10742 231.968L6.41797 231.716ZM1036.95 200.461L1038.62 200.105C1038.77 200.805 1038.92 201.48 1039.06 202.175C1039.07 202.182 1039.07 202.189 1039.07 202.197C1039.08 202.263 1039.09 202.297 1039.11 202.362C1039.11 202.378 1039.11 202.395 1039.11 202.411C1039.12 202.454 1039.13 202.498 1039.14 202.542C1039.14 202.569 1039.15 202.591 1039.16 202.613C1039.16 202.635 1039.17 202.69 1039.18 202.722C1039.19 202.753 1039.19 202.784 1039.2 202.815C1039.2 202.845 1039.21 202.874 1039.21 202.902C1039.22 202.935 1039.23 202.973 1039.24 203.002C1039.24 203.02 1039.25 203.038 1039.25 203.057C1039.86 205.966 1040.44 208.882 1040.99 211.805L1039.31 212.123C1038.58 208.25 1037.79 204.322 1036.96 200.461H1036.95ZM13.3359 194.825C13.5359 193.925 13.7481 193.017 13.9551 192.108C13.9611 192.092 13.9549 192.103 13.9609 192.087C13.9729 192.038 13.9821 191.994 13.9941 191.944C14.0009 191.927 14.0047 191.908 14.0059 191.889C14.0159 191.845 14.0272 191.806 14.0332 191.763C14.0403 191.742 14.0453 191.72 14.0488 191.697C14.0606 191.66 14.07 191.621 14.0762 191.582C14.0882 191.549 14.0887 191.533 14.0977 191.499C14.1067 191.465 14.1141 191.428 14.1191 191.399C14.1241 191.37 14.1356 191.334 14.1406 191.306C14.1495 191.276 14.157 191.245 14.1621 191.213C14.1681 191.18 14.1835 191.125 14.1895 191.092C14.1955 191.059 14.2011 191.048 14.2051 191.026C14.2231 190.961 14.2281 190.933 14.2441 190.867C14.2441 190.856 14.25 190.85 14.25 190.84C14.65 189.12 15.0606 187.411 15.4766 185.702V185.691C15.4926 185.63 15.5035 185.576 15.5195 185.51C15.5255 185.499 15.5253 185.488 15.5312 185.483C15.5433 185.417 15.5525 185.395 15.5645 185.329C15.5705 185.308 15.5761 185.286 15.5801 185.269C15.5921 185.236 15.6033 185.176 15.6133 185.143C15.6233 185.11 15.6268 185.094 15.6328 185.066C15.6388 185.038 15.6472 184.995 15.6582 184.966C15.6692 184.937 15.6747 184.9 15.6797 184.873C15.6839 184.843 15.6915 184.814 15.7012 184.786C15.708 184.749 15.7174 184.712 15.7285 184.676C15.7285 184.66 15.7402 184.633 15.7402 184.616C15.8592 184.15 15.9738 183.679 16.0898 183.216L17.7441 183.627C16.7911 187.461 15.865 191.356 15 195.212L13.3359 194.825ZM1027.81 164.183L1029.45 163.706C1029.69 164.544 1029.93 165.377 1030.17 166.215C1030.17 166.215 1030.17 166.21 1030.17 166.221C1030.19 166.276 1030.21 166.336 1030.22 166.396V166.401C1030.24 166.456 1030.26 166.51 1030.27 166.565V166.587C1030.29 166.642 1030.31 166.697 1030.32 166.752C1030.32 166.752 1030.32 166.747 1030.32 166.757C1030.48 167.294 1030.62 167.825 1030.77 168.357V168.368C1030.79 168.423 1030.81 168.483 1030.82 168.538C1030.82 168.538 1030.82 168.538 1030.82 168.544C1030.84 168.599 1030.86 168.653 1030.87 168.703L1030.88 168.736C1030.89 168.785 1030.91 168.836 1030.92 168.889L1030.93 168.911C1030.94 168.966 1030.95 169.011 1030.97 169.07C1030.98 169.079 1030.98 169.088 1030.98 169.098C1030.99 169.153 1031.01 169.198 1031.03 169.257V169.268C1031.04 169.323 1031.06 169.383 1031.08 169.438V169.443L1031.37 170.517L1031.38 170.522C1031.39 170.577 1031.41 170.633 1031.42 170.688L1031.43 170.703C1031.44 170.757 1031.45 170.81 1031.47 170.862C1031.47 170.873 1031.47 170.885 1031.47 170.896C1031.49 170.945 1031.51 170.996 1031.52 171.048L1031.52 171.07C1031.54 171.125 1031.55 171.17 1031.57 171.229C1031.57 171.246 1031.57 171.24 1031.57 171.256C1031.59 171.305 1031.61 171.356 1031.62 171.415V171.431C1031.64 171.486 1031.65 171.541 1031.67 171.596V171.613C1031.77 171.969 1031.87 172.325 1031.97 172.681C1031.98 172.736 1032 172.791 1032.01 172.846L1032.02 172.868C1032.03 172.917 1032.05 172.968 1032.06 173.016C1032.06 173.029 1032.07 173.041 1032.07 173.054C1032.08 173.103 1032.1 173.154 1032.11 173.202C1032.11 173.219 1032.11 173.224 1032.12 173.24C1032.13 173.284 1032.15 173.328 1032.16 173.377C1032.16 173.397 1032.17 173.415 1032.17 173.432C1032.18 173.476 1032.2 173.52 1032.21 173.558C1032.21 173.575 1032.22 173.602 1032.22 173.619C1032.23 173.662 1032.24 173.701 1032.26 173.739C1032.26 173.762 1032.27 173.786 1032.27 173.81C1032.28 173.849 1032.29 173.892 1032.3 173.931C1032.31 173.952 1032.32 173.974 1032.32 173.997C1032.33 174.035 1032.34 174.074 1032.35 174.112C1032.36 174.129 1032.37 174.167 1032.38 174.183C1032.39 174.221 1032.39 174.265 1032.41 174.304C1032.42 174.343 1032.41 174.326 1032.42 174.359C1032.46 174.496 1032.49 174.628 1032.53 174.764C1032.54 174.796 1032.55 174.827 1032.56 174.857C1032.56 174.884 1032.57 174.912 1032.57 174.934C1032.59 174.983 1032.59 174.999 1032.61 175.049L1032.62 175.115C1032.63 175.146 1032.64 175.177 1032.64 175.208L1031 175.646C1029.99 171.835 1028.92 167.979 1027.81 164.182L1027.81 164.183ZM22.8906 158.53C22.9496 158.339 22.9995 158.163 23.0605 157.971C23.0605 157.949 23.077 157.927 23.082 157.905C23.087 157.883 23.1032 157.823 23.1152 157.79C23.1272 157.757 23.1365 157.719 23.1465 157.681C23.1525 157.664 23.1649 157.632 23.1699 157.62C23.1799 157.571 23.1951 157.527 23.2051 157.483C23.2118 157.47 23.2175 157.455 23.2188 157.439C23.2348 157.39 23.2516 157.339 23.2676 157.286L23.2734 157.269L23.3223 157.099L23.3281 157.094C23.9948 154.898 24.6776 152.709 25.377 150.527C25.3812 150.517 25.3843 150.505 25.3867 150.494C25.4047 150.456 25.4136 150.412 25.4316 150.374C25.4359 150.348 25.4434 150.322 25.4531 150.297C25.4655 150.267 25.4749 150.236 25.4805 150.204C25.4939 150.172 25.5051 150.139 25.5137 150.104C25.5233 150.083 25.5289 150.061 25.5332 150.038C25.5452 150.005 25.5661 149.938 25.5781 149.901C25.5825 149.886 25.5894 149.872 25.5957 149.857C25.8867 148.948 26.1815 148.049 26.4785 147.14L28.0996 147.671C26.8676 151.423 25.6655 155.246 24.5215 159.026L22.8906 158.53ZM1016.07 128.667L1017.67 128.066C1017.91 128.707 1018.14 129.348 1018.38 129.983L1018.39 129.999C1018.41 130.054 1018.42 130.099 1018.44 130.152L1018.46 130.196C1018.48 130.24 1018.49 130.278 1018.51 130.322C1018.51 130.339 1018.52 130.377 1018.53 130.393C1018.54 130.425 1018.56 130.459 1018.57 130.493C1018.58 130.526 1018.6 130.57 1018.61 130.602C1018.62 130.634 1018.63 130.646 1018.63 130.668C1019.64 133.429 1020.62 136.189 1021.59 138.978C1021.59 138.983 1021.59 138.995 1021.59 139C1021.61 139.066 1021.62 139.093 1021.64 139.159C1021.65 139.18 1021.66 139.202 1021.66 139.225C1021.67 139.253 1021.68 139.281 1021.7 139.307L1020.08 139.866C1018.8 136.137 1017.45 132.37 1016.08 128.667H1016.07ZM35.0332 123.013C35.0542 122.958 35.0786 122.904 35.0996 122.843V122.838C35.0996 122.843 35.0995 122.843 35.1055 122.838C35.1224 122.782 35.1443 122.727 35.168 122.673V122.657C35.1926 122.606 35.2126 122.553 35.2285 122.498L35.2344 122.482C35.2574 122.43 35.2773 122.377 35.2949 122.323L35.3047 122.307C35.3277 122.252 35.3432 122.197 35.3652 122.148V122.143L35.3711 122.138C35.3921 122.083 35.4105 122.023 35.4375 121.968C36.7302 118.6 38.061 115.247 39.4297 111.911L41.0078 112.557C39.5078 116.21 38.039 119.935 36.625 123.627L35.0332 123.013ZM1001.81 94.0801L1003.37 93.373L1003.38 93.3892C1003.39 93.4379 1003.41 93.4857 1003.44 93.5322C1003.45 93.5492 1003.44 93.5372 1003.45 93.5542C1004.19 95.1862 1004.93 96.8258 1005.66 98.4731V98.478C1005.68 98.538 1005.71 98.5934 1005.73 98.6484C1005.76 98.7034 1005.78 98.7634 1005.8 98.8174H1005.81C1006.61 100.641 1007.4 102.469 1008.19 104.3L1006.62 104.968C1005.07 101.338 1003.45 97.6741 1001.81 94.0801H1001.81ZM49.7031 88.4653L49.7148 88.4482C49.7328 88.4102 49.7476 88.3715 49.7656 88.3335C49.7756 88.3165 49.787 88.2844 49.793 88.2734C49.814 88.2344 49.8297 88.2021 49.8477 88.1631C49.8565 88.1385 49.8678 88.1149 49.8809 88.0923C49.897 88.0597 49.9113 88.0263 49.9238 87.9922C49.9398 87.9652 49.9449 87.943 49.9629 87.915C49.9809 87.887 49.9899 87.8553 50.0059 87.8223C50.0219 87.7893 50.0329 87.7674 50.0449 87.7344C50.0569 87.7014 50.0719 87.6795 50.0879 87.6475L50.127 87.5591C50.143 87.5321 50.1539 87.5041 50.1699 87.4771C50.1859 87.4501 50.195 87.4113 50.207 87.3843C50.219 87.3573 50.236 87.3292 50.252 87.3022C50.268 87.2752 50.2848 87.2254 50.3008 87.1934C50.3168 87.1614 50.3172 87.1543 50.3262 87.1323C50.3492 87.0883 50.3667 87.0455 50.3887 87.0015C50.3986 86.9881 50.4048 86.9728 50.4102 86.957C50.5232 86.716 50.6351 86.4861 50.7441 86.2451V86.2402C50.7771 86.1792 50.7992 86.1254 50.8262 86.0654C50.8322 86.0654 50.832 86.0592 50.832 86.0542C50.865 85.9942 50.8832 85.9541 50.9102 85.8901C50.915 85.8836 50.9201 85.8761 50.9219 85.8682C50.9549 85.8072 50.9691 85.7685 50.9961 85.7095C50.9983 85.7075 51.0009 85.7049 51.002 85.7021C51.003 85.6994 51.0042 85.6963 51.0039 85.6934C51.0326 85.6417 51.0568 85.5885 51.0801 85.5342C51.0849 85.528 51.0901 85.5208 51.0918 85.5132C51.1188 85.4522 51.141 85.4135 51.168 85.3545C51.1701 85.3525 51.1708 85.3499 51.1719 85.3472C51.1729 85.3444 51.1741 85.3413 51.1738 85.3384C51.2068 85.2774 51.221 85.2382 51.248 85.1792C51.254 85.1682 51.2617 85.1632 51.2617 85.1572C51.2887 85.0972 51.3167 85.0483 51.3438 84.9883C51.3708 84.9283 51.3988 84.8735 51.4258 84.8135C51.4258 84.8119 51.4247 84.8102 51.4258 84.8091C51.4269 84.808 51.43 84.8071 51.4316 84.8071C51.7166 84.2071 52.0001 83.6131 52.2891 83.0161V83.0112C52.3161 82.9502 52.3441 82.8964 52.3711 82.8364C52.3711 82.8364 52.3789 82.8361 52.3789 82.8311C52.4059 82.7761 52.4339 82.7211 52.4609 82.6611C52.4609 82.6561 52.4608 82.6564 52.4668 82.6504C52.4938 82.5904 52.5158 82.5414 52.5488 82.4814V82.4761C52.5818 82.4151 52.6039 82.3661 52.6309 82.3062C52.6309 82.3012 52.6367 82.2951 52.6367 82.2891C52.6697 82.2291 52.6917 82.1895 52.7188 82.1255C52.7219 82.1226 52.7238 82.1185 52.7246 82.1143C52.7516 82.0543 52.7796 82.0053 52.8066 81.9443C52.8066 81.9436 52.8063 81.9426 52.8066 81.9419C52.807 81.9412 52.808 81.9409 52.8086 81.9404C52.8092 81.9399 52.8098 81.9396 52.8105 81.9395C52.8113 81.9393 52.8118 81.9393 52.8125 81.9395C52.8675 81.8185 52.9214 81.7094 52.9824 81.5884V81.5835C53.1014 81.3425 53.2112 81.1121 53.3262 80.8711C53.3382 80.8541 53.3445 80.8383 53.3535 80.8223C53.3715 80.7783 53.3921 80.7452 53.4141 80.7012C53.4211 80.6774 53.4324 80.6551 53.4473 80.6353C53.4683 80.5913 53.4741 80.5752 53.4961 80.5352C53.5081 80.5082 53.5232 80.4801 53.5352 80.4531C53.5472 80.4261 53.5621 80.3922 53.5781 80.3652C53.5941 80.3382 53.6109 80.2941 53.6289 80.2651C53.6289 80.2541 53.6502 80.2211 53.6562 80.2051C53.6782 80.1659 53.6975 80.1259 53.7148 80.0845C53.7248 80.0693 53.733 80.0525 53.7383 80.0352C53.7593 79.9962 53.7817 79.9532 53.8027 79.9092L53.8203 79.8701C53.8413 79.8271 53.8636 79.7774 53.8906 79.7334L53.9023 79.7061C53.9293 79.6571 53.9515 79.6061 53.9785 79.5581V79.5474C54.2785 78.9394 54.5789 78.3254 54.8789 77.7124L56.4102 78.4731C54.6522 82.0121 52.9162 85.6212 51.2402 89.1982L49.7031 88.4653ZM985.1 60.6064L986.6 59.79C986.983 60.49 987.367 61.1983 987.744 61.9043L987.756 61.9263C987.777 61.9653 987.798 62.0031 987.816 62.0361C987.826 62.0521 987.844 62.0851 987.854 62.1011C987.871 62.1309 987.886 62.1623 987.898 62.1943C987.908 62.2053 987.935 62.2604 987.947 62.2764C987.959 62.2924 987.974 62.325 987.986 62.353C987.998 62.381 988.025 62.4193 988.043 62.4463C988.053 62.473 988.063 62.499 988.078 62.5234C988.098 62.5557 988.118 62.5887 988.135 62.623C988.147 62.645 988.158 62.6675 988.168 62.6895C988.19 62.7247 988.21 62.761 988.229 62.7983C988.241 62.8177 988.252 62.8378 988.262 62.8584C988.278 62.8854 988.304 62.9411 988.322 62.9731C988.332 62.9901 988.339 63.0065 988.35 63.0225C988.361 63.0385 988.397 63.1151 988.412 63.1431C988.422 63.1589 988.431 63.1756 988.439 63.1924C988.462 63.2354 988.485 63.2792 988.506 63.3232C988.514 63.3354 988.521 63.3481 988.527 63.3613C988.56 63.4223 988.578 63.4493 988.609 63.5093C988.611 63.5177 988.615 63.5254 988.621 63.5312C989.826 65.7933 991.019 68.0645 992.197 70.3452L990.68 71.123C988.87 67.618 987 64.0734 985.1 60.6064ZM66.8164 55.0571C68.7617 51.5785 70.7431 48.124 72.7598 44.6934L74.2285 45.5581C72.2225 48.9651 70.2346 52.4382 68.3066 55.8892L66.8164 55.0571ZM966.037 28.4194L967.473 27.4932C967.686 27.8272 967.898 28.1562 968.107 28.4932C968.114 28.4999 968.118 28.5073 968.123 28.5151C968.156 28.5701 968.176 28.5925 968.213 28.6465C968.219 28.6626 968.227 28.6775 968.238 28.6904C968.256 28.7174 968.29 28.7722 968.311 28.8052C968.323 28.8285 968.337 28.8505 968.354 28.8711C968.372 28.8973 968.388 28.9247 968.402 28.9531L968.465 29.0464C968.471 29.0574 968.49 29.0901 968.496 29.1011C968.523 29.1401 968.545 29.1783 968.572 29.2163C968.58 29.2266 968.587 29.2374 968.592 29.249L968.674 29.3804L968.689 29.3975C970.423 32.1248 972.13 34.8667 973.811 37.624L972.354 38.5122C970.296 35.1412 968.17 31.7454 966.039 28.4204L966.037 28.4194ZM86.2734 22.9585C87.3361 21.3478 88.402 19.7427 89.4727 18.144V18.1382C89.5057 18.0892 89.5383 18.0451 89.5723 17.9961C89.5783 17.9851 89.5739 17.9915 89.5859 17.9795C89.6169 17.9305 89.6495 17.8794 89.6855 17.8364V17.8252C89.7185 17.7762 89.7572 17.7252 89.7852 17.6772V17.6724C90.8322 16.1274 91.8794 14.5833 92.9414 13.0493L94.3418 14.0181C92.1018 17.2721 89.8603 20.597 87.6953 23.894L86.2734 22.9585ZM946.451 -0.00390625H948.57C949.219 0.880094 949.865 1.76599 950.508 2.65332L950.514 2.6582L950.52 2.66309C950.551 2.71209 950.583 2.75615 950.619 2.80615L950.633 2.81738C950.666 2.86138 950.697 2.90522 950.725 2.94922C950.736 2.95846 950.745 2.96985 950.752 2.98242C950.779 3.02042 950.805 3.05931 950.832 3.09131C950.844 3.10831 950.855 3.12414 950.865 3.14014C950.891 3.17223 950.915 3.20571 950.938 3.24023L950.98 3.29541C951.003 3.33012 951.027 3.36361 951.053 3.39551C951.063 3.40651 951.08 3.4392 951.09 3.4502C951.116 3.48201 951.14 3.5155 951.162 3.55029C951.172 3.56129 951.199 3.60523 951.211 3.61523C951.232 3.64223 951.25 3.67027 951.271 3.69727C951.293 3.72427 951.308 3.75227 951.326 3.78027C951.346 3.80298 951.366 3.82647 951.383 3.85107C951.41 3.89407 951.415 3.90048 951.443 3.93848C951.463 3.96118 951.481 3.98468 951.498 4.00928C951.514 4.03631 951.532 4.0622 951.553 4.08643C951.569 4.11343 951.589 4.14146 951.607 4.16846L951.656 4.22949C951.75 4.35549 951.839 4.48616 951.936 4.61816L951.941 4.62939L952.023 4.74414C952.035 4.75479 952.045 4.76823 952.051 4.7832C952.078 4.81515 952.103 4.84863 952.127 4.8833C952.139 4.90056 952.152 4.91676 952.166 4.93213C952.187 4.96513 952.209 4.99723 952.232 5.03223C952.242 5.04823 952.263 5.07528 952.275 5.09229C952.304 5.12631 952.329 5.16267 952.352 5.20117C952.364 5.21217 952.375 5.22923 952.385 5.24023C952.412 5.28423 952.44 5.32221 952.473 5.36621C952.477 5.37436 952.482 5.38177 952.488 5.38818C952.521 5.43718 952.554 5.48139 952.588 5.52539C952.6 5.54239 952.588 5.52548 952.594 5.54248C952.631 5.58648 952.663 5.6352 952.693 5.6792L952.699 5.69043C952.842 5.89043 952.99 6.09504 953.133 6.29004L951.74 7.28125C950.009 4.85625 948.238 2.41107 946.453 -0.00292969L946.451 -0.00390625Z" fill="white"/>
</svg>
