<svg width="28" height="28" viewBox="0 0 28 28" fill="none" xmlns="http://www.w3.org/2000/svg">
<path opacity="0.4" fill-rule="evenodd" clip-rule="evenodd" d="M11.2981 0.0339966C9.51612 0.170965 7.79023 0.719567 6.25623 1.63664C4.72222 2.55371 3.42194 3.81423 2.4577 5.31903C1.49345 6.82383 0.891541 8.53186 0.699325 10.3087C0.507109 12.0856 0.729831 13.8828 1.34997 15.559C1.9701 17.2352 2.97073 18.7446 4.27314 19.9685C5.57554 21.1924 7.14418 22.0974 8.85564 22.6123C10.5671 23.1272 12.3747 23.2379 14.1362 22.9358C15.8977 22.6336 17.5651 21.9268 19.0071 20.871L19.6501 20.386L22.9631 23.698C26.1701 26.904 26.2871 27.01 26.6181 27.019C26.8217 27.0302 27.0235 26.9763 27.1945 26.8652C27.3654 26.7542 27.4966 26.5916 27.5691 26.401C27.8241 25.791 27.7871 25.744 24.2691 22.232L21.0271 18.992L21.4441 18.441C27.3661 10.616 21.1231 -0.706 11.2941 0.0349998M13.7151 2.153C15.4501 2.43654 17.0729 3.19412 18.4044 4.34207C19.7359 5.49002 20.7241 6.98366 21.26 8.658C21.7959 10.3323 21.8586 12.1222 21.4411 13.8299C21.0236 15.5377 20.1422 17.0968 18.8943 18.335C17.6464 19.5733 16.0805 20.4425 14.3695 20.8467C12.6586 21.2508 10.8693 21.1742 9.19917 20.6253C7.52905 20.0764 6.04315 19.0766 4.9056 17.7362C3.76805 16.3959 3.02312 14.7671 2.75309 13.03C2.52692 11.5418 2.65533 10.0212 3.12788 8.592C3.60043 7.16279 4.40377 5.86536 5.47251 4.8053C6.54124 3.74524 7.84518 2.9525 9.27819 2.49161C10.7112 2.03072 12.2328 1.91471 13.7191 2.153" fill="black"/>
</svg>
