<svg width="44" height="44" viewBox="0 0 44 44" fill="none" xmlns="http://www.w3.org/2000/svg">
<path fill-rule="evenodd" clip-rule="evenodd" d="M19.7122 0.0719988C14.4342 0.587269 9.52421 3.006 5.89907 6.87652C2.27394 10.747 0.181523 15.8047 0.0125579 21.1051C-0.156407 26.4055 1.60963 31.5861 4.98089 35.6797C8.35215 39.7733 13.0981 42.4998 18.3326 43.3502C23.567 44.2006 28.932 43.1166 33.4258 40.3008C37.9195 37.485 41.2347 33.1298 42.7524 28.0486C44.27 22.9673 43.8863 17.5073 41.6728 12.6883C39.4594 7.86924 35.5676 4.02058 30.7242 1.861C27.2494 0.392551 23.4731 -0.220946 19.7122 0.0719988ZM23.5402 6.788C25.106 7.16664 26.4983 8.06271 27.4915 9.33113C28.4846 10.5995 29.0206 12.1661 29.0126 13.777C29.0047 15.388 28.4532 16.9491 27.4475 18.2076C26.4418 19.4662 25.0407 20.3484 23.4712 20.7115C21.9017 21.0746 20.2555 20.8973 18.7993 20.2084C17.343 19.5194 16.162 18.3591 15.4473 16.9154C14.7326 15.4716 14.5261 13.8288 14.8613 12.2531C15.1965 10.6774 16.0537 9.26088 17.2942 8.233C18.15 7.52227 19.1601 7.02147 20.2439 6.77057C21.3277 6.51968 22.4551 6.52565 23.5362 6.788M27.2812 24.61C32.1692 25.403 35.1542 31.651 31.8902 34.255C29.0669 36.54 25.5489 37.7944 21.9168 37.8111C18.2847 37.8278 14.7554 36.6059 11.9112 34.347C11.2885 33.9236 10.8182 33.3115 10.5696 32.6008C10.3209 31.89 10.3071 31.1182 10.5302 30.399C10.8207 28.9692 11.5269 27.6571 12.5604 26.6272C13.5938 25.5973 14.9084 24.8956 16.3392 24.61C16.9892 24.501 26.6172 24.498 27.2812 24.61Z" fill="black"/>
</svg>
