<svg width="50" height="50" viewBox="0 0 50 50" fill="none" xmlns="http://www.w3.org/2000/svg">
<path fill-rule="evenodd" clip-rule="evenodd" d="M22.1087 0.209759C2.02573 2.82676 -6.50327 27.2828 7.61973 41.7778C20.6327 55.1338 43.3737 49.6258 48.7597 31.8148C53.9187 14.7528 39.7197 -2.08524 22.1087 0.209759ZM17.4857 9.78776C18.2067 12.5138 18.4437 13.3108 18.5097 13.2348C18.5467 13.1918 18.8507 12.0888 19.1857 10.7828L19.7957 8.40876H21.5567L20.4657 12.0208L19.3747 15.6308V20.7848H17.5647L17.5257 17.9298L17.4907 15.0758L17.0907 13.7758C16.8697 13.0638 16.3717 11.5638 15.9837 10.4418L15.2837 8.40376H17.1257L17.4907 9.78276M24.7987 11.5828C25.39 11.7781 25.8871 12.1871 26.1927 12.7298C26.7207 13.7658 26.7247 18.5868 26.1977 19.6108C25.9751 20.0163 25.6385 20.3479 25.2296 20.5644C24.8207 20.7809 24.3573 20.8729 23.8967 20.8291C23.4361 20.7852 22.9984 20.6075 22.6377 20.3178C22.2769 20.0281 22.0089 19.6391 21.8667 19.1988C21.6513 17.1555 21.6617 15.0947 21.8977 13.0538C22.1032 12.4856 22.5175 12.0171 23.0563 11.7438C23.5952 11.4705 24.2189 11.4129 24.7987 11.5828ZM29.5467 15.2118C29.5467 17.3688 29.5857 18.9518 29.6417 19.0988C29.8257 19.5838 30.3547 19.5328 30.8587 18.9818L31.1777 18.6328V11.5748H32.7127V20.7838H31.1737V20.2558C31.1737 19.6208 31.1657 19.6198 30.6057 20.1438C29.5277 21.1518 28.3557 21.0628 28.0987 19.9538C28.0517 19.7538 28.0117 17.7828 28.0107 15.5798V11.5798H29.5457V15.2188M23.5817 13.1008L23.3557 13.2838L23.3277 15.9538C23.3117 17.4228 23.3277 18.7228 23.3537 18.8428C23.3825 18.9749 23.4465 19.0969 23.5389 19.1956C23.6313 19.2944 23.7486 19.3664 23.8786 19.4039C24.0085 19.4414 24.1462 19.4431 24.277 19.4087C24.4079 19.3744 24.527 19.3053 24.6217 19.2088L24.8907 18.9778L24.9197 16.4508C24.9517 13.7038 24.9257 13.3838 24.6447 13.1038C24.4922 12.9869 24.3054 12.9236 24.1132 12.9236C23.9211 12.9236 23.7343 12.9869 23.5817 13.1038M32.4697 21.9398C38.3197 22.3138 38.7137 22.8398 38.8187 30.4148C38.9187 37.3278 38.4707 39.1778 36.4927 40.1148C34.4727 41.0708 15.9627 41.0628 13.9397 40.1058C12.0057 39.1908 11.6517 37.8358 11.6517 31.3398C11.6517 22.9268 12.0437 22.3228 17.7427 21.9488C19.5097 21.8328 30.6877 21.8268 32.4687 21.9408M13.5257 25.5318V26.4428H15.4447V36.9948H17.3637V26.4428H19.3777V24.6208H13.5257V25.5318ZM25.7057 30.8038V36.9948H27.5257V36.3088L27.9207 36.6468C28.0957 36.8428 28.3187 36.9899 28.5679 37.0734C28.817 37.157 29.0836 37.1741 29.3414 37.1231C29.5992 37.0721 29.8392 36.9548 30.0378 36.7827C30.2363 36.6106 30.3866 36.3897 30.4737 36.1418C30.7518 33.6123 30.7387 31.0593 30.4347 28.5328C29.9757 27.5398 28.8087 27.3948 27.8407 28.2108L27.5307 28.4718L27.5047 26.5718L27.4787 24.6718L26.5917 24.6438L25.7047 24.6158V30.8068M33.3997 27.8658C32.1067 28.3768 31.8927 29.0148 31.8927 32.3448C31.8927 35.7048 32.0647 36.2848 33.2317 36.8558C35.1217 37.7808 36.9317 36.5758 36.9317 34.3898V33.7358H35.1067V34.4118C35.1067 35.3568 34.7427 35.7378 34.1147 35.4518C33.7657 35.2928 33.6577 34.9518 33.5977 33.8098L33.5427 32.7758H36.9507L36.9107 31.1688C36.8377 28.2558 35.5277 27.0228 33.3997 27.8688M19.5717 31.9348C19.5168 33.4278 19.5568 34.9228 19.6917 36.4108C20.0227 37.3558 21.3417 37.3608 22.3247 36.4208L22.6367 36.1208V36.9938H24.3637V27.7858H22.6357V34.8468L22.3237 35.1468C21.3447 36.0888 21.2927 35.9058 21.2927 31.4858V27.7858H19.5667L19.5717 31.9348ZM28.6257 29.4518C28.9377 29.7638 28.9887 30.2978 28.9497 32.8288C28.9097 35.4458 28.7497 35.8288 27.8627 35.4058L27.5227 35.2448L27.5477 32.4028L27.5727 29.5608L27.9087 29.3928C28.3367 29.1788 28.3527 29.1808 28.6237 29.4518M34.7237 29.3688C35.0487 29.5368 35.2017 29.9688 35.2027 30.7358V31.2358H33.6677V30.5088C33.6677 29.4768 34.0787 29.0318 34.7227 29.3648" fill="#95C12B"/>
</svg>
