<svg width="70" height="53" viewBox="0 0 70 53" fill="none" xmlns="http://www.w3.org/2000/svg">
<path d="M34.839 52.26C27.017 52.1399 19.4338 49.5473 13.1755 44.8535C6.91729 40.1596 2.30522 33.6055 0 26.13C2.30522 18.6545 6.91729 12.1004 13.1755 7.40654C19.4338 2.71273 27.017 0.120077 34.839 0C42.6603 0.123225 50.2422 2.71706 56.4999 7.4104C62.7577 12.1037 67.3708 18.6561 69.679 26.13C67.3731 33.6053 62.7606 40.1591 56.5024 44.8528C50.2441 49.5465 42.6609 52.1394 34.839 52.26ZM34.839 8.71C31.3937 8.71 28.0258 9.73164 25.1611 11.6457C22.2964 13.5598 20.0636 16.2804 18.7451 19.4634C17.4266 22.6465 17.0816 26.149 17.7536 29.5281C18.4257 32.9072 20.0847 36.0112 22.5208 38.4474C24.957 40.8837 28.0608 42.5429 31.4399 43.2152C34.819 43.8874 38.3215 43.5426 41.5047 42.2243C44.6878 40.9059 47.4085 38.6733 49.3227 35.8088C51.237 32.9442 52.2588 29.5763 52.259 26.131C52.2593 23.8433 51.8089 21.5779 50.9335 19.4642C50.0582 17.3505 48.7751 15.43 47.1574 13.8123C45.5398 12.1945 43.6194 10.9113 41.5057 10.0358C39.3921 9.16039 37.1267 8.70987 34.839 8.71ZM34.839 34.851C33.6945 34.851 32.5613 34.6256 31.5039 34.1876C30.4466 33.7496 29.4858 33.1077 28.6766 32.2984C27.8673 31.4892 27.2254 30.5284 26.7874 29.4711C26.3494 28.4137 26.124 27.2805 26.124 26.136C26.124 24.9915 26.3494 23.8583 26.7874 22.8009C27.2254 21.7436 27.8673 20.7828 28.6766 19.9736C29.4858 19.1643 30.4466 18.5224 31.5039 18.0844C32.5613 17.6464 33.6945 17.421 34.839 17.421H34.858C37.1698 17.4235 39.3858 18.3443 41.0187 19.9807C42.6516 21.6172 43.5675 23.8352 43.565 26.147C43.5625 28.4588 42.6417 30.6748 41.0053 32.3077C39.3688 33.9406 37.1508 34.8565 34.839 34.854V34.851Z" fill="white"/>
</svg>
