<svg width="19" height="12" viewBox="0 0 19 12" fill="none" xmlns="http://www.w3.org/2000/svg">
<path d="M8.5 10.9589C8.41662 10.8692 8.34628 10.7682 8.29102 10.6589L0.729004 2.52802C0.502873 2.27769 0.377441 1.95227 0.377441 1.61493C0.377441 1.27759 0.502873 0.952412 0.729004 0.702087C0.836107 0.58272 0.967318 0.487171 1.11377 0.421814C1.26022 0.356457 1.41873 0.322693 1.5791 0.322693C1.73948 0.322693 1.89798 0.356457 2.04443 0.421814C2.19089 0.487171 2.32161 0.58272 2.42871 0.702087L5.62891 4.14008L9.39014 8.18304L14.7759 2.39105L16.3472 0.702087C16.4544 0.58286 16.585 0.487325 16.7314 0.422058C16.8779 0.356791 17.0365 0.323181 17.1968 0.323181C17.3571 0.323181 17.5157 0.356791 17.6621 0.422058C17.8085 0.487325 17.9397 0.58286 18.0469 0.702087C18.273 0.952412 18.3984 1.27759 18.3984 1.61493C18.3984 1.95227 18.273 2.27769 18.0469 2.52802L10.4849 10.6589C10.4297 10.7682 10.3593 10.8693 10.2759 10.9589C10.1642 11.0819 10.0272 11.1793 9.87451 11.2446C9.72178 11.3098 9.55713 11.3414 9.39111 11.3371H9.35498C9.19401 11.337 9.03492 11.3033 8.8877 11.2382C8.74047 11.1731 8.60838 11.0779 8.5 10.9589Z" fill="black"/>
</svg>
