<svg width="19" height="12" viewBox="0 0 19 12" fill="none" xmlns="http://www.w3.org/2000/svg">
<path d="M8.12256 10.9589C8.03918 10.8692 7.96884 10.7682 7.91357 10.6589L0.351562 2.52802C0.125431 2.27769 0 1.95227 0 1.61493C0 1.27759 0.125431 0.952412 0.351562 0.702087C0.458666 0.58272 0.589876 0.487171 0.736328 0.421814C0.88278 0.356457 1.04129 0.322693 1.20166 0.322693C1.36203 0.322693 1.52054 0.356457 1.66699 0.421814C1.81344 0.487171 1.94417 0.58272 2.05127 0.702087L5.25146 4.14008L9.0127 8.18304L14.3984 2.39105L15.9697 0.702087C16.0769 0.58286 16.2076 0.487325 16.354 0.422058C16.5004 0.356791 16.659 0.323181 16.8193 0.323181C16.9797 0.323181 17.1382 0.356791 17.2847 0.422058C17.4311 0.487325 17.5622 0.58286 17.6694 0.702087C17.8956 0.952412 18.021 1.27759 18.021 1.61493C18.021 1.95227 17.8956 2.27769 17.6694 2.52802L10.1074 10.6589C10.0522 10.7682 9.98189 10.8693 9.89844 10.9589C9.78677 11.0819 9.6498 11.1793 9.49707 11.2446C9.34434 11.3098 9.17969 11.3414 9.01367 11.3371H8.97754C8.81657 11.337 8.65748 11.3033 8.51025 11.2382C8.36303 11.1731 8.23094 11.0779 8.12256 10.9589Z" fill="black"/>
</svg>
