<svg width="704" height="715" viewBox="0 0 704 715" fill="none" xmlns="http://www.w3.org/2000/svg">
<path opacity="0.2" d="M541.587 712.896C514.936 710.415 490.558 700.284 467.624 687.049C434.213 667.819 403.093 644.859 374.862 618.609C343.662 589.66 315.98 557.817 297.386 518.944C288.5 500.334 282.1 480.898 281.891 460.012C281.891 441.196 288.291 424.862 300.485 410.594C315.773 392.604 335.4 381.434 356.68 372.341C377.641 363.473 399.545 357.022 421.966 353.112C441.592 349.597 461.426 346.703 481.466 344.633C498.82 342.566 516.382 341.946 535.389 340.705C553.777 342.153 573.611 342.981 593.031 345.668C617.616 348.768 640.963 356.007 660.589 371.928C674.226 383.094 683.729 397.155 689.927 413.282C702.736 446.573 705.215 481.105 702.527 516.256C700.461 546.031 694.677 574.979 684.139 602.893C670.917 638.045 652.529 669.474 621.539 692.012C601.427 706.712 579.093 713.565 554.915 713.565C550.532 713.565 546.09 713.342 541.587 712.896ZM79.01 660.169C52.7795 646.773 30.7052 626.468 15.169 601.445C7.525 589.453 1.74 576.634 1.327 561.745C1.327 561.125 0.706 560.504 0.5 559.884V554.095C1.327 549.338 2.153 544.795 3.393 540.242C8.558 521.842 20.128 507.778 33.969 495.579C56.282 475.728 82.314 461.667 109.169 449.262C123.631 442.644 138.3 436.235 153.176 431.062C174.661 423.412 196.562 419.068 219.287 422.17C240.153 425.27 254.822 436.851 259.781 459.183C263.5 475.312 262.466 491.646 258.954 507.774C249.662 552.46 230.225 594.414 202.143 630.394C189.334 646.936 174.458 661.41 154.211 669.267C148.798 671.161 143.181 672.41 137.476 672.989C134.19 673.38 130.885 673.576 127.576 673.576C110.48 673.577 94.453 668.334 79.01 660.169ZM173.839 405.634C150.08 401.499 126.32 397.157 102.767 391.366C84.173 387.024 66.613 379.374 51.531 366.966C31.078 350.216 21.368 329.534 21.368 294.802C21.781 276.602 30.459 253.239 44.919 231.943C56.49 214.781 70.951 200.307 90.166 191.415C114.338 180.249 137.266 182.938 158.966 198.652C177.354 212.092 190.782 229.669 202.966 248.485C218.256 272.677 232.304 297.485 243.46 323.956C249.038 337.604 253.791 351.664 253.997 366.556C254.203 388.061 243.872 400.881 222.797 405.636C215.277 407.225 207.609 408.009 199.923 407.973C191.179 407.905 182.455 407.123 173.839 405.634ZM296.56 364.07C276.726 359.107 264.744 345.67 257.719 327.057C250.281 306.793 249.248 285.703 249.248 265.857C250.282 210.028 258.548 157.095 279.411 106.434C289.948 80.796 303.791 57.016 323.211 36.959C339.533 20.004 358.952 8.21799 382.093 3.45899C399.034 0.149992 416.388 1.18499 433.329 4.49399C458.794 9.68235 483.092 19.493 505.02 33.44C527.126 47.088 546.133 63.84 560.389 85.753C580.428 116.563 582.702 148.819 568.446 182.523C555.017 214.574 534.357 241.454 510.185 265.853C483.326 293.561 453.163 317.34 418.66 334.708C392.835 347.941 365.977 358.694 337.467 364.277C330.379 365.638 323.184 366.358 315.967 366.428C309.424 366.467 302.903 365.675 296.56 364.07Z" stroke="black"/>
</svg>
