<svg width="19" height="12" viewBox="0 0 19 12" fill="none" xmlns="http://www.w3.org/2000/svg">
<path d="M8.46338 10.9589C8.38 10.8692 8.30966 10.7682 8.25439 10.6589L0.692383 2.52802C0.466252 2.27769 0.34082 1.95227 0.34082 1.61493C0.34082 1.27759 0.466252 0.952412 0.692383 0.702087C0.799486 0.58272 0.930697 0.487171 1.07715 0.421814C1.2236 0.356457 1.38211 0.322693 1.54248 0.322693C1.70285 0.322693 1.86136 0.356457 2.00781 0.421814C2.15426 0.487171 2.28499 0.58272 2.39209 0.702087L5.59229 4.14008L9.35352 8.18304L14.7393 2.39105L16.3105 0.702087C16.4177 0.58286 16.5484 0.487325 16.6948 0.422058C16.8413 0.356791 16.9998 0.323181 17.1602 0.323181C17.3205 0.323181 17.479 0.356791 17.6255 0.422058C17.7719 0.487325 17.9031 0.58286 18.0103 0.702087C18.2364 0.952412 18.3618 1.27759 18.3618 1.61493C18.3618 1.95227 18.2364 2.27769 18.0103 2.52802L10.4482 10.6589C10.3931 10.7682 10.3227 10.8693 10.2393 10.9589C10.1276 11.0819 9.99062 11.1793 9.83789 11.2446C9.68516 11.3098 9.52051 11.3414 9.35449 11.3371H9.31836C9.15739 11.337 8.9983 11.3033 8.85107 11.2382C8.70385 11.1731 8.57176 11.0779 8.46338 10.9589Z" fill="black"/>
</svg>
