<svg width="19" height="12" viewBox="0 0 19 12" fill="none" xmlns="http://www.w3.org/2000/svg">
<path d="M8.58203 10.9589C8.49865 10.8692 8.42831 10.7682 8.37305 10.6589L0.811035 2.52802C0.584904 2.27769 0.459473 1.95227 0.459473 1.61493C0.459473 1.27759 0.584904 0.952412 0.811035 0.702087C0.918138 0.58272 1.04935 0.487171 1.1958 0.421814C1.34225 0.356457 1.50076 0.322693 1.66113 0.322693C1.82151 0.322693 1.98001 0.356457 2.12646 0.421814C2.27292 0.487171 2.40364 0.58272 2.51074 0.702087L5.71094 4.14008L9.47217 8.18304L14.8579 2.39105L16.4292 0.702087C16.5364 0.58286 16.667 0.487325 16.8135 0.422058C16.9599 0.356791 17.1185 0.323181 17.2788 0.323181C17.4391 0.323181 17.5977 0.356791 17.7441 0.422058C17.8906 0.487325 18.0217 0.58286 18.1289 0.702087C18.355 0.952412 18.4805 1.27759 18.4805 1.61493C18.4805 1.95227 18.355 2.27769 18.1289 2.52802L10.5669 10.6589C10.5117 10.7682 10.4414 10.8693 10.3579 10.9589C10.2462 11.0819 10.1093 11.1793 9.95654 11.2446C9.80382 11.3098 9.63916 11.3414 9.47314 11.3371H9.43701C9.27604 11.337 9.11695 11.3033 8.96973 11.2382C8.8225 11.1731 8.69041 11.0779 8.58203 10.9589Z" fill="black"/>
</svg>
