<svg width="19" height="12" viewBox="0 0 19 12" fill="none" xmlns="http://www.w3.org/2000/svg">
<path d="M8.86084 10.9589C8.77746 10.8692 8.70712 10.7682 8.65186 10.6589L1.08984 2.52802C0.863713 2.27769 0.738281 1.95227 0.738281 1.61493C0.738281 1.27759 0.863713 0.952412 1.08984 0.702087C1.19695 0.58272 1.32816 0.487171 1.47461 0.421814C1.62106 0.356457 1.77957 0.322693 1.93994 0.322693C2.10032 0.322693 2.25882 0.356457 2.40527 0.421814C2.55173 0.487171 2.68245 0.58272 2.78955 0.702087L5.98975 4.14008L9.75098 8.18304L15.1367 2.39105L16.708 0.702087C16.8152 0.58286 16.9458 0.487325 17.0923 0.422058C17.2387 0.356791 17.3973 0.323181 17.5576 0.323181C17.7179 0.323181 17.8765 0.356791 18.0229 0.422058C18.1694 0.487325 18.3005 0.58286 18.4077 0.702087C18.6338 0.952412 18.7593 1.27759 18.7593 1.61493C18.7593 1.95227 18.6338 2.27769 18.4077 2.52802L10.8457 10.6589C10.7905 10.7682 10.7202 10.8693 10.6367 10.9589C10.5251 11.0819 10.3881 11.1793 10.2354 11.2446C10.0826 11.3098 9.91797 11.3414 9.75195 11.3371H9.71582C9.55485 11.337 9.39576 11.3033 9.24854 11.2382C9.10131 11.1731 8.96922 11.0779 8.86084 10.9589Z" fill="black"/>
</svg>
